<svg id="Layer_1" xmlns="http://www.w3.org/2000/svg" viewBox="0 0 66.4 79.8"><style>.st0{fill:none}</style><path class="st0" d="M28.2 52.9l-.3-.2 19.9-28.1c3.5 1.7 7.8.7 10.1-2.6l3.9-5.5c1.2-1.7 1.7-3.9 1.3-5.9-.4-2.1-1.6-3.9-3.3-5.1-.6-.5-1.4-.3-1.8.2L52.2 14c-.7.9-2 1.2-3 .5-.5-.3-.8-.8-.9-1.3-.1-.5 0-1.1.3-1.5l5.8-8.2c.4-.6.3-1.4-.3-1.8C50.6-.9 45.6 0 43 3.6L39.1 9c-1.2 1.7-1.7 3.9-1.3 5.9.3 1.7 1.1 3.2 2.3 4.3l-7 9.9-7.4-10.4-1.5-10c-.1-.7-.4-1.4-.8-2L20 2C18.5-.1 15.6-.6 13.5.9L5.3 6.6c-1 .7-1.7 1.8-1.9 3-.2 1.2 0 2.4.7 3.4l3.4 4.8c.4.6 1 1.1 1.6 1.4l9 4.8 9.3 13.1-7.3 10.2-.4-.2c-2.1-1.4-5-.9-6.5 1.1l-1.8 2.6c-.4.6-.2 1.4.3 1.8.6.4 1.3.2 1.7-.3l1.8-2.6c.7-.9 2-1.2 3-.5l6.9 4.8 1.4 1c.5.3.8.8.9 1.3.1.5 0 1.1-.3 1.5L15.6 74.3c-2.3 3.2-6.8 4-10 1.7-1.6-1-2.6-2.7-3-4.5-.3-1.8.1-3.7 1.2-5.3l6.5-9.2c.4-.6.2-1.4-.3-1.8-.6-.4-1.3-.2-1.7.3l-6.5 9.2C.3 66.8-.3 69.4.2 71.9c.4 2.5 1.9 4.8 4 6.2 1.6 1.1 3.6 1.7 5.5 1.7 3.1 0 6.1-1.4 8-4.1l11.6-16.4c.7-1 1-2.2.8-3.4-.2-1.2-.9-2.3-1.9-3zm-8.1-30.6c-.1-.2-.3-.3-.4-.4l-9.3-5c-.3-.2-.5-.4-.7-.6l-3.4-4.8c-.3-.5-.4-1-.3-1.5 0-.6.3-1 .7-1.4l3.1-2.2 5.1 7.2c.4.6 1.2.7 1.8.3.6-.4.7-1.2.3-1.8L11.9 5 15 2.9c1-.7 2.3-.4 3 .5l3.4 4.8c.2.3.3.6.4.9l1.4 9.5-1.6 1.1c-.6.4-.7 1.2-.3 1.8.4.5 1.1.7 1.7.3l1.3-.9 7.3 10.4L29 35l-8.9-12.7zm5.6 28.9l-3.5-2.4 20.6-29.1c.4-.6.3-1.4-.3-1.8-1.2-.8-2-2.1-2.3-3.5-.3-1.4.1-2.9.9-4l4-5.4c1.5-2.1 4.2-2.8 6.5-1.9l-5 7c-.7 1-1 2.2-.8 3.4.2 1.2.9 2.3 1.9 3 2.1 1.4 5 .9 6.5-1.1l5-7.1c.7.8 1.1 1.7 1.3 2.7.3 1.4-.1 2.9-.9 4l-3.9 5.5C54 23 50.5 23.6 48 21.8l-2.2-1.6c-.6-.4-1.4-.3-1.8.3-.4.6-.3 1.4.3 1.8l1.2.8-19.8 28.1z"/><path class="st0" d="M18.2 53.4c-.6-.4-1.4-.3-1.8.3L5.8 68.8c-.4.6-.3 1.4.3 1.8.6.4 1.3.3 1.7-.3l10.7-15c.4-.7.3-1.5-.3-1.9zm46.4 11.3l-6.5-9.2c-.4-.6-1.2-.7-1.8-.3s-.7 1.2-.3 1.8l6.5 9.2c1.1 1.5 1.5 3.4 1.2 5.3-.3 1.9-1.4 3.5-3 4.6-3.2 2.2-7.7 1.5-10-1.7L39.2 57.9c-.3-.5-.4-1-.3-1.5.1-.5.4-1 .9-1.3l8.3-5.7c1-.7 2.3-.4 3 .5l1.8 2.6c.4.6 1.2.7 1.8.3s.7-1.2.3-1.8l-2-2.7c-1.5-2.1-4.4-2.6-6.5-1.1l-.4.3-4.6-6.5c-.4-.6-1.2-.7-1.8-.3s-.7 1.2-.3 1.8L44 49l-3.5 2.4-3.5-4.9c-.4-.6-1.2-.7-1.8-.3-.6.4-.7 1.2-.3 1.8l3.5 4.9-.3.2c-1 .7-1.7 1.8-1.9 3-.2 1.2.1 2.4.8 3.4l11.6 16.4c1.9 2.7 4.9 4.1 8 4.1 1.9 0 3.9-.6 5.5-1.7 2.1-1.5 3.6-3.7 4-6.2.6-2.7 0-5.3-1.5-7.4z"/><path class="st0" d="M43.7 56.7c-.6.4-.7 1.2-.3 1.8l10.7 15.1c.4.6 1.2.7 1.8.3.6-.4.7-1.2.3-1.8L45.5 57c-.4-.6-1.2-.7-1.8-.3zm15.9 14.1c.7 0 1.3-.6 1.3-1.3 0-.3-.1-.5-.2-.7L50 53.7c-.4-.6-1.2-.7-1.8-.3s-.7 1.2-.3 1.8l10.7 15.1c.2.3.6.5 1 .5zm-49.1 3c.6.4 1.4.3 1.8-.3l10.7-15c.4-.6.3-1.4-.3-1.8-.6-.4-1.4-.3-1.8.3L10.2 72c-.4.6-.2 1.4.3 1.8z"/></svg>