<svg id="Layer_1" xmlns="http://www.w3.org/2000/svg" viewBox="0 0 80 80"><style>.st0{fill:none}</style><path class="st0" d="M75.4 0h-59c-.7 0-1.3.6-1.3 1.3 0 .7.6 1.3 1.3 1.3h58.9c1.2 0 2.1.9 2.1 2.1v40.8h-7.2c-.7 0-1.3.6-1.3 1.3s.6 1.3 1.3 1.3h7.2v12.2c0 .8-.4 1.4-1.1 1.8-.6.4-.8 1.1-.4 1.7.4.6 1.1.8 1.7.5 1.4-.8 2.3-2.4 2.3-4V4.6c.1-2.5-2-4.6-4.5-4.6z"/><path class="st0" d="M65.7 55.2c0 2.6 2.1 4.6 4.6 4.6 2.6 0 4.6-2.1 4.6-4.6 0-2.6-2.1-4.6-4.6-4.6-2.5-.1-4.6 2-4.6 4.6zm4.6-2.1c1.2 0 2.1.9 2.1 2.1 0 1.2-.9 2.1-2.1 2.1-1.2 0-2.1-.9-2.1-2.1 0-1.2 1-2.1 2.1-2.1zM27.8 63.6c0-.7-.6-1.3-1.3-1.3H4.6c-1.2 0-2.1-.9-2.1-2.1V48h30.7c.7 0 1.3-.6 1.3-1.3s-.6-1.3-1.3-1.3H2.5V4.6c0-1.2.9-2.1 2.1-2.1h6.7c.7 0 1.3-.6 1.3-1.3 0-.7-.6-1.3-1.3-1.3H4.6C2.1 0 0 2.1 0 4.6v55.6c0 2.6 2.1 4.6 4.6 4.6h21.9c.7 0 1.3-.5 1.3-1.2z"/><path class="st0" d="M70.9 62.6l-11.1-3.3v-4c3.4-1.6 5.8-4.8 6.4-8.5l1.4-9.1c1.4-.5 2.3-1.9 2.3-3.4 0-1-.4-1.9-1.1-2.6l-2.5-2.5-1.7-5.2c-1-3-3.7-5.1-6.8-5.4-.5-1-1.5-1.7-2.7-1.7h-6.7c-1.2 0-2.2.7-2.7 1.7-3.1.3-5.8 2.4-6.8 5.4l-1.7 5.2-2.5 2.5c-.7.7-1.1 1.6-1.1 2.6 0 1.6 1 2.9 2.3 3.4l1.4 9.1c.6 3.7 3 6.9 6.4 8.5v4l-11.1 3.3c-3.4 1-5.7 4.1-5.7 7.7v6.8c0 1.6 1.3 2.9 2.9 2.9h30.3c.7 0 1.3-.6 1.3-1.3s-.6-1.3-1.3-1.3H40.4v-3.8c0-.7-.6-1.3-1.3-1.3s-1.3.6-1.3 1.3v3.8h-8c-.2 0-.4-.2-.4-.4v-6.8c0-2.4 1.6-4.6 3.9-5.2l11.9-3.6h13.1L70.2 65c2.3.7 3.9 2.8 3.9 5.2V77c0 .2-.2.4-.4.4h-8v-3.8c0-.7-.6-1.3-1.3-1.3-.7 0-1.3.6-1.3 1.3v5.1c0 .7.6 1.3 1.3 1.3h9.3c1.6 0 2.9-1.3 2.9-2.9v-6.8c0-3.6-2.3-6.7-5.7-7.7zM37.3 35.4c-.6 0-1.1-.5-1.1-1.1 0-.3.1-.6.3-.8l2.7-2.7c.1-.1.2-.3.3-.5l1.8-5.5c.6-1.9 2.2-3.3 4.1-3.6v5.4c0 .7.6 1.3 1.3 1.3s1.3-.6 1.3-1.3v-6.7c0-.2.2-.4.4-.4h6.7c.2 0 .4.2.4.4v6.7c0 .7.6 1.3 1.3 1.3s1.3-.6 1.3-1.3v-5.4c1.9.4 3.5 1.8 4.1 3.6l1.8 5.5c.1.2.2.4.3.5l2.7 2.7c.4.4.4 1.1 0 1.6-.2.2-.5.3-.8.3H37.3zm17.6 21c.8 0 1.6-.1 2.4-.2V59h-11v-2.8c.8.2 1.6.2 2.4.2h1.4c.7 0 1.3-.6 1.3-1.3s-.6-1.3-1.3-1.3h-1.4c-4.4 0-8.1-3.2-8.7-7.5l-1.3-8.5H65l-1.3 8.5c-.6 4.3-4.4 7.5-8.7 7.5-.7 0-1.3.6-1.3 1.3s.5 1.3 1.2 1.3zM9.7 50.5c-2.6 0-4.6 2.1-4.6 4.6 0 2.6 2.1 4.6 4.6 4.6h11.8c2.6 0 4.6-2.1 4.6-4.6 0-2.6-2.1-4.6-4.6-4.6H9.7zm13.9 4.7c0 1.2-.9 2.1-2.1 2.1H9.7c-1.2 0-2.1-.9-2.1-2.1 0-1.2.9-2.1 2.1-2.1h11.8c1.1 0 2.1.9 2.1 2.1z"/><path class="st0" d="M24 6.7H12.2c-1.2 0-2.1.9-2.1 2.1v5.1c0 1.2.9 2.1 2.1 2.1h4.6v3l-5.6 2.8c-.7.4-1.2 1.1-1.2 1.9v.6c0 .8.4 1.5 1.2 1.9l5.6 2.8v3h-4.6c-1.2 0-2.1.9-2.1 2.1v5.1c0 1.2.9 2.1 2.1 2.1H24c1.2 0 2.1-.9 2.1-2.1v-1.3h3.8c.7 0 1.3-.6 1.3-1.3s-.6-1.3-1.3-1.3h-3.8V34c0-1.2-.9-2.1-2.1-2.1h-4.6v-3l5.6-2.8c.7-.4 1.2-1.1 1.2-1.9v-.6c0-.8-.4-1.5-1.2-1.9L19.4 19v-3H24c1.2 0 2.1-.9 2.1-2.1v-1.3h41.3v12.2c0 .7.6 1.3 1.3 1.3.7 0 1.3-.6 1.3-1.3V11.4c0-.7-.6-1.3-1.3-1.3H26.1V8.8c0-1.1-.9-2.1-2.1-2.1zm-.4 27.8v4.2h-11v-4.2h11zm0-10.6v.1l-5.5 2.7-5.5-2.7v-.1l5.5-2.7 5.5 2.7zm0-10.4h-11V9.3h10.9c.1 0 .1 4.2.1 4.2zm5 41.7c0 2.6 2.1 4.6 4.6 4.6 2.6 0 4.6-2.1 4.6-4.6 0-2.6-2.1-4.6-4.6-4.6-2.5-.1-4.6 2-4.6 4.6zm6.8 0c0 1.2-.9 2.1-2.1 2.1-1.2 0-2.1-.9-2.1-2.1 0-1.2.9-2.1 2.1-2.1s2.1.9 2.1 2.1z"/></svg>