<svg version="1.1" id="Layer_1" xmlns="http://www.w3.org/2000/svg" x="0" y="0" viewBox="0 0 80 80" xml:space="preserve"><style>.st0{fill:none}</style><path class="st0" d="M27.3 10.9h15.2c1.6 0 2.9-1.3 2.9-2.9 0-.4-.1-.8-.2-1.1l-2-5.1C42.8.7 41.8 0 40.5 0H29.4c-1.2 0-2.3.7-2.7 1.9l-2 5.1c-.6 1.5.1 3.2 1.6 3.8.3.1.7.1 1 .1zm-.4-3.1l2-5.1c.1-.2.2-.3.4-.3h11.2c.2 0 .3.1.4.3l2 5.1c.1.1 0 .3 0 .4-.1.1-.2.2-.3.2H27.3c-.1 0-.3-.1-.3-.2-.1-.1-.1-.2-.1-.4zm.9 10.3c0-.7-.6-1.3-1.3-1.3H14.7c-.7 0-1.3.6-1.3 1.3s.6 1.3 1.3 1.3h11.8c.7 0 1.3-.6 1.3-1.3zm49.8 9.4l-3.5-.7c-.2-.6-.5-1.2-.7-1.8l2-2.9c.8-1.2.6-2.7-.4-3.7l-1.6-1.6c-.9-.9-2.4-1.1-3.5-.5V9.7c0-2.6-2.1-4.6-4.6-4.6H48.4c-.7 0-1.3.6-1.3 1.3 0 .7.6 1.3 1.3 1.3h10.5v4.2c-1.4.1-2.5 1-2.8 2.4l-.7 3.5c-.6.2-1.2.5-1.8.7l-2.9-2c-1.2-.8-2.7-.6-3.7.4l-1.6 1.6c-1 1-1.1 2.6-.4 3.7l2 2.9c-.3.6-.5 1.2-.7 1.8l-3.5.7c-1.4.3-2.4 1.5-2.4 2.9v2.3c0 1.4 1 2.6 2.4 2.9l3.5.7c.2.6.5 1.2.7 1.8L45 41c-.8 1.2-.6 2.7.4 3.7l1.6 1.6c1 1 2.6 1.1 3.7.4l2.9-2c.6.3 1.2.5 1.8.7l.7 3.5c.3 1.4 1.5 2.4 2.9 2.4h2.3c1.4 0 2.6-1 2.9-2.4l.7-3.5c.6-.2 1.2-.5 1.8-.7l2.9 2c1.2.8 2.7.6 3.7-.4l1.6-1.6c1-1 1.1-2.6.4-3.7l-2-2.9c.3-.6.5-1.2.7-1.8l3.5-.7c1.4-.3 2.4-1.5 2.4-2.9v-2.3c.1-1.4-.9-2.6-2.3-2.9zM61.5 7.6h3.8c1.2 0 2.1.9 2.1 2.1V18l-.6.4c-.6-.3-1.2-.5-1.8-.7l-.7-3.5c-.3-1.3-1.4-2.3-2.8-2.4V7.6zm16 25.1c0 .2-.1.4-.3.4l-4.3.9c-.5.1-.8.4-1 .9-.3.9-.6 1.8-1.1 2.7-.2.4-.2.9.1 1.3l2.4 3.6c.1.2.1.4-.1.5l-1.6 1.6c-.1.1-.4.2-.5.1l-3.6-2.4c-.4-.3-.9-.3-1.3 0-.8.5-1.8.9-2.7 1.1-.5.1-.8.5-.9 1l-.8 4.2c0 .2-.2.3-.4.3h-2.3c-.2 0-.4-.1-.4-.3l-.8-4.2c-.1-.5-.4-.8-.9-1-.9-.3-1.8-.6-2.7-1.1-.4-.2-.9-.2-1.3 0l-3.6 2.4c-.2.1-.4.1-.5-.1L47.2 43c-.1-.1-.2-.4-.1-.5l2.4-3.6c.3-.4.3-.9 0-1.3-.5-.8-.9-1.7-1.1-2.7-.1-.5-.5-.8-1-.9l-4.2-.8c-.2 0-.3-.2-.3-.4v-2.3c0-.2.1-.4.3-.4l4.2-.8c.5-.1.8-.4 1-.9.3-.9.6-1.8 1.1-2.7.2-.4.2-.9 0-1.3l-2.4-3.6c-.1-.2-.1-.4.1-.5l1.6-1.6c.1-.1.4-.2.5-.1l3.6 2.4c.4.3.9.3 1.3 0 .8-.5 1.7-.9 2.7-1.1.5-.1.8-.5.9-1l.8-4.2c0-.2.2-.3.4-.3h2.3c.2 0 .4.1.4.3l.8 4.2c.1.5.4.8.9 1 .9.3 1.8.6 2.7 1.1.4.2.9.2 1.3 0l3.6-2.4c.2-.1.4-.1.5.1l1.6 1.6c.1.1.2.4.1.5l-2.4 3.6c-.3.4-.3.9-.1 1.3.5.8.9 1.8 1.1 2.7.1.5.5.8 1 .9l4.2.8c.2 0 .3.2.3.4.2-.1.2 2.2.2 2.2z"/><path class="st0" d="M60.2 24.8c-3.8 0-6.8 3.1-6.8 6.8 0 3.8 3.1 6.8 6.8 6.8.7 0 1.3-.6 1.3-1.3s-.6-1.3-1.3-1.3c-2.4 0-4.3-1.9-4.3-4.3s1.9-4.3 4.3-4.3 4.3 1.9 4.3 4.3c0 1-.3 1.9-.9 2.6-.4.6-.3 1.3.2 1.8.6.4 1.3.3 1.8-.2.9-1.2 1.4-2.6 1.4-4.1 0-3.8-3-6.8-6.8-6.8zm-45.5-2.9c-.7 0-1.3.6-1.3 1.3s.6 1.3 1.3 1.3h8.4c.7 0 1.3-.6 1.3-1.3s-.6-1.3-1.3-1.3h-8.4z"/><path class="st0" d="M68.6 48.8c-.7 0-1.3.6-1.3 1.3v25.3c0 1.2-.9 2.1-2.1 2.1H4.6c-1.2 0-2.1-.9-2.1-2.1V9.7c0-1.2.9-2.1 2.1-2.1h3.8v61.1c0 1.6 1.3 2.9 2.9 2.9h35.4c.7 0 1.3-.6 1.3-1.3s-.6-1.3-1.3-1.3H11.4c-.2 0-.4-.2-.4-.4v-3.8h48v3.8c0 .2-.2.4-.4.4h-6.7c-.7 0-1.3.6-1.3 1.3 0 .7.6 1.3 1.3 1.3h6.7c1.6 0 2.9-1.3 2.9-2.9V55.2c0-.7-.6-1.3-1.3-1.3s-1.3.6-1.3 1.3v7.2h-48V49.7h5.5c.6 0 1.2.3 1.6.8l4.7 5.9a4.6 4.6 0 003.6 1.7h9c1.3 0 2.6-.6 3.5-1.6l6.3-7.3c.4-.5.4-1.3-.2-1.8-.5-.4-1.3-.4-1.8.1L37 54.9c-.4.5-1 .7-1.6.7h-9c-.6 0-1.2-.3-1.6-.8l-4.7-5.9a4.6 4.6 0 00-3.6-1.7H11V32.8h24.8c.7 0 1.3-.6 1.3-1.3 0-.7-.6-1.3-1.3-1.3H10.9V7.6h10.5c.7 0 1.3-.6 1.3-1.3 0-.7-.6-1.3-1.3-1.3H4.6C2.1 5.1 0 7.1 0 9.7v65.7C0 77.9 2.1 80 4.6 80h60.6c2.6 0 4.6-2.1 4.6-4.6V50.1c.1-.7-.5-1.3-1.2-1.3z"/></svg>