<svg id="Layer_1" xmlns="http://www.w3.org/2000/svg" viewBox="0 0 80 80"><style>.st0{fill:none}</style><path class="st0" d="M77.1 56.4c1.6 0 2.9-1.3 2.9-2.9v-32c0-1.6-1.3-2.9-2.9-2.9H43.4c-1.6 0-2.9 1.3-2.9 2.9v20.6H27.8v-5.5c0-1.6-1.3-2.9-2.9-2.9h-.4v-6.8l4.9-8.1c.1-.2.2-.4.2-.7V2.9c0-1.6-1.3-2.9-2.9-2.9H20c-.7 0-1.3.6-1.3 1.3 0 .7.6 1.3 1.3 1.3h6.7c.2 0 .4.2.4.4v13.9H16.4c-.7 0-1.3.6-1.3 1.3s.6 1.3 1.3 1.3H26l-3.5 5.9h-5.3l-4.5-7.5v-15c0-.2.2-.4.4-.4h1.7c.6 0 1.2-.5 1.2-1.2S15.4 0 14.7 0H13c-1.6 0-2.9 1.3-2.9 2.9v15.2c0 .2.1.5.2.6l4.9 8.1v6.8h-1.4l-3-4.5c-.2-.4-.6-.6-1.1-.6H2.5V23c0-.7-.6-1.3-1.3-1.3-.7 0-1.3.6-1.3 1.3v26.9c0 .7.6 1.3 1.3 1.3H5v2.5H1.3c-.7 0-1.3.6-1.3 1.3v23.6c0 .8.6 1.4 1.3 1.4h77.5c.7 0 1.3-.6 1.3-1.3s-.6-1.3-1.3-1.3h-7.2v-21h5.5zM17.7 27.8h4.2v5.9h-4.2v-5.9zm-15.2 21v-4.2h3.8c.7 0 1.3-.6 1.3-1.3s-.6-1.2-1.3-1.2H2.5V31.2H9l3 4.5c.2.4.6.6 1.1.6h11.8c.2 0 .4.2.4.4v5.5H11.4c-.7 0-1.3.6-1.3 1.3s.6 1.3 1.3 1.3h29.1V49h-38zm37.9 2.6v2.5h-5.9v-2.5h5.9zm-8.4 0v2.5H7.6v-2.5H32zM7.3 77.5H2.5V75H9c0-.1-1.7 2.5-1.7 2.5zm3.1 0l1.7-2.5h17.2l1.7 2.5H10.4zm27.2 0h-3.7L32.2 75h7.1l-1.7 2.5zm3.1 0l1.7-2.5h17.2l1.7 2.5H40.7zm28.4 0h-4.8L62.6 75h6.5v2.5zm0-5.1H42.9V60.2c0-.7-.6-1.3-1.3-1.3s-1.3.6-1.3 1.3v12.2H2.5v-16H69v16zM42.9 53.9V21.5c0-.2.2-.4.4-.4H77c.2 0 .4.2.4.4v32c0 .2-.2.4-.4.4H42.9z"/><path class="st0" d="M6.3 68.2H13c.7 0 1.3-.6 1.3-1.3s-.6-1.3-1.3-1.3H6.3c-.7 0-1.3.6-1.3 1.3s.6 1.3 1.3 1.3zm42.1-5h6.7c.7 0 1.3-.6 1.3-1.3s-.6-1.3-1.3-1.3h-6.7c-.7 0-1.3.6-1.3 1.3s.6 1.3 1.3 1.3zm-42.1 0H13c.7 0 1.3-.6 1.3-1.3s-.6-1.3-1.3-1.3H6.3c-.7 0-1.3.6-1.3 1.3s.6 1.3 1.3 1.3zM72 25.3H51.8c-.7 0-1.3.6-1.3 1.3v21.9c0 .7.6 1.3 1.3 1.3H72c.7 0 1.3-.6 1.3-1.3v-22c0-.7-.6-1.2-1.3-1.2zm-1.3 21.9h-4.2V31.6c0-.7-.6-1.3-1.3-1.3-.7 0-1.3.6-1.3 1.3v15.6H53.1V27.8h4.2v15.6c0 .7.6 1.3 1.3 1.3s1.3-.6 1.3-1.3V27.8h10.9v19.4zm-24-16.9c-.7 0-1.3.6-1.3 1.3v11.8c0 .7.6 1.3 1.3 1.3s1.3-.6 1.3-1.3V31.6c0-.7-.6-1.3-1.3-1.3zm1.7 37.9h6.7c.7 0 1.3-.6 1.3-1.3s-.6-1.3-1.3-1.3h-6.7c-.7 0-1.3.6-1.3 1.3s.6 1.3 1.3 1.3z"/></svg>