<svg id="Layer_1" xmlns="http://www.w3.org/2000/svg" viewBox="0 0 56.3 79.8"><style>.st0{fill:none}</style><path class="st0" d="M53.4 70.6H52l-2.2-10.5c-.8-3.7-4.1-6.3-7.8-6.3h-.5c-1.6-5.7-6.6-9.6-12.3-10l-6.5-24.3.5-.1c1.5-.4 2.4-1.8 2.1-3.3l-1.5-8.5c-.4-2.5-1.9-4.7-4-6A8.51 8.51 0 0 0 12.7.5c-2.3.5-4.3 2.1-5.5 4.3C6 7.1 5.9 9.7 6.7 12l3 8.1c.5 1.4 2.1 2.2 3.5 1.8l.5-.1 6.5 24.3c-2.7 1.8-4.6 4.5-5.5 7.7h-.5c-3.8 0-7 2.7-7.8 6.3L4.3 70.6H2.9c-1.6 0-2.9 1.3-2.9 2.9v3.4c0 1.6 1.3 2.9 2.9 2.9h37c.7 0 1.3-.6 1.3-1.3s-.6-1.3-1.3-1.3h-37c-.2 0-.4-.2-.4-.4v-3.4c0-.2.2-.4.4-.4h11.8c.7 0 1.3-.6 1.3-1.3 0-.7-.6-1.3-1.3-1.3H6.8l2.1-10c.5-2.5 2.8-4.3 5.3-4.3h.1c-.1 1.6 0 3.3.4 4.8.9 3.6 3.3 6.6 6.5 8.4 3.2 1.8 7 2.3 10.5 1.4 3.6-.9 6.6-3.3 8.4-6.5 1.4-2.5 2.1-5.3 1.8-8.2h.1c2.6 0 4.8 1.8 5.3 4.3l2.1 9.9h-7.9c-.7 0-1.3.6-1.3 1.3s.6 1.3 1.3 1.3h11.8c.2 0 .4.2.4.4v3.4c0 .2-.2.4-.4.4H45c-.7 0-1.3.6-1.3 1.3s.6 1.3 1.3 1.3h8.4c1.6 0 2.9-1.3 2.9-2.9v-3.4c0-1.4-1.3-2.7-2.9-2.7zM14.4 19l-1.8.5c-.2.1-.4-.1-.5-.3l-3-8.1c-.6-1.6-.5-3.5.3-5.1.8-1.6 2.3-2.8 4-3.2 1.7-.5 3.6-.2 5.1.8 1.5 1 2.6 2.5 2.9 4.3l1.5 8.5c0 .2-.1.4-.3.5L14.4 19zm1.8 2.1l4.1-1.1 6.4 23.7c-1.4.2-2.8.5-4.1 1.1l-6.4-23.7zM38 63.2c-1.5 2.6-4 4.5-6.9 5.3-2.9.8-6 .4-8.6-1.1-2.6-1.5-4.5-4-5.3-6.9-1.6-6 2-12.3 8-13.9 6-1.6 12.3 2 13.9 8 .8 2.9.4 6-1.1 8.6z"/><path class="st0" d="M31.4 52.5c-.5.5-.5 1.3 0 1.8.9.9 1.4 2 1.4 3.3 0 2.6-2.1 4.6-4.6 4.6-.7 0-1.3.6-1.3 1.3 0 .7.6 1.3 1.3 1.3 3.9 0 7.1-3.2 7.1-7.1 0-1.9-.8-3.7-2.1-5.1-.5-.6-1.3-.6-1.8-.1zm-7.9 5.1c0-2.6 2.1-4.6 4.6-4.6.7 0 1.3-.6 1.3-1.3 0-.7-.6-1.3-1.3-1.3-3.9 0-7.1 3.2-7.1 7.1 0 1.9.7 3.7 2.1 5.1.5.5 1.3.5 1.8 0s.5-1.3 0-1.8c-.9-.8-1.4-2-1.4-3.2z"/></svg>