<svg version="1.1" id="Layer_1" xmlns="http://www.w3.org/2000/svg" x="0" y="0" viewBox="0 0 46.6 48" xml:space="preserve"><style>.st0{fill:none}</style><path class="st0" d="M43.8 19.8h-9.2c-.5 0-.8.4-.8.9s.4.9.8.9h7.7l2.5 24.6H1.9l2.9-24.6h7.7c.5 0 .8-.4.8-.9s-.4-.9-.8-.9H3.3L0 48h46.6l-2.8-28.2z"/><path class="st0" d="M23.1 33.1c-.1.1-.2.1-.4.2s-.4.3-.5.4c-.4.3-.4.8-.2 1.2.2.4.7.5 1.1.2.4-.3.8-.6 1.3-.8.4-.2.5-.7.4-1.1 1.5-1.7 6.5-7.9 8.6-18.4.4-2.1.5-4.1.3-6C33 3 29.7 0 24 0c-5.7 0-9 3-9.8 8.8-.2 1.9-.1 3.9.3 6 2.1 10.3 7 16.6 8.6 18.3zM15.9 9c.6-4.9 3.3-7.2 8.1-7.2 4.9 0 7.5 2.4 8.1 7.2.2 1.7.1 3.5-.3 5.4-1.8 9.4-6.3 15.4-7.8 17.2-1.5-1.8-6-7.8-7.9-17.1-.3-2-.4-3.8-.2-5.5z"/><path class="st0" d="M23.3 15.5c3.5 0 6.3-2.8 6.4-6.4 0-3.5-2.8-6.3-6.4-6.4-3.5 0-6.3 2.8-6.4 6.4 0 3.6 2.9 6.4 6.4 6.4zm0-10.9c2.6 0 4.6 2.1 4.6 4.6 0 2.6-2.1 4.6-4.6 4.6-2.6 0-4.6-2.1-4.6-4.6 0-2.6 2-4.6 4.6-4.6zm4.1 28.1c-.4.1-.6.4-.5.7.1.3.4.5.7.5h.1c.4-.1.9-.1 1.3-.2.4 0 .7-.3.6-.7 0-.3-.4-.6-.8-.5-.5 0-1 .1-1.4.2zm3.7-.9c0 .4.3.6.7.6l1.4-.1c.4 0 .7-.3.7-.7 0-.4-.4-.7-.7-.6l-1.4.1c-.4 0-.7.3-.7.7zm-12.6 5.1c-.4.3-.8.7-1.2 1-.4.3-.5.8-.2 1.2.1.3.4.4.7.4.2 0 .3-.1.4-.1.4-.3.9-.7 1.3-1.1.3-.3.4-.9.2-1.3-.3-.3-.8-.4-1.2-.1zm19.8-5.6c-.2.2-.6.4-1 .5-.4.1-.7.7-.6 1.2.1.5.4.8.7.8h.2c.6-.2 1.1-.5 1.5-.9l.1-.1c.3-.3.4-1 .1-1.4-.2-.4-.6-.5-1-.1zM7 37.6c.1-.4-.1-.8-.5-.9-.3-.1-.7.1-.8.5-.1.5-.2 1.1-.1 1.7 0 .4.3.6.6.6h.1c.4 0 .6-.4.6-.8v-.5c0-.1.1-.4.1-.6zm30.5-15c-.6-.1-1.1 0-1.7.1-.4.1-.6.5-.5.8.1.3.4.5.7.5h.2c.4-.1.7-.1 1.1-.1.4 0 .7-.2.8-.6.1-.3-.2-.6-.6-.7zm3.5 6.1c-.1.4.1.8.4.9h.2c.3 0 .5-.2.6-.5.1-.3.1-.6.1-.9 0-.3-.1-.7-.2-1-.1-.4-.5-.6-.8-.4-.3.2-.4.6-.3 1 .1.2.1.3.1.5v.1c0 .1-.1.2-.1.3zm-26.5 9.5c-.4.3-.9.5-1.3.8-.4.2-.6.8-.4 1.3.1.4.4.6.7.6.1 0 .2 0 .3-.1.5-.2.9-.5 1.4-.8.4-.2.5-.8.4-1.3-.3-.5-.7-.7-1.1-.5zm-5.3-2.9c.1 0 .2 0 .3-.1.2-.1.4-.1.7-.2h.3c.4 0 .8-.2.8-.5.1-.3-.2-.6-.6-.7h-.6c-.4 0-.8.1-1.2.3-.4.2-.5.5-.3.8.1.3.3.4.6.4zM9 42.2c.2 0 .3.1.5.1h1.2c.4 0 .7-.4.6-.7-.1-.4-.4-.6-.8-.6H9.3c-.4-.1-.8.1-.9.5 0 .3.2.6.6.7z"/></svg>