<svg id="Layer_1" xmlns="http://www.w3.org/2000/svg" viewBox="0 0 16.4 22"><style>.st0{fill:none}</style><path class="st0" d="M16.2 4.7L11.6.1c0-.1-.1-.1-.2-.1H1.8C.8 0 0 .8 0 1.8v18.3c0 1 .8 1.8 1.8 1.8h12.7c1 0 1.8-.8 1.8-1.8V5c.1-.1 0-.2-.1-.3zm-4.4-3.1l3 3h-2.1c-.5 0-.9-.4-.9-.9V1.6zm3.7 18.6c0 .5-.4.9-.9.9H1.8c-.5 0-.9-.4-.9-.9V1.8c0-.5.4-.9.9-.9h9.1v2.8c0 1 .8 1.8 1.8 1.8h2.7v14.7z"/><path class="st0" d="M10.5 13.7c-.4-.3-.8-.7-1.1-1-.3-.3-.6-.7-.9-1 .4-1.3.6-2 .6-2.4 0-1.6-.5-1.9-1.3-1.9-.6 0-1.3.3-1.3 1.9 0 .7.4 1.5 1.1 2.5-.2.6-.4 1.2-.6 2-.1.4-.2.7-.4 1-.1 0-.2.1-.3.1-.4.2-.7.4-1 .5-1.4.7-2.4 1.2-2.4 2.1 0 .7.7 1.1 1.3 1.1.8 0 2.1-1.2 3-3.1 1-.4 2.1-.7 3.1-.9.8.6 1.6 1.2 2 1.2 1.1 0 1.3-.7 1.3-1.2 0-1.1-1.2-1.1-1.8-1.1-.2.1-.7.1-1.3.2zm-6.3 4.1c-.2 0-.3 0-.4-.1 0-.3.9-.8 1.9-1.3l.2-.1c-.8 1-1.5 1.5-1.7 1.5zm3.1-8.4c0-1 .3-1 .4-1 .3 0 .4 0 .4.9 0 .2-.1.7-.4 1.5-.2-.5-.4-1-.4-1.4zm.3 5c0-.1.1-.2.1-.2l.4-1.4c.2.2.4.4.6.7.1.1.3.3.6.5-.5.1-1.1.3-1.7.4zm5.1.3c0 .2 0 .3-.4.3-.1 0-.4-.2-.8-.4h.3c.6-.1.8 0 .9.1z"/></svg>