<svg version="1.1" id="Layer_1" xmlns="http://www.w3.org/2000/svg" x="0" y="0" viewBox="0 0 48 48" xml:space="preserve"><style>.st0{fill:none}</style><path class="st0" d="M34.1 0H13.9c-1.9 0-3.5 1.6-3.5 3.5v41c0 1.9 1.6 3.5 3.5 3.5h20.2c1.9 0 3.5-1.6 3.5-3.5v-41C37.6 1.6 36 0 34.1 0zM12 6.4h24v30.4H12V6.4zm1.9-4.8h20.2c1.1 0 1.9.9 1.9 1.9v1.3H12V3.5c0-1 .9-1.9 1.9-1.9zm20.2 44.8H13.9c-1.1 0-1.9-.9-1.9-1.9v-6.1h24v6.1c0 1-.9 1.9-1.9 1.9z"/><path class="st0" d="M24 39.2c-1.8 0-3.2 1.4-3.2 3.2 0 1.8 1.4 3.2 3.2 3.2 1.8 0 3.2-1.4 3.2-3.2s-1.4-3.2-3.2-3.2zm0 4.8c-.9 0-1.6-.7-1.6-1.6s.7-1.6 1.6-1.6 1.6.7 1.6 1.6S24.9 44 24 44zM20.8 4H24c.4 0 .8-.4.8-.8s-.4-.8-.8-.8h-3.2c-.4 0-.8.4-.8.8s.4.8.8.8zm5.6 0h.8c.4 0 .8-.4.8-.8s-.4-.8-.8-.8h-.8c-.4 0-.8.4-.8.8s.4.8.8.8zm18.9-.3c-.3-.3-.8-.3-1.1 0s-.3.8 0 1.1c3 3 3 7.9 0 10.8-.3.3-.3.8 0 1.1s.8.3 1.1 0c3.6-3.6 3.6-9.4 0-13z"/><path class="st0" d="M41.9 5.5c-.3-.3-.8-.3-1.1 0-.3.3-.3.8 0 1.1 1 1 1.5 2.3 1.5 3.7 0 1.4-.5 2.7-1.5 3.7-.3.3-.3.8 0 1.1.3.3.8.3 1.1 0 1.3-1.3 2-3 2-4.8 0-1.8-.7-3.5-2-4.8zM3.8 4.8c.3-.3.3-.8 0-1.1-.3-.3-.8-.3-1.1 0-3.6 3.6-3.6 9.5 0 13.1.3.3.8.3 1.1 0 .3-.3.3-.8 0-1.1C.9 12.6.9 7.8 3.8 4.8zm3.4.5c-.3-.3-.8-.3-1.1 0-1.3 1.3-2 3-2 4.8 0 1.8.7 3.6 2 4.8.3.3.8.3 1.1 0 .3-.3.3-.8 0-1.1-1-1-1.5-2.3-1.5-3.7 0-1.4.5-2.7 1.5-3.7.3-.3.3-.8 0-1.1z"/></svg>