<?xml version="1.0" encoding="utf-8"?>
<!-- Generator: Adobe Illustrator 22.1.0, SVG Export Plug-In . SVG Version: 6.00 Build 0)  -->
<svg version="1.1" id="Layer_1" opacity="0.1" xmlns="http://www.w3.org/2000/svg" xmlns:xlink="http://www.w3.org/1999/xlink"
	 x="0px" y="0px" width="1459.9px" height="1459.9px" viewBox="0 0 1459.9 1459.9"
	 style="enable-background:new 0 0 1459.9 1459.9;" xml:space="preserve">
<style type="text/css">
	.st0{fill:#4F4F6A;}
</style>
<g id="Page-1">
	<g id="_x30_1_x5F_01-HOMEPAGE-_x5B_design_x5D_" transform="translate(0.000000, -2032.000000)">
		<g id="section-FEATURES" transform="translate(-10.000000, 2031.000000)">
			<g id="bg">
				<g id="sign">
					<g id="Group-3" transform="translate(260.000000, 844.910000)">
						<g id="Clip-2">
						</g>
						<path id="Fill-1" class="st0" d="M114,43.5L10.7,146.8L480,616l208.1-208.1L323.7,43.5C265.8-14.4,171.9-14.4,114,43.5"/>
					</g>
					<g id="Group-6" transform="translate(0.000000, 0.910000)">
						<g id="Clip-5">
						</g>
						<path id="Fill-4" class="st0" d="M559.4,180.7c-101.8,101.8-101.8,267,0,368.8c-101.8-101.8-267-101.8-368.8,0L10,730
							l207.9,208l105.8-105.8c85.7-85.7,224.6-85.7,310.3,0l366.9,366.9L1105,1095l104-104L842.1,624.1
							c-85.7-85.7-85.7-224.6,0-310.3L947.9,208L740,0.1L559.4,180.7z"/>
					</g>
					<g id="Group-9" transform="translate(843.000000, 260.910000)">
						<g id="Clip-8">
						</g>
						<path id="Fill-7" class="st0" d="M54.4,313.8l364.4,364.4L626.9,470L157.7,0.8L54.4,104.1C-3.5,162-3.5,255.9,54.4,313.8"/>
					</g>
				</g>
			</g>
		</g>
	</g>
</g>
</svg>
