<svg width="28" height="28" viewBox="0 0 28 28" fill="none" xmlns="http://www.w3.org/2000/svg">
<path d="M25 9H17V17H25V9Z" stroke="#0057FF" stroke-width="2" stroke-miterlimit="10"/>
<path d="M21 9V12" stroke="#0057FF" stroke-width="2" stroke-miterlimit="10"/>
<path d="M17 27C18.6569 27 20 25.6569 20 24C20 22.3431 18.6569 21 17 21C15.3431 21 14 22.3431 14 24C14 25.6569 15.3431 27 17 27Z" stroke="#0057FF" stroke-width="2" stroke-miterlimit="10"/>
<path d="M3 27C4.10457 27 5 26.1046 5 25C5 23.8954 4.10457 23 3 23C1.89543 23 1 23.8954 1 25C1 26.1046 1.89543 27 3 27Z" stroke="#0057FF" stroke-width="2" stroke-miterlimit="10"/>
<path d="M14 20L11 8L4 7H3V17" stroke="#0057FF" stroke-width="2" stroke-miterlimit="10"/>
<path d="M17 21V0" stroke="#0057FF" stroke-width="2" stroke-miterlimit="10"/>
<path d="M1 25V17H6L11 20H17" stroke="#0057FF" stroke-width="2" stroke-miterlimit="10"/>
<path d="M28 17H17" stroke="#0057FF" stroke-width="2" stroke-miterlimit="10"/>
<path d="M5 25H14" stroke="#0057FF" stroke-width="2" stroke-miterlimit="10"/>
</svg>
