<svg width="152" height="38" viewBox="0 0 152 38" fill="none" xmlns="http://www.w3.org/2000/svg">
<path d="M58.3145 10V28H62.7521V20.0286L68.5458 28H73.7231L67.0666 18.8714L73.3533 10H68.176L62.7521 17.7143V10H58.3145Z" fill="#090B0F"/>
<path d="M73.1048 10L78.8985 28H84.3223L90.116 10H85.4317L81.6104 22.9857L77.7891 10H73.1048Z" fill="#090B0F"/>
<path d="M94.674 10L88.5106 28H93.1948L94.0577 25.1714H100.468L101.331 28H106.015L99.8513 10H94.674ZM99.1117 20.9286H95.4137L97.2627 15.0143L99.1117 20.9286Z" fill="#090B0F"/>
<path d="M107.381 10V28H111.819V22.0857H113.298L116.873 28H121.804L117.81 21.6486C118.426 21.3657 118.969 20.98 119.437 20.4914C119.856 20.0543 120.226 19.4886 120.571 18.7686C120.892 18.0486 121.064 17.1486 121.064 16.0429C121.064 15.1686 120.916 14.3714 120.645 13.6257C120.374 12.88 119.955 12.2371 119.437 11.6971C118.919 11.1571 118.278 10.7457 117.539 10.4371C116.774 10.1543 115.936 10 115.024 10H107.381ZM114.753 17.9714H111.819V14.1143H114.778C115.345 14.1143 115.788 14.2943 116.133 14.6286C116.454 14.9886 116.627 15.4514 116.627 16.0429C116.627 16.6343 116.454 17.0971 116.133 17.4314C115.788 17.7914 115.32 17.9714 114.753 17.9714Z" fill="#090B0F"/>
<path d="M126.87 14.1143V28H131.308V14.1143H136.239V10H121.94V14.1143H126.87Z" fill="#090B0F"/>
<path d="M140.659 10L134.496 28H139.18L140.043 25.1714H146.453L147.316 28H152L145.837 10H140.659ZM145.097 20.9286H141.399L143.248 15.0143L145.097 20.9286Z" fill="#090B0F"/>
<g clip-path="url(#clip0_59_25)">
<path d="M28.3533 0L14.6655 17.7187V0H0V38H14.6655V20.2813L28.3533 38H43.0189V0H28.3533Z" fill="#0057FF"/>
</g>
<defs>
<clipPath id="clip0_59_25">
<rect width="43.0189" height="38" fill="white"/>
</clipPath>
</defs>
</svg>
