<svg width="28" height="28" viewBox="0 0 28 28" fill="none" xmlns="http://www.w3.org/2000/svg">
<path d="M17.702 2.45763C18.1505 2.27176 18.5301 1.9512 18.7885 1.54023L19.1286 1H20.8694L21.2095 1.54023C21.4678 1.95075 21.847 2.271 22.295 2.45682C22.743 2.64264 23.2376 2.68487 23.7106 2.57768L24.3319 2.43561L25.5634 3.66714L25.4213 4.28841C25.3141 4.7614 25.3564 5.256 25.5422 5.70398C25.728 6.15196 26.0483 6.53123 26.4588 6.78948L26.999 7.12963V8.87037L26.4588 9.21052C26.0483 9.46877 25.728 9.84804 25.5422 10.296C25.3564 10.744 25.3141 11.2386 25.4213 11.7116L25.5634 12.3329L24.3319 13.5644L23.7106 13.4223C23.2376 13.3151 22.743 13.3574 22.295 13.5432C21.847 13.729 21.4678 14.0493 21.2095 14.4598L20.8694 15H19.1326L18.7925 14.4598C18.5342 14.0493 18.155 13.729 17.707 13.5432C17.259 13.3574 16.7644 13.3151 16.2914 13.4223L15.6701 13.5644L14.4386 12.3329L14.5807 11.7116C14.6879 11.2386 14.6456 10.744 14.4598 10.296C14.274 9.84804 13.9537 9.46877 13.5432 9.21052L13 8.87337V7.13263L13.5402 6.79248C13.9507 6.53424 14.271 6.15496 14.4568 5.70698C14.6426 5.259 14.6849 4.7644 14.5777 4.29141L14.4356 3.67015L15.6671 2.43862L16.2884 2.58068C16.7611 2.68597 17.2547 2.643 17.702 2.45763Z" stroke="#0057FF" stroke-width="2" stroke-miterlimit="10"/>
<path d="M20 10C21.1046 10 22 9.10457 22 8C22 6.89543 21.1046 6 20 6C18.8954 6 18 6.89543 18 8C18 9.10457 18.8954 10 20 10Z" stroke="#0057FF" stroke-width="2" stroke-miterlimit="10"/>
<path d="M0 25.125H1.22581L10 26.5L19 21C19 19 15 20 11.0323 22L8 21V20C8 20 13 19 12 17C7 17 5 18 1 20L0 20" stroke="#0057FF" stroke-width="2" stroke-miterlimit="10"/>
</svg>
