<svg xmlns="http://www.w3.org/2000/svg" xmlns:xlink="http://www.w3.org/1999/xlink" width="175" height="44" viewBox="0 0 175 44">
    <defs>
        <path id="a" d="M0 43.875h174.92V.263H0z"/>
    </defs>
    <g fill="none" fill-rule="evenodd">
        <path fill="#D79F71" d="M0 44h43.75V.125H0V44zm3.666-3.684h36.418V3.801H3.666v36.515zM64.838 3.5l-4.257 7-4.265-7h-3.592v15.75h3.592V10.1l4.061 6.678h.407l4.054-6.678v9.15h3.591V3.5z"/>
        <g transform="translate(0 -1)">
            <path fill="#D79F71" d="M95.26 11.033v3.207h3.396c-.577 1.531-1.975 2.465-4.109 2.465-3.107 0-5.033-1.987-5.033-4.707 0-2.816 2.014-4.802 4.715-4.802 1.55 0 2.82.598 3.572 1.428l2.436-2.609c-1.446-1.452-3.563-2.393-5.985-2.393-4.714 0-8.406 3.71-8.406 8.352 0 4.595 3.62 8.304 8.662 8.304 4.491 0 7.902-2.975 7.902-7.873v-1.372h-7.15z"/>
            <mask id="b" fill="#fff">
                <use xlink:href="#a"/>
            </mask>
            <path fill="#D79F71" d="M104.473 19.951h3.668V3.941h-3.668zM117.074 10.394c-2.5-.758-2.892-1.26-2.892-1.986 0-.646.575-1.213 1.726-1.213 1.422 0 2.181.67 2.716 1.763l2.222-2.377.32-.343c-1.208-1.707-3.029-2.616-5.258-2.616-2.773 0-5.386 1.787-5.386 4.874 0 3.063 2.333 4.212 4.714 4.874 2.406.662 3.324 1.053 3.324 2.034 0 .614-.43 1.3-2.173 1.3-1.782 0-2.765-.853-3.34-2.154l-.336.36-.32.35-1.997 2.138c1.079 1.755 3.053 2.88 5.873 2.88 3.484 0 5.961-1.835 5.961-4.922 0-3.382-2.724-4.228-5.154-4.962M122.34 3.94v3.527h4.124V19.95h3.667V7.467h4.124V3.94zM142.27 11.495h-2.75V7.38h2.75c1.007 0 1.838.885 1.838 2.058 0 1.165-.831 2.058-1.838 2.058zm2.548 2.585c1.759-.894 2.95-2.68 2.95-4.643a5.48 5.48 0 0 0-5.498-5.496h-6.41v16.01h3.66v-5.257h1.742l3.029 5.257h3.94l-3.413-5.871zM154.246 14.757l2.112-6.628 2.12 6.622-4.232.006zm4.452-10.816h-4.673l-5.451 16.01h4.003l.574-1.764 6.422-.006.572 1.77h4.004l-5.45-16.01zM169.19 16.433V3.941h-3.667v16.01h9.397v-3.518zM76.135 14.757l2.111-6.628 2.121 6.622-4.232.006zm4.453-10.816h-4.675l-5.45 16.01h4.004l.573-1.764 6.423-.006.571 1.77h4.004l-5.45-16.01zM10.452 17.538H5.957v20.384h9.056v-15.83a4.558 4.558 0 0 0-4.561-4.554" mask="url(#b)"/>
            <path fill="#D79F71" d="M29.863 6.212c-4.432 0-8.024 3.587-8.024 8.01 0-4.423-3.593-8.01-8.025-8.01H5.957v9.033h4.602c3.728 0 6.752 3.018 6.752 6.74v15.937h9.056V21.985c0-3.722 3.022-6.74 6.752-6.74h4.602V6.212h-7.858z" mask="url(#b)"/>
            <path fill="#D79F71" d="M28.664 22.092v15.83h9.056V17.539h-4.495a4.557 4.557 0 0 0-4.56 4.553M53.075 24.25v3.518H57.2v12.493h3.667V27.768h4.124v-3.517zM70.256 36.735v-2.832h4.597v-3.478h-4.597V27.77h6.304V24.25h-9.972v16.01h10.084v-3.526zM90.193 35.706l-.216-.223-.16-.176c-.727 1.078-2.038 1.707-3.548 1.707-2.836 0-4.675-1.898-4.675-4.762 0-2.856 1.84-4.754 4.675-4.754 1.55 0 2.862.662 3.597 1.786l.11-.12.217-.222.223-.24 1.958-2.098c-1.47-1.66-3.667-2.672-6.105-2.672-4.834 0-8.334 3.614-8.334 8.32 0 4.715 3.5 8.328 8.334 8.328 2.421 0 4.596-.989 6.05-2.6l-1.903-2.034-.223-.24zM103.57 24.25v6.128h-5.043V24.25H94.86v16.01h3.667v-6.357h5.042v6.357h3.66V24.25z" mask="url(#b)"/>
        </g>
    </g>
</svg>
