<?xml version="1.0" encoding="utf-8"?>
<!-- Generator: Adobe Illustrator 22.1.0, SVG Export Plug-In . SVG Version: 6.00 Build 0)  -->
<svg version="1.0" id="Layer_1" xmlns="http://www.w3.org/2000/svg" xmlns:xlink="http://www.w3.org/1999/xlink" x="0px" y="0px"
	 width="1459.9px" height="1459.9px" viewBox="0 0 1459.9 1459.9" style="enable-background:new 0 0 1459.9 1459.9;"
	 xml:space="preserve">
<style type="text/css">
	.st0{filter:url(#Adobe_OpacityMaskFilter);}
	.st1{fill:#FFFFFF;}
	.st2{mask:url(#mask-2_2_);fill:#4F4F6A;}
	.st3{filter:url(#Adobe_OpacityMaskFilter_1_);}
	.st4{mask:url(#mask-4_2_);fill:#4F4F6A;}
	.st5{filter:url(#Adobe_OpacityMaskFilter_2_);}
	.st6{mask:url(#mask-6_2_);fill:#4F4F6A;}
</style>
<g id="Page-1">
	<g id="_x30_1_x5F_01-HOMEPAGE-_x5B_design_x5D_" transform="translate(0.000000, -2032.000000)">
		<g id="section-FEATURES" transform="translate(-10.000000, 2031.000000)">
			<g id="bg">
				<g id="sign">
					<g id="Group-3" transform="translate(260.000000, 844.910000)">
						<g id="Clip-2">
						</g>
						<defs>
							<filter id="Adobe_OpacityMaskFilter" filterUnits="userSpaceOnUse" x="10.7" y="0.1" width="677.3" height="615.9">
								<feColorMatrix  type="matrix" values="1 0 0 0 0  0 1 0 0 0  0 0 1 0 0  0 0 0 1 0"/>
							</filter>
						</defs>
						<mask maskUnits="userSpaceOnUse" x="10.7" y="0.1" width="677.3" height="615.9" id="mask-2_2_">
							<g class="st0">
								<polygon id="path-1_2_" class="st1" points="10.7,0.1 688.1,0.1 688.1,616 10.7,616 								"/>
							</g>
						</mask>
						<path id="Fill-1" class="st2" d="M114,43.5L10.7,146.8L480,616l208.1-208.1L323.7,43.5C265.8-14.4,171.9-14.4,114,43.5"/>
					</g>
					<g id="Group-6" transform="translate(0.000000, 0.910000)">
						<g id="Clip-5">
						</g>
						<defs>
							<filter id="Adobe_OpacityMaskFilter_1_" filterUnits="userSpaceOnUse" x="10" y="0.1" width="1199" height="1199">
								<feColorMatrix  type="matrix" values="1 0 0 0 0  0 1 0 0 0  0 0 1 0 0  0 0 0 1 0"/>
							</filter>
						</defs>
						<mask maskUnits="userSpaceOnUse" x="10" y="0.1" width="1199" height="1199" id="mask-4_2_">
							<g class="st3">
								<polygon id="path-3_2_" class="st1" points="10,0.1 1209,0.1 1209,1199.1 10,1199.1 								"/>
							</g>
						</mask>
						<path id="Fill-4" class="st4" d="M559.4,180.7c-101.8,101.8-101.8,267,0,368.8c-101.8-101.8-267-101.8-368.8,0L10,730
							L217.9,938l105.8-105.8c85.7-85.7,224.6-85.7,310.3,0l366.9,366.9l104.1-104.1L1209,991L842.1,624.1
							c-85.7-85.7-85.7-224.6,0-310.3L947.9,208L740,0.1L559.4,180.7z"/>
					</g>
					<g id="Group-9" transform="translate(843.000000, 260.910000)">
						<g id="Clip-8">
						</g>
						<defs>
							<filter id="Adobe_OpacityMaskFilter_2_" filterUnits="userSpaceOnUse" x="11" y="0.8" width="615.9" height="677.3">
								<feColorMatrix  type="matrix" values="1 0 0 0 0  0 1 0 0 0  0 0 1 0 0  0 0 0 1 0"/>
							</filter>
						</defs>
						<mask maskUnits="userSpaceOnUse" x="11" y="0.8" width="615.9" height="677.3" id="mask-6_2_">
							<g class="st5">
								<polygon id="path-5_2_" class="st1" points="11,0.8 626.9,0.8 626.9,678.2 11,678.2 								"/>
							</g>
						</mask>
						<path id="Fill-7" class="st6" d="M54.4,313.8l364.4,364.4L626.9,470L157.7,0.8L54.4,104.1C-3.5,162-3.5,255.9,54.4,313.8"/>
					</g>
				</g>
			</g>
		</g>
	</g>
</g>
<g>
</g>
<g>
</g>
<g>
</g>
<g>
</g>
<g>
</g>
</svg>
