<svg version="1.0" id="Layer_1" xmlns="http://www.w3.org/2000/svg" x="0" y="0" width="1459.9" height="1459.9" xml:space="preserve"><style>.st1{fill:#fff}</style><g id="Page-1"><g id="_x30_1_x5F_01-HOMEPAGE-_x5B_design_x5D_" transform="translate(0 -2032)"><g id="section-FEATURES" transform="translate(-10 2031)"><g id="bg"><g id="sign"><g id="Group-3" transform="translate(260 844.91)"><defs><filter id="Adobe_OpacityMaskFilter" filterUnits="userSpaceOnUse" x="10.7" y=".1" width="677.3" height="615.9"><feColorMatrix values="1 0 0 0 0 0 1 0 0 0 0 0 1 0 0 0 0 0 1 0"/></filter></defs><mask maskUnits="userSpaceOnUse" x="10.7" y=".1" width="677.3" height="615.9" id="mask-2_2_"><g filter="url(#Adobe_OpacityMaskFilter)"><path id="path-1_2_" class="st1" d="M10.7.1h677.4V616H10.7z"/></g></mask><path id="Fill-1" d="M114 43.5L10.7 146.8 480 616l208.1-208.1L323.7 43.5c-57.9-57.9-151.8-57.9-209.7 0" mask="url(#mask-2_2_)" fill="#4f4f6a"/></g><g id="Group-6" transform="translate(0 .91)"><defs><filter id="Adobe_OpacityMaskFilter_1_" filterUnits="userSpaceOnUse" x="10" y=".1" width="1199" height="1199"><feColorMatrix values="1 0 0 0 0 0 1 0 0 0 0 0 1 0 0 0 0 0 1 0"/></filter></defs><mask maskUnits="userSpaceOnUse" x="10" y=".1" width="1199" height="1199" id="mask-4_2_"><g filter="url(#Adobe_OpacityMaskFilter_1_)"><path id="path-3_2_" class="st1" d="M10 .1h1199v1199H10z"/></g></mask><path id="Fill-4" d="M559.4 180.7c-101.8 101.8-101.8 267 0 368.8-101.8-101.8-267-101.8-368.8 0L10 730l207.9 208 105.8-105.8c85.7-85.7 224.6-85.7 310.3 0l366.9 366.9L1105 1095l104-104-366.9-366.9c-85.7-85.7-85.7-224.6 0-310.3L947.9 208 740 .1 559.4 180.7z" mask="url(#mask-4_2_)" fill="#4f4f6a"/></g><g id="Group-9" transform="translate(843 260.91)"><defs><filter id="Adobe_OpacityMaskFilter_2_" filterUnits="userSpaceOnUse" x="11" y=".8" width="615.9" height="677.3"><feColorMatrix values="1 0 0 0 0 0 1 0 0 0 0 0 1 0 0 0 0 0 1 0"/></filter></defs><mask maskUnits="userSpaceOnUse" x="11" y=".8" width="615.9" height="677.3" id="mask-6_2_"><g filter="url(#Adobe_OpacityMaskFilter_2_)"><path id="path-5_2_" class="st1" d="M11 .8h615.9v677.4H11z"/></g></mask><path id="Fill-7" d="M54.4 313.8l364.4 364.4L626.9 470 157.7.8 54.4 104.1c-57.9 57.9-57.9 151.8 0 209.7" mask="url(#mask-6_2_)" fill="#4f4f6a"/></g></g></g></g></g></g></svg>