<svg version="1.1" id="Layer_1" xmlns="http://www.w3.org/2000/svg" x="0" y="0" viewBox="0 0 480 360" xml:space="preserve"><style>.st1{fill:#0057ff}</style><path d="M0 0h480v360H0V0z" fill="#f4f5f8"/><path class="st1" d="M34 216h14v4H34v-4zm0 12h6v-2h2v2h6v-2h4v-2h-4v-2h-6v2h-2v-2h-6v6zm21-12h14v4H55v-4zm0 12h6v-2h2v2h6v-2h4v-2h-4v-2h-6v2h-2v-2h-6v6zm21-12h14v4H76v-4zm0 12h6v-2h2v2h6v-2h4v-2h-4v-2h-6v2h-2v-2h-6v6zm21-12h14v4H97v-4zm0 12h6v-2h2v2h6v-2h4v-2h-4v-2h-6v2h-2v-2h-6v6zm21-12h14v4h-14v-4zm0 12h6v-2h2v2h6v-2h4v-2h-4v-2h-6v2h-2v-2h-6v6zm21-12h14v4h-14v-4zm0 12h6v-2h2v2h6v-2h4v-2h-4v-2h-6v2h-2v-2h-6v6zm21-12h14v4h-14v-4zm0 12h6v-2h2v2h6v-2h4v-2h-4v-2h-6v2h-2v-2h-6v6zm21-12h14v4h-14v-4zm0 12h6v-2h2v2h6v-2h4v-2h-4v-2h-6v2h-2v-2h-6v6zm21-12h14v4h-14v-4zm0 12h6v-2h2v2h6v-2h4v-2h-4v-2h-6v2h-2v-2h-6v6zm21-12h14v4h-14v-4zm0 12h6v-2h2v2h6v-2h4v-2h-4v-2h-6v2h-2v-2h-6v6zm21-12h14v4h-14v-4zm0 12h6v-2h2v2h6v-2h4v-2h-4v-2h-6v2h-2v-2h-6v6zm21-12h14v4h-14v-4zm0 12h6v-2h2v2h6v-2h4v-2h-4v-2h-6v2h-2v-2h-6v6zm21-12h14v4h-14v-4zm0 12h6v-2h2v2h6v-2h4v-2h-4v-2h-6v2h-2v-2h-6v6zm21-12h14v4h-14v-4zm0 12h6v-2h2v2h6v-2h4v-2h-4v-2h-6v2h-2v-2h-6v6zm21-12h14v4h-14v-4zm0 12h6v-2h2v2h6v-2h4v-2h-4v-2h-6v2h-2v-2h-6v6zm21-12h14v4h-14v-4zm0 12h6v-2h2v2h6v-2h4v-2h-4v-2h-6v2h-2v-2h-6v6zm21-12h14v4h-14v-4zm14 6h-6v2h-2v-2h-6v6h6v-2h2v2h6v-2h4v-2h-4v-2zM30 240h358v-8H30v8zm344-5h6v2h-6v-2zm-21 0h6v2h-6v-2zm-21 0h6v2h-6v-2zm-21 0h6v2h-6v-2zm-21 0h6v2h-6v-2zm-21 0h6v2h-6v-2zm-21 0h6v2h-6v-2zm-21 0h6v2h-6v-2zm-21 0h6v2h-6v-2zm-21 0h6v2h-6v-2zm-21 0h6v2h-6v-2zm-21 0h6v2h-6v-2zm-21 0h6v2h-6v-2zm-21 0h6v2h-6v-2zm-21 0h6v2h-6v-2zm-21 0h6v2h-6v-2zm-21 0h6v2h-6v-2zm63 7h10v4h-10v-4zm2 6h6v26h-6v-26zm207 0h6v26h-6v-26zm-2-6h10v4h-10v-4zm-197 14h197v6H111v-6zm2-14v6h-2v6h197v-6h-2v-6h-10v4h-34v-4h-36v4h-34v-4h-35v4h-34v-4h-10z"/><path class="st1" d="M363 246h-34v-4h-9v6h-2v6h45v2h-45v6h45v2h-45v12h-4v3h2v2h-6v-2h2v-3h-4v-12H111v12h-4v3h2v2h-6v-2h2v-3h-4v-12H55v-2h46v-6H55v-2h46v-6h-2v-6H89v4H55v-4H30v40l8 48h342l8-48v-40h-25v4zm-31-126H86v76H30v16h358v-16h-56v-76z"/><path class="st1" d="M30 182h54v12H30v-12zm304 0h54v12h-54v-12zm-304-2h54v-62h250v62h54V90H30v90zm378-22v42h42v-42h-42zm38 32h-34v-28h34v28z"/><path class="st1" d="M414 164h30v24h-30v-24zm12-22h6v14h-6v-14zm-36-9h33v6h-33v-6zm43 2l-3-3h-5v8h8v-5zm-7 91h6v4h-6v-4zm-10 2h6v2h-6v-2zm20 0h6v2h-6v-2zm1 97h-7v5h10v-2c0-1.6-1.3-3-3-3zm-19 3v2h10v-5h-7c-1.7 0-3 1.4-3 3z"/><path class="st1" d="M408 238c3.8 3.8 5.9 9.1 5.8 14.5L412 319v11h4v-2c0-2.8 2.2-5 5-5h16c2.8 0 5 2.2 5 5v2h4v-11l-1.8-66.5c-.1-5.4 1.9-10.7 5.8-14.5v-6h-42v6zm13-1h16v2h-16v-2z"/></svg>