<svg version="1.1" id="Layer_1" xmlns="http://www.w3.org/2000/svg" x="0" y="0" viewBox="0 0 480 360" xml:space="preserve"><style>.st1{fill:#0057ff}</style><path d="M0 0h480v360H0V0z" fill="#f4f5f8"/><path class="st1" d="M30 330h40v-20H30v20zm19-8h2c.6 0 1 .4 1 1s-.4 1-1 1v3h-2v-3c-.6 0-1-.4-1-1s.4-1 1-1zm67-122h18v108h-18V200zm20 30h264v20H136v-20zm0-22h264v20H136v-20zm266 26h8v12h-8v-12z"/><circle class="st1" cx="72" cy="267" r="2"/><path class="st1" d="M46 298v10h52v-72H46v20h2v2h-2v38h2v2h-2zm46-29h2v6h-2v-6zm-12-13c1.1 0 2 .8 2 2 0 1.1-.8 2-2 2h-.1c-1.1 0-2-.9-2-2 .2-1.1 1-1.9 2.1-2zm-8 0c1.1 0 2 .8 2 2 0 1.1-.8 2-2 2h-.1c-1.1 0-2-.9-2-2 .2-1.1 1-1.9 2.1-2zm0 7c2.2 0 4 1.8 4 4s-1.8 4-4 4-4-1.8-4-4 1.8-4 4-4zm-8-7c1.1 0 2 .8 2 2 0 1.1-.8 2-2 2h-.1c-1.1 0-2-.9-2-2 .2-1.1 1-1.9 2.1-2z"/><path class="st1" d="M44 234h56v74h14V200H30v108h14v-74zm28 76h146v20H72v-20zm190 0h126v20H262v-20zm-42 20h40v-20h-40v20zm19-8h2c.6 0 1 .4 1 1s-.4 1-1 1v3h-2v-3c-.6 0-1-.4-1-1s.4-1 1-1zm151 8h40v-20h-40v20zm19-8h2c.6 0 1 .4 1 1s-.4 1-1 1v3h-2v-3c-.6 0-1-.4-1-1s.4-1 1-1zm40-79c-.6 0-1 .4-1 1h-4c0-1.1-.9-2-2-2s-2 .9-2 2v6h-3v8h3v6c0 1.1.9 2 2 2s2-.9 2-2v-18h4c0 .6.4 1 1 1s1-.4 1-1v-2c0-.5-.4-1-1-1zm-39 23H136v42h274v-42zm-8 28h-20v-20h20v20z"/><path class="st1" d="M400 276h-16v16h16v-16zm-8 9c-.6 0-1-.4-1-1s.4-1 1-1 1 .4 1 1-.4 1-1 1zm38-59h-18v82h18v-52h5v-4h-5v-26zm0-2h10v-4h9v-5h-9v-3h-8v4h-22v-4h-8v12h28z"/><path class="st1" d="M430 210v-10h-18v14h18v-4z"/></svg>