<svg version="1.1" id="Layer_1" xmlns="http://www.w3.org/2000/svg" x="0" y="0" viewBox="0 0 480 360" xml:space="preserve"><style>.st1{fill:#0057ff}</style><path d="M0 0h480v360H0V0z" fill="#f4f5f8"/><path class="st1" d="M43 242h5v-62H30v62h5v-7h8v7z"/><path class="st1" d="M37 237h4v5h-4v-5zm20-10h4v5h-4v-5z"/><path class="st1" d="M424 170v-8h-12v12H268v-3h-51v3h-84v-2H82v-4H72v4h-6v-4H52v4H30v6h42v12h-4v-10H50v52h5v-7h8v7h5v-16h65v-26H82v-12h51v-2h84v3h22v11h-50v8h58v-19h21v-3h144v4h-10v10H249v10h-50v10h-12v-20h-52v45l20 10v75h-20v10h36v-14h183v14h36v-10h-20v-63l51-27.2V255c0 1.1-.9 2-2 2h-36c-3.3 0-6 2.7-6 6v8h4v-8c0-1.1.9-2 2-2h36c3.3 0 6-2.7 6-6v-27.3l5-2.7v-45h20v-10h-26zm-389 6c-.6 0-1-.4-1-1s.4-1 1-1 1 .4 1 1-.4 1-1 1zm8 0c-.6 0-1-.4-1-1s.4-1 1-1 1 .4 1 1-.4 1-1 1zm12 0c-.6 0-1-.4-1-1s.4-1 1-1 1 .4 1 1-.4 1-1 1zm8 0c-.6 0-1-.4-1-1s.4-1 1-1 1 .4 1 1-.4 1-1 1zm177 130h-69v-49h69v49zm114 0H250v-49h104v49zM225 139h18v18h-18v-18z"/><path class="st1" d="M266 159v-26h-47v26l-2 10h51l-2-10zm-21 0h-22v-22h22v22zm5-4h-2v-2h2v2zm0-4h-2v-2h2v2zm0-4h-2v-2h2v2zm0-4h-2v-2h2v2zm4 12h-2v-2h2v2zm0-4h-2v-2h2v2zm0-4h-2v-2h2v2zm0-4h-2v-2h2v2zm4 12h-2v-2h2v2zm0-4h-2v-2h2v2zm0-4h-2v-2h2v2zm0-4h-2v-2h2v2zm4 12h-2v-2h2v2zm0-4h-2v-2h2v2zm0-4h-2v-2h2v2zm0-4h-2v-2h2v2zm-24 116h-31v45h31v-45zm-25 27h-2v-8h2v8zm-40-27h32v45h-32v-45zm16-59h8v8h-8v-8zm163 59h-49v45h49v-45zm-43 27h-2v-8h2v8zm-57-27h49v45h-49v-45zm121 14h12v34h-12v-34zM57 250c0 3.3 2.7 6 6 6h47c1.1 0 2 .9 2 2v18c0 3.3 2.7 6 6 6h35v-4h-35c-1.1 0-2-.9-2-2v-18c0-3.3-2.7-6-6-6H63c-1.1 0-2-.9-2-2v-16h-4v16z"/><path class="st1" d="M153 286H50c-3.3 0-6 2.7-6 6v8.5c0 .8-.7 1.5-1.5 1.5s-1.5-.7-1.5-1.5V244h-4v56.5c0 3 2.5 5.5 5.5 5.5s5.5-2.5 5.5-5.5V292c0-1.1.9-2 2-2h103v-4z"/></svg>