<svg version="1.1" id="Layer_1" xmlns="http://www.w3.org/2000/svg" x="0" y="0" viewBox="0 0 480 360" xml:space="preserve"><style>.st1{fill:#0057ff}</style><path d="M0 0h480v360H0V0z" fill="#f4f5f8"/><path class="st1" d="M72 288h40l4-14H68l4 14zm-2 24l22 18 22-18v-4H70v4zm-1-22h4v16h-4v-16zm6 0h4v16h-4v-16zm6 0h4v16h-4v-16zm6 0h4v16h-4v-16zm6 0h4v16h-4v-16zm6 0h4v16h-4v-16zm6 0h4v16h-4v-16zm6 0h4v16h-4v-16zM67 129.5v6.5h50v-6.5c0-2.3.9-4.4 2.5-6 1-1 1.5-2.3 1.5-3.6V104c0-2.2-1.8-4-4-4H67c-2.2 0-4 1.8-4 4v15.9c0 1.4.5 2.7 1.5 3.6 1.6 1.6 2.5 3.8 2.5 6zM97 90H87c-5 0-9 3-9 8h28c0-5-4-8-9-8zm-67 99c0 6.1 4.9 11 11 11h15v-22H41c-6.1 0-11 4.9-11 11zm15 0c0 2.2-1.8 4-4 4s-4-1.8-4-4 1.8-4 4-4 4 1.8 4 4zm-15 40c0 6.1 4.9 11 11 11h15v-22H41c-6.1 0-11 4.9-11 11zm15 0c0 2.2-1.8 4-4 4s-4-1.8-4-4 1.8-4 4-4 4 1.8 4 4zm109-40c0-6.1-4.9-11-11-11h-15v22h15c6.1 0 11-4.9 11-11zm-15 0c0-2.2 1.8-4 4-4s4 1.8 4 4-1.8 4-4 4-4-1.8-4-4zm15 40c0-6.1-4.9-11-11-11h-15v42h22v-20h-7c6.1 0 11-4.9 11-11zm-11 4c-2.2 0-4-1.8-4-4s1.8-4 4-4 4 1.8 4 4-1.8 4-4 4z"/><path class="st1" d="M152 240h10v20h-10v-20zm-24-92h8v18h-8v-18zm16 20h8v-7c0-4.4-3.6-8-8-8h-6v8h6v7zm-92-30v26h6v108h68V138H52zm21 116c2.2 0 4 1.8 4 4s-1.8 4-4 4-4-1.8-4-4 1.8-4 4-4zm355 54h22v4h-22v-4zm-186 0h22v4h-22v-4zm200 6h-14v8h6c0 4.4 3.6 8 8 8s8-3.6 8-8-3.6-8-8-8zm-186 0h-14v8h6c0 4.4 3.6 8 8 8s8-3.6 8-8-3.6-8-8-8zm-14-8h22v-9h164v9h22V164H242v142z"/><path class="st1" d="M266 299h160v7H266v-7zm166-169v-6h-4v6H242v32h208v-32h-18zm-116 20c-2.2 0-4-1.8-4-4s1.8-4 4-4 4 1.8 4 4-1.8 4-4 4zm20 0c-2.2 0-4-1.8-4-4s1.8-4 4-4 4 1.8 4 4-1.8 4-4 4zm20 0c-2.2 0-4-1.8-4-4s1.8-4 4-4 4 1.8 4 4-1.8 4-4 4zm20 0c-2.2 0-4-1.8-4-4s1.8-4 4-4 4 1.8 4 4-1.8 4-4 4zm54 4c-4.4 0-8-3.6-8-8s3.6-8 8-8 8 3.6 8 8-3.6 8-8 8zm-2-32h4c1.1 0 2-.9 2-2V92c0-1.1-.9-2-2-2h-4c-1.1 0-2 .9-2 2v28c0 1.1.9 2 2 2zm-174-4.2c0-.3.2-.6.4-.8.3-.2.6-.2.9-.1l6.4 2.1.6-1.9-6.4-2.1c-.9-.3-1.9-.2-2.7.4s-1.3 1.5-1.2 2.4V128h2v-10.2zm28-.8v11h2v-11c0-1.7-1.3-3-3-3h-7v2h7c.6 0 1 .4 1 1z"/><path class="st1" d="M403 117.2c0-.6.4-1 1-1h.1l6.8.8.2-2-6.8-.8c-1.6-.2-3.1 1-3.3 2.7V128h2v-10.8z"/></svg>