<svg version="1.1" id="Layer_1" xmlns="http://www.w3.org/2000/svg" x="0" y="0" viewBox="0 0 480 360" xml:space="preserve"><style>.st1{fill:#0057ff}</style><path d="M0 0h480v360H0V0z" fill="#f4f5f8"/><path class="st1" d="M81 210H55v-34H44c-2.2 0-4 1.8-4 4v42h41v-12zm313-34h-11v34h-26v12h41v-42c0-2.2-1.8-4-4-4zM97.6 218.8L96 220v2h8v-2l-1.6-1.2c-1.4-1-3.4-1-4.8 0zm79 0L175 220v2h8v-2l-1.6-1.2c-1.4-1-3.4-1-4.8 0zm79 0L254 220v2h8v-2l-1.6-1.2c-1.4-1-3.4-1-4.8 0zm79 0L333 220v2h8v-2l-1.6-1.2c-1.4-1-3.4-1-4.8 0zM295 211v-9h10v9h2.2l6.8-6.8V139h-6v54h-16v-54h-6v65.2l6.8 6.8h2.2z"/><path class="st1" d="M294 139h12v52h-12v-52zm-4-10h20v8h-20v-8zm10 89l3-3v-11h-6v11l3 3zm-4-119h8v28h-8V99zm119 64h26v42h-26v-42z"/><path class="st1" d="M446 158h-36v56h36v-56zm-3 49h-30v-46h30v46zm7 13c0-2.2-1.8-4-4-4s-4 1.8-4 4h-2v-2h-34v2h-2v2h48v-2h-2zM30 244h8v58h-8v-58zm22 76h22l6.5-3.6c2.9-1.6 6.2-2.4 9.6-2.4h257.8c3.3 0 6.6.8 9.6 2.4l6.5 3.6h22v-16H52v16zm4 6h4v2h-2v2h8v-2h-2v-2h4v-4H56v4zm314 0h4v2h-2v2h8v-2h-2v-2h4v-4h-12v4zM40 224h41v78H40v-78zm43 0h315v66H83v-66zm0 68h315v10H83v-10zm341-17h-3v8h8l3-3v-8h-8v3zm1-51h6v46h-6v-46zm-25 52h19v6h-19v-6zm-246.2-98c-3-2.7-4.8-6.7-4.8-11 0-8.3 6.7-15 15-15h119v-8H164c-12.7 0-23 10.3-23 23 0 3.8 1 7.6 2.8 11h10zm117.3-32c1.1 0 2 .8 2 2 0 1.1-.8 2-2 2h-.1c-1.1 0-2-.9-2-2 .2-1.1 1-1.9 2.1-2zm-11.9 0c1.1 0 2 .9 2 2s-.9 2-2 2-2-.9-2-2 .9-2 2-2zm-11.9 0c1.1 0 2 .9 2 2s-.9 2-2 2-2-.9-2-2 .9-2 2-2zm-11.9 0c1.1 0 2 .8 2 2 0 1.1-.8 2-2 2h-.1c-1.1 0-2-.9-2-2 .1-1.1 1-1.9 2.1-2zm-11.9 0c1.1 0 2 .9 2 2s-.9 2-2 2-2-.9-2-2 .9-2 2-2zm-11.9 0c1.1 0 2 .9 2 2s-.9 2-2 2-2-.9-2-2 .9-2 2-2zm-12 0c1.1 0 2 .8 2 2 0 1.1-.8 2-2 2h-.1c-1.1 0-2-.9-2-2 .2-1.1 1.1-1.9 2.1-2zm-11.9 0c1.1 0 2 .8 2 2 0 1.1-.8 2-2 2h-.1c-1.1 0-2-.9-2-2 .2-1.1 1.1-1.9 2.1-2zm-11.9 0c1.1 0 2 .9 2 2s-.9 2-2 2-2-.9-2-2 .9-2 2-2zm-11.9 0c1.1 0 2 .9 2 2s-.9 2-2 2-2-.9-2-2 .9-2 2-2zm-12.3 4.1c.9-.6 2.1-.4 2.8.4s.5 2.1-.4 2.8c-.4.3-.8.4-1.2.4-.6 0-1.2-.3-1.6-.8-.7-.9-.5-2.2.4-2.8zm-7.6 10.4c.3-1 1.5-1.6 2.5-1.3 1.1.3 1.6 1.5 1.3 2.5-.3.8-1 1.4-1.9 1.4-.2 0-.4 0-.6-.1-1-.3-1.6-1.4-1.3-2.5zm1.3 10.5c1-.3 2.2.2 2.5 1.3.3 1.1-.2 2.2-1.3 2.5-.2.1-.4.1-.6.1-.9 0-1.6-.5-1.9-1.4-.3-1.1.2-2.2 1.3-2.5zM65 208h16v-4h203v-23.2l-1-.8-2 1.6-2-1.6-2 1.6-2-1.6-2 1.6-2-1.6-2 1.6-2-1.6-2 1.6-2-1.6-2 1.6-2-1.6-2 1.6-2-1.6-2 1.6-2-1.6-2 1.6-2-1.6-2 1.6-2-1.6-2 1.6-2-1.6-2 1.6-2-1.6-2 1.6-2-1.6-2 1.6-2-1.6-2 1.6-2-1.6-2 1.6-2-1.6-2 1.6-2-1.6-2 1.6-2-1.6-2 1.6-2-1.6-2 1.6-2-1.6-2 1.6-2-1.6-2 1.6-2-1.6-2 1.6-2-1.6-2 1.6-2-1.6-2 1.6-2-1.6-2 1.6-2-1.6-2 1.6-2-1.6-2 1.6-2-1.6-2 1.6-2-1.6-2 1.6-2-1.6-2 1.6-2-1.6-2 1.6-2-1.6-2 1.6-2-1.6-2 1.6-2-1.6-2 1.6-2-1.6-2 1.6-2-1.6-2 1.6-2-1.6-2 1.6-2-1.6-2 1.6-2-1.6-2 1.6-2-1.6-2 1.6-2-1.6-2 1.6-2-1.6-2 1.6-2-1.6-2 1.6-2-1.6-2 1.6-2-1.6-2 1.6-2-1.6-2 1.6-2-1.6-2 1.6-2-1.6-2 1.6-2-1.6-2 1.6-2-1.6-2 1.6v.3l-2-1.9-2 1.9-2-1.9-2 1.9-2-1.9-2 1.9-2-1.9-2 1.9-2-1.9-2 1.9-2-1.9-2 1.9V208h8zm256-4h36v4h24v-26.1l-2-1.9-2 1.9-2-1.9-2 1.9-2-1.9-2 1.9-2-1.9-2 1.9-2-1.9-2 1.9-2-1.9-2 1.9v-.3l-2-1.6-2 1.6-2-1.6-2 1.6-2-1.6-2 1.6-2-1.6-2 1.6-2-1.6-2 1.6-2-1.6-2 1.6-2-1.6-2 1.6-2-1.6-2 1.6-2-1.6-2 1.6-2-1.6-2 1.6-1-.8V204h5z"/></svg>