<svg id="Layer_1" opacity=".1" xmlns="http://www.w3.org/2000/svg" width="1459.9" height="1459.9"><style>.st0{fill:#4f4f6a}</style><g id="Page-1"><g id="_x30_1_x5F_01-HOMEPAGE-_x5B_design_x5D_" transform="translate(0 -2032)"><g id="section-FEATURES" transform="translate(-10 2031)"><g id="bg"><g id="sign"><g id="Group-3" transform="translate(260 844.91)"><path id="Fill-1" class="st0" d="M114 43.5L10.7 146.8 480 616l208.1-208.1L323.7 43.5c-57.9-57.9-151.8-57.9-209.7 0"/></g><g id="Group-6" transform="translate(0 .91)"><path id="Fill-4" class="st0" d="M559.4 180.7c-101.8 101.8-101.8 267 0 368.8-101.8-101.8-267-101.8-368.8 0L10 730l207.9 208 105.8-105.8c85.7-85.7 224.6-85.7 310.3 0l366.9 366.9L1105 1095l104-104-366.9-366.9c-85.7-85.7-85.7-224.6 0-310.3L947.9 208 740 .1 559.4 180.7z"/></g><g id="Group-9" transform="translate(843 260.91)"><path id="Fill-7" class="st0" d="M54.4 313.8l364.4 364.4L626.9 470 157.7.8 54.4 104.1c-57.9 57.9-57.9 151.8 0 209.7"/></g></g></g></g></g></g></svg>