<?xml version="1.0" encoding="utf-8"?>
<!-- Generator: Adobe Illustrator 22.1.0, SVG Export Plug-In . SVG Version: 6.00 Build 0)  -->
<svg version="1.1" id="Layer_1" xmlns="http://www.w3.org/2000/svg" xmlns:xlink="http://www.w3.org/1999/xlink" x="0px" y="0px"
	 viewBox="0 0 66.4 79.8" style="enable-background:new 0 0 66.4 79.8;" xml:space="preserve">
<style type="text/css">
	.st0{fill:none;}
</style>
<g>
	<g>
		<path class="st0" d="M28.2,52.9l-0.3-0.2l19.9-28.1c3.5,1.7,7.8,0.7,10.1-2.6l3.9-5.5c1.2-1.7,1.7-3.9,1.3-5.9
			c-0.4-2.1-1.6-3.9-3.3-5.1C59.2,5,58.4,5.2,58,5.7L52.2,14c-0.7,0.9-2,1.2-3,0.5c-0.5-0.3-0.8-0.8-0.9-1.3c-0.1-0.5,0-1.1,0.3-1.5
			l5.8-8.2c0.4-0.6,0.3-1.4-0.3-1.8c0,0,0,0,0,0C50.6-0.9,45.6,0,43,3.6L39.1,9c-1.2,1.7-1.7,3.9-1.3,5.9c0.3,1.7,1.1,3.2,2.3,4.3
			l-7,9.9l-7.4-10.4l-1.5-10c-0.1-0.7-0.4-1.4-0.8-2L20,2c-1.5-2.1-4.4-2.6-6.5-1.1L5.3,6.6c-1,0.7-1.7,1.8-1.9,3
			C3.2,10.8,3.4,12,4.1,13l3.4,4.8c0.4,0.6,1,1.1,1.6,1.4l9,4.8l9.3,13.1l-7.3,10.2l-0.4-0.2c-2.1-1.4-5-0.9-6.5,1.1l-1.8,2.6
			c-0.4,0.6-0.2,1.4,0.3,1.8c0.6,0.4,1.3,0.2,1.7-0.3l1.8-2.6c0.7-0.9,2-1.2,3-0.5l6.9,4.8l0,0l1.4,1c0.5,0.3,0.8,0.8,0.9,1.3
			c0.1,0.5,0,1.1-0.3,1.5L15.6,74.3c-2.3,3.2-6.8,4-10,1.7C4,75,3,73.3,2.6,71.5c-0.3-1.8,0.1-3.7,1.2-5.3l6.5-9.2
			c0.4-0.6,0.2-1.4-0.3-1.8c-0.6-0.4-1.3-0.2-1.7,0.3l-6.5,9.2c-1.5,2.1-2.1,4.7-1.6,7.2c0.4,2.5,1.9,4.8,4,6.2
			c1.6,1.1,3.6,1.7,5.5,1.7c3.1,0,6.1-1.4,8-4.1l11.6-16.4c0.7-1,1-2.2,0.8-3.4C29.9,54.7,29.2,53.6,28.2,52.9z M20.1,22.3
			c-0.1-0.2-0.3-0.3-0.4-0.4l-9.3-5c-0.3-0.2-0.5-0.4-0.7-0.6l-3.4-4.8c-0.3-0.5-0.4-1-0.3-1.5C6,9.4,6.3,9,6.7,8.6l3.1-2.2l5.1,7.2
			c0.4,0.6,1.2,0.7,1.8,0.3c0.6-0.4,0.7-1.2,0.3-1.8l0,0L11.9,5L15,2.9c1-0.7,2.3-0.4,3,0.5l3.4,4.8c0.2,0.3,0.3,0.6,0.4,0.9
			l1.4,9.5l-1.6,1.1c-0.6,0.4-0.7,1.2-0.3,1.8c0.4,0.5,1.1,0.7,1.7,0.3l1.3-0.9l7.3,10.4L29,35L20.1,22.3L20.1,22.3z M25.7,51.2
			l-3.5-2.4l20.6-29.1c0.4-0.6,0.3-1.4-0.3-1.8c0,0,0,0,0,0c-1.2-0.8-2-2.1-2.3-3.5c-0.3-1.4,0.1-2.9,0.9-4L45.1,5
			c1.5-2.1,4.2-2.8,6.5-1.9l-5,7c-0.7,1-1,2.2-0.8,3.4c0.2,1.2,0.9,2.3,1.9,3c2.1,1.4,5,0.9,6.5-1.1l5-7.1c0.7,0.8,1.1,1.7,1.3,2.7
			c0.3,1.4-0.1,2.9-0.9,4l-3.9,5.5c-1.7,2.5-5.2,3.1-7.7,1.3c0,0,0,0,0,0l-2.2-1.6c-0.6-0.4-1.4-0.3-1.8,0.3
			c-0.4,0.6-0.3,1.4,0.3,1.8l1.2,0.8L25.7,51.2z"/>
		<path class="st0" d="M18.2,53.4c-0.6-0.4-1.4-0.3-1.8,0.3c0,0,0,0,0,0L5.8,68.8c-0.4,0.6-0.3,1.4,0.3,1.8c0.6,0.4,1.3,0.3,1.7-0.3
			l10.7-15C18.9,54.6,18.8,53.8,18.2,53.4C18.2,53.4,18.2,53.4,18.2,53.4L18.2,53.4z M64.6,64.7l-6.5-9.2c-0.4-0.6-1.2-0.7-1.8-0.3
			s-0.7,1.2-0.3,1.8l6.5,9.2c1.1,1.5,1.5,3.4,1.2,5.3c-0.3,1.9-1.4,3.5-3,4.6c-3.2,2.2-7.7,1.5-10-1.7L39.2,57.9
			c-0.3-0.5-0.4-1-0.3-1.5c0.1-0.5,0.4-1,0.9-1.3l8.3-5.7c1-0.7,2.3-0.4,3,0.5l1.8,2.6c0.4,0.6,1.2,0.7,1.8,0.3s0.7-1.2,0.3-1.8
			L53,48.3c-1.5-2.1-4.4-2.6-6.5-1.1l-0.4,0.3l-4.6-6.5c-0.4-0.6-1.2-0.7-1.8-0.3s-0.7,1.2-0.3,1.8l4.6,6.5l-3.5,2.4l-3.5-4.9
			c-0.4-0.6-1.2-0.7-1.8-0.3c-0.6,0.4-0.7,1.2-0.3,1.8l3.5,4.9l-0.3,0.2c-1,0.7-1.7,1.8-1.9,3c-0.2,1.2,0.1,2.4,0.8,3.4l11.6,16.4
			c1.9,2.7,4.9,4.1,8,4.1c1.9,0,3.9-0.6,5.5-1.7c2.1-1.5,3.6-3.7,4-6.2C66.7,69.4,66.1,66.8,64.6,64.7L64.6,64.7z"/>
		<path class="st0" d="M43.7,56.7c-0.6,0.4-0.7,1.2-0.3,1.8c0,0,0,0,0,0l10.7,15.1c0.4,0.6,1.2,0.7,1.8,0.3c0,0,0,0,0,0
			c0.6-0.4,0.7-1.2,0.3-1.8L45.5,57C45.1,56.4,44.3,56.3,43.7,56.7C43.7,56.7,43.7,56.7,43.7,56.7L43.7,56.7z M59.6,70.8
			c0.7,0,1.3-0.6,1.3-1.3c0-0.3-0.1-0.5-0.2-0.7L50,53.7c-0.4-0.6-1.2-0.7-1.8-0.3s-0.7,1.2-0.3,1.8l0,0l10.7,15.1
			C58.8,70.6,59.2,70.8,59.6,70.8L59.6,70.8z M10.5,73.8c0.6,0.4,1.4,0.3,1.8-0.3c0,0,0,0,0,0l10.7-15c0.4-0.6,0.3-1.4-0.3-1.8
			c-0.6-0.4-1.4-0.3-1.8,0.3L10.2,72C9.8,72.6,10,73.4,10.5,73.8C10.5,73.8,10.5,73.8,10.5,73.8L10.5,73.8z"/>
	</g>
</g>
</svg>
