<?xml version="1.0" encoding="utf-8"?>
<!-- Generator: Adobe Illustrator 22.1.0, SVG Export Plug-In . SVG Version: 6.00 Build 0)  -->
<svg version="1.1" id="Layer_1" xmlns="http://www.w3.org/2000/svg" xmlns:xlink="http://www.w3.org/1999/xlink" x="0px" y="0px"
	 viewBox="0 0 80 80" style="enable-background:new 0 0 80 80;" xml:space="preserve">
<style type="text/css">
	.st0{fill:none;}
</style>
<g>
	<g>
		<path class="st0" d="M75.4,0H16.4c-0.7,0-1.3,0.6-1.3,1.3c0,0.7,0.6,1.3,1.3,1.3c0,0,0,0,0,0h58.9c1.2,0,2.1,0.9,2.1,2.1v40.8
			h-7.2c-0.7,0-1.3,0.6-1.3,1.3s0.6,1.3,1.3,1.3l0,0h7.2v12.2c0,0.8-0.4,1.4-1.1,1.8c-0.6,0.4-0.8,1.1-0.4,1.7
			c0.4,0.6,1.1,0.8,1.7,0.5c1.4-0.8,2.3-2.4,2.3-4V4.6C80,2.1,77.9,0,75.4,0z"/>
		<path class="st0" d="M65.7,55.2c0,2.6,2.1,4.6,4.6,4.6c2.6,0,4.6-2.1,4.6-4.6c0-2.6-2.1-4.6-4.6-4.6
			C67.8,50.5,65.7,52.6,65.7,55.2z M70.3,53.1c1.2,0,2.1,0.9,2.1,2.1c0,1.2-0.9,2.1-2.1,2.1c-1.2,0-2.1-0.9-2.1-2.1
			C68.2,54,69.2,53.1,70.3,53.1z M27.8,63.6c0-0.7-0.6-1.3-1.3-1.3H4.6c-1.2,0-2.1-0.9-2.1-2.1V48h30.7c0.7,0,1.3-0.6,1.3-1.3
			s-0.6-1.3-1.3-1.3H2.5V4.6c0-1.2,0.9-2.1,2.1-2.1h6.7c0.7,0,1.3-0.6,1.3-1.3c0-0.7-0.6-1.3-1.3-1.3c0,0,0,0,0,0H4.6
			C2.1,0,0,2.1,0,4.6v55.6c0,2.6,2.1,4.6,4.6,4.6h21.9C27.2,64.8,27.8,64.3,27.8,63.6z"/>
		<path class="st0" d="M70.9,62.6l-11.1-3.3v-4c3.4-1.6,5.8-4.8,6.4-8.5l1.4-9.1c1.4-0.5,2.3-1.9,2.3-3.4c0-1-0.4-1.9-1.1-2.6
			l-2.5-2.5L64.6,24c-1-3-3.7-5.1-6.8-5.4c-0.5-1-1.5-1.7-2.7-1.7h-6.7c-1.2,0-2.2,0.7-2.7,1.7c-3.1,0.3-5.8,2.4-6.8,5.4l-1.7,5.2
			l-2.5,2.5c-0.7,0.7-1.1,1.6-1.1,2.6c0,1.6,1,2.9,2.3,3.4l1.4,9.1c0.6,3.7,3,6.9,6.4,8.5v4l-11.1,3.3c-3.4,1-5.7,4.1-5.7,7.7v6.8
			c0,1.6,1.3,2.9,2.9,2.9h30.3c0.7,0,1.3-0.6,1.3-1.3s-0.6-1.3-1.3-1.3H40.4v-3.8c0-0.7-0.6-1.3-1.3-1.3s-1.3,0.6-1.3,1.3v3.8h-8
			c-0.2,0-0.4-0.2-0.4-0.4v-6.8c0-2.4,1.6-4.6,3.9-5.2l11.9-3.6h13.1L70.2,65c2.3,0.7,3.9,2.8,3.9,5.2v6.8c0,0.2-0.2,0.4-0.4,0.4h-8
			v-3.8c0-0.7-0.6-1.3-1.3-1.3c-0.7,0-1.3,0.6-1.3,1.3v5.1c0,0.7,0.6,1.3,1.3,1.3h9.3c1.6,0,2.9-1.3,2.9-2.9v-6.8
			C76.6,66.7,74.3,63.6,70.9,62.6z M37.3,35.4c-0.6,0-1.1-0.5-1.1-1.1c0-0.3,0.1-0.6,0.3-0.8l2.7-2.7c0.1-0.1,0.2-0.3,0.3-0.5
			l1.8-5.5c0.6-1.9,2.2-3.3,4.1-3.6v5.4c0,0.7,0.6,1.3,1.3,1.3s1.3-0.6,1.3-1.3v-6.7c0-0.2,0.2-0.4,0.4-0.4h6.7
			c0.2,0,0.4,0.2,0.4,0.4v6.7c0,0.7,0.6,1.3,1.3,1.3s1.3-0.6,1.3-1.3v-5.4c1.9,0.4,3.5,1.8,4.1,3.6l1.8,5.5c0.1,0.2,0.2,0.4,0.3,0.5
			l2.7,2.7c0.4,0.4,0.4,1.1,0,1.6c-0.2,0.2-0.5,0.3-0.8,0.3C66.2,35.4,37.3,35.4,37.3,35.4z M54.9,56.4c0.8,0,1.6-0.1,2.4-0.2v2.8
			H46.3v-2.8c0.8,0.2,1.6,0.2,2.4,0.2h1.4c0.7,0,1.3-0.6,1.3-1.3s-0.6-1.3-1.3-1.3h-1.4c-4.4,0-8.1-3.2-8.7-7.5l-1.3-8.5H65
			l-1.3,8.5c-0.6,4.3-4.4,7.5-8.7,7.5c-0.7,0-1.3,0.6-1.3,1.3S54.2,56.4,54.9,56.4L54.9,56.4z M9.7,50.5c-2.6,0-4.6,2.1-4.6,4.6
			c0,2.6,2.1,4.6,4.6,4.6h11.8c2.6,0,4.6-2.1,4.6-4.6c0-2.6-2.1-4.6-4.6-4.6H9.7z M23.6,55.2c0,1.2-0.9,2.1-2.1,2.1H9.7
			c-1.2,0-2.1-0.9-2.1-2.1c0-1.2,0.9-2.1,2.1-2.1h11.8C22.6,53.1,23.6,54,23.6,55.2z"/>
		<path class="st0" d="M24,6.7H12.2c-1.2,0-2.1,0.9-2.1,2.1v5.1c0,1.2,0.9,2.1,2.1,2.1h4.6v3l-5.6,2.8c-0.7,0.4-1.2,1.1-1.2,1.9v0.6
			c0,0.8,0.4,1.5,1.2,1.9l5.6,2.8v3h-4.6c-1.2,0-2.1,0.9-2.1,2.1v5.1c0,1.2,0.9,2.1,2.1,2.1H24c1.2,0,2.1-0.9,2.1-2.1v-1.3h3.8
			c0.7,0,1.3-0.6,1.3-1.3s-0.6-1.3-1.3-1.3h-3.8v-1.3c0-1.2-0.9-2.1-2.1-2.1h-4.6v-3l5.6-2.8c0.7-0.4,1.2-1.1,1.2-1.9v-0.6
			c0-0.8-0.4-1.5-1.2-1.9L19.4,19v-3H24c1.2,0,2.1-0.9,2.1-2.1v-1.3h41.3v12.2c0,0.7,0.6,1.3,1.3,1.3c0.7,0,1.3-0.6,1.3-1.3V11.4
			c0-0.7-0.6-1.3-1.3-1.3H26.1V8.8C26.1,7.7,25.2,6.7,24,6.7z M23.6,34.5v4.2H12.6v-4.2C12.6,34.5,23.6,34.5,23.6,34.5z M23.6,23.9
			v0.1l-5.5,2.7l-5.5-2.7v-0.1l5.5-2.7C18.1,21.2,23.6,23.9,23.6,23.9z M23.6,13.5H12.6V9.3h10.9C23.6,9.3,23.6,13.5,23.6,13.5z
			 M28.6,55.2c0,2.6,2.1,4.6,4.6,4.6c2.6,0,4.6-2.1,4.6-4.6c0-2.6-2.1-4.6-4.6-4.6C30.7,50.5,28.6,52.6,28.6,55.2z M35.4,55.2
			c0,1.2-0.9,2.1-2.1,2.1c-1.2,0-2.1-0.9-2.1-2.1c0-1.2,0.9-2.1,2.1-2.1S35.4,54,35.4,55.2z"/>
	</g>
</g>
</svg>
