<?xml version="1.0" encoding="utf-8"?>
<!-- Generator: Adobe Illustrator 22.1.0, SVG Export Plug-In . SVG Version: 6.00 Build 0)  -->
<svg version="1.1" id="Layer_1" xmlns="http://www.w3.org/2000/svg" xmlns:xlink="http://www.w3.org/1999/xlink" x="0px" y="0px"
	 viewBox="0 0 56.3 79.8" style="enable-background:new 0 0 56.3 79.8;" xml:space="preserve">
<style type="text/css">
	.st0{fill:none;}
</style>
<g>
	<g>
		<path class="st0" d="M53.4,70.6H52l-2.2-10.5c-0.8-3.7-4.1-6.3-7.8-6.3h-0.5c-1.6-5.7-6.6-9.6-12.3-10l-6.5-24.3l0.5-0.1
			c1.5-0.4,2.4-1.8,2.1-3.3l-1.5-8.5c-0.4-2.5-1.9-4.7-4-6c-2.1-1.4-4.7-1.8-7.1-1.1C10.4,1,8.4,2.6,7.2,4.8C6,7.1,5.9,9.7,6.7,12
			l3,8.1c0.5,1.4,2.1,2.2,3.5,1.8l0.5-0.1l6.5,24.3c-2.7,1.8-4.6,4.5-5.5,7.7h-0.5c-3.8,0-7,2.7-7.8,6.3L4.3,70.6H2.9
			c-1.6,0-2.9,1.3-2.9,2.9v3.4c0,1.6,1.3,2.9,2.9,2.9h37c0.7,0,1.3-0.6,1.3-1.3s-0.6-1.3-1.3-1.3h-37c-0.2,0-0.4-0.2-0.4-0.4v-3.4
			c0-0.2,0.2-0.4,0.4-0.4h11.8c0.7,0,1.3-0.6,1.3-1.3c0-0.7-0.6-1.3-1.3-1.3H6.8l2.1-10c0.5-2.5,2.8-4.3,5.3-4.3h0.1
			c-0.1,1.6,0,3.3,0.4,4.8c0.9,3.6,3.3,6.6,6.5,8.4c3.2,1.8,7,2.3,10.5,1.4c3.6-0.9,6.6-3.3,8.4-6.5c1.4-2.5,2.1-5.3,1.8-8.2H42
			c2.6,0,4.8,1.8,5.3,4.3l2.1,9.9h-7.9c-0.7,0-1.3,0.6-1.3,1.3s0.6,1.3,1.3,1.3h11.8c0.2,0,0.4,0.2,0.4,0.4v3.4
			c0,0.2-0.2,0.4-0.4,0.4H45c-0.7,0-1.3,0.6-1.3,1.3s0.6,1.3,1.3,1.3h8.4c1.6,0,2.9-1.3,2.9-2.9v-3.4C56.3,71.9,55,70.6,53.4,70.6
			L53.4,70.6z M14.4,19L14.4,19l-1.8,0.5c-0.2,0.1-0.4-0.1-0.5-0.3l-3-8.1C8.5,9.5,8.6,7.6,9.4,6c0.8-1.6,2.3-2.8,4-3.2
			c1.7-0.5,3.6-0.2,5.1,0.8c1.5,1,2.6,2.5,2.9,4.3l1.5,8.5c0,0.2-0.1,0.4-0.3,0.5L14.4,19C14.4,19,14.4,19,14.4,19L14.4,19z
			 M16.2,21.1l4.1-1.1l6.4,23.7c-1.4,0.2-2.8,0.5-4.1,1.1L16.2,21.1L16.2,21.1z M38,63.2c-1.5,2.6-4,4.5-6.9,5.3
			c-2.9,0.8-6,0.4-8.6-1.1c-2.6-1.5-4.5-4-5.3-6.9c-1.6-6,2-12.3,8-13.9c6-1.6,12.3,2,13.9,8C39.9,57.5,39.5,60.6,38,63.2z"/>
		<path class="st0" d="M31.4,52.5c-0.5,0.5-0.5,1.3,0,1.8c0,0,0,0,0,0c0.9,0.9,1.4,2,1.4,3.3c0,2.6-2.1,4.6-4.6,4.6
			c-0.7,0-1.3,0.6-1.3,1.3c0,0.7,0.6,1.3,1.3,1.3c3.9,0,7.1-3.2,7.1-7.1c0-1.9-0.8-3.7-2.1-5.1C32.7,52,31.9,52,31.4,52.5
			C31.4,52.5,31.4,52.5,31.4,52.5z M23.5,57.6c0-2.6,2.1-4.6,4.6-4.6c0.7,0,1.3-0.6,1.3-1.3c0-0.7-0.6-1.3-1.3-1.3
			c-3.9,0-7.1,3.2-7.1,7.1c0,1.9,0.7,3.7,2.1,5.1c0.5,0.5,1.3,0.5,1.8,0c0,0,0,0,0,0c0.5-0.5,0.5-1.3,0-1.8c0,0,0,0,0,0
			C24,60,23.5,58.8,23.5,57.6z"/>
	</g>
</g>
</svg>
