<?xml version="1.0" encoding="utf-8"?>
<!-- Generator: Adobe Illustrator 22.1.0, SVG Export Plug-In . SVG Version: 6.00 Build 0)  -->
<svg version="1.1" id="Layer_1" xmlns="http://www.w3.org/2000/svg" xmlns:xlink="http://www.w3.org/1999/xlink" x="0px" y="0px"
	  viewBox="0 0 46.5 33.1" style="enable-background:new 0 0 46.5 33.1;" xml:space="preserve">
<style type="text/css">
	.st0{fill:none;}
</style>
<g>
	<g>
		<path class="st0" d="M37.7,25.5c-0.2,0-0.4-0.1-0.5-0.2l-8.6-8.1c-0.3-0.3-0.3-0.8,0-1.1c0.3-0.3,0.8-0.3,1.1,0l8.6,8.1
			c0.3,0.3,0.3,0.8,0,1.1C38.1,25.5,37.9,25.5,37.7,25.5L37.7,25.5z M8.9,25.5c-0.4,0-0.7-0.3-0.7-0.8c0-0.2,0.1-0.4,0.2-0.5
			l8.6-8.1c0.3-0.3,0.8-0.3,1.1,0.1c0.3,0.3,0.3,0.8,0,1l-8.6,8.1C9.2,25.5,9,25.5,8.9,25.5z"/>
		<path class="st0" d="M42.8,33.1h-39c-2.1,0-3.7-1.7-3.8-3.7V3.8C0,1.7,1.7,0,3.8,0h39c2.1,0,3.7,1.7,3.8,3.8v25.6
			C46.5,31.4,44.8,33.1,42.8,33.1L42.8,33.1z M3.8,1.5c-1.2,0-2.2,1-2.2,2.2v25.6c0,1.2,1,2.2,2.2,2.2h39c1.2,0,2.2-1,2.2-2.2V3.8
			c0-1.2-1-2.2-2.2-2.2L3.8,1.5L3.8,1.5z"/>
		<path class="st0" d="M23.3,20.3c-1,0-2-0.3-2.8-1L1.2,2.5C0.9,2.2,0.9,1.8,1.2,1.5c0.3-0.3,0.7-0.3,1.1-0.1l19.3,16.8
			c1,0.8,2.6,0.8,3.5,0L44.3,1.4c0.3-0.3,0.8-0.2,1.1,0.1s0.2,0.8-0.1,1.1l0,0L26,19.3C25.3,20,24.3,20.3,23.3,20.3z"/>
	</g>
</g>
</svg>
