<?xml version="1.0" encoding="utf-8"?>
<!-- Generator: Adobe Illustrator 22.1.0, SVG Export Plug-In . SVG Version: 6.00 Build 0)  -->
<svg version="1.1" id="Layer_1" xmlns="http://www.w3.org/2000/svg" xmlns:xlink="http://www.w3.org/1999/xlink" x="0px" y="0px"
	  viewBox="0 0 46.6 48" style="enable-background:new 0 0 46.6 48;" xml:space="preserve">
<style type="text/css">
	.st0{fill:none;}
</style>
<g>
	<g>
		<path class="st0" d="M43.8,19.8h-9.2c-0.5,0-0.8,0.4-0.8,0.9c0,0.5,0.4,0.9,0.8,0.9h7.7l2.5,24.6H1.9l2.9-24.6h7.7
			c0.5,0,0.8-0.4,0.8-0.9c0-0.5-0.4-0.9-0.8-0.9H3.3L0,48h46.6L43.8,19.8z"/>
		<path class="st0" d="M23.1,33.1c-0.1,0.1-0.2,0.1-0.4,0.2c-0.2,0.1-0.4,0.3-0.5,0.4c-0.4,0.3-0.4,0.8-0.2,1.2
			c0.2,0.4,0.7,0.5,1.1,0.2c0,0,0,0,0,0c0.4-0.3,0.8-0.6,1.3-0.8c0.4-0.2,0.5-0.7,0.4-1.1c0,0,0,0,0,0c1.5-1.7,6.5-7.9,8.6-18.4
			c0.4-2.1,0.5-4.1,0.3-6C33,3,29.7,0,24,0c-5.7,0-9,3-9.8,8.8c-0.2,1.9-0.1,3.9,0.3,6C16.6,25.1,21.5,31.4,23.1,33.1z M15.9,9
			c0.6-4.9,3.3-7.2,8.1-7.2c4.9,0,7.5,2.4,8.1,7.2c0.2,1.7,0.1,3.5-0.3,5.4C30,23.8,25.5,29.8,24,31.6c-1.5-1.8-6-7.8-7.9-17.1
			C15.8,12.5,15.7,10.7,15.9,9z"/>
		<path class="st0" d="M23.3,15.5c3.5,0,6.3-2.8,6.4-6.4c0-3.5-2.8-6.3-6.4-6.4c-3.5,0-6.3,2.8-6.4,6.4
			C16.9,12.7,19.8,15.5,23.3,15.5L23.3,15.5z M23.3,4.6c2.6,0,4.6,2.1,4.6,4.6c0,2.6-2.1,4.6-4.6,4.6c-2.6,0-4.6-2.1-4.6-4.6
			C18.7,6.6,20.7,4.6,23.3,4.6z M27.4,32.7c-0.4,0.1-0.6,0.4-0.5,0.7c0.1,0.3,0.4,0.5,0.7,0.5c0,0,0.1,0,0.1,0
			c0.4-0.1,0.9-0.1,1.3-0.2c0.4,0,0.7-0.3,0.6-0.7c0-0.3-0.4-0.6-0.8-0.5C28.3,32.5,27.8,32.6,27.4,32.7z M31.1,31.8
			c0,0.4,0.3,0.6,0.7,0.6l0,0l1.4-0.1c0.4,0,0.7-0.3,0.7-0.7c0-0.4-0.4-0.7-0.7-0.6l-1.4,0.1C31.4,31.1,31.1,31.4,31.1,31.8
			C31.1,31.8,31.1,31.8,31.1,31.8z M18.5,36.9c-0.4,0.3-0.8,0.7-1.2,1c-0.4,0.3-0.5,0.8-0.2,1.2c0.1,0.3,0.4,0.4,0.7,0.4
			c0.2,0,0.3-0.1,0.4-0.1c0.4-0.3,0.9-0.7,1.3-1.1c0.3-0.3,0.4-0.9,0.2-1.3C19.4,36.7,18.9,36.6,18.5,36.9z M38.3,31.3
			c-0.2,0.2-0.6,0.4-1,0.5c-0.4,0.1-0.7,0.7-0.6,1.2c0.1,0.5,0.4,0.8,0.7,0.8c0,0,0.1,0,0.2,0c0.6-0.2,1.1-0.5,1.5-0.9l0.1-0.1
			c0.3-0.3,0.4-1,0.1-1.4C39.1,31,38.7,30.9,38.3,31.3C38.3,31.3,38.3,31.3,38.3,31.3z M7,37.6c0.1-0.4-0.1-0.8-0.5-0.9
			c-0.3-0.1-0.7,0.1-0.8,0.5c-0.1,0.5-0.2,1.1-0.1,1.7c0,0.4,0.3,0.6,0.6,0.6c0,0,0,0,0.1,0c0.4,0,0.6-0.4,0.6-0.8
			c0-0.2,0-0.3,0-0.5C6.9,38.1,7,37.8,7,37.6L7,37.6z M37.5,22.6c-0.6-0.1-1.1,0-1.7,0.1c-0.4,0.1-0.6,0.5-0.5,0.8
			c0.1,0.3,0.4,0.5,0.7,0.5c0.1,0,0.1,0,0.2,0c0.4-0.1,0.7-0.1,1.1-0.1c0.4,0,0.7-0.2,0.8-0.6C38.2,23,37.9,22.7,37.5,22.6z
			 M41,28.7c-0.1,0.4,0.1,0.8,0.4,0.9c0.1,0,0.1,0,0.2,0c0.3,0,0.5-0.2,0.6-0.5c0.1-0.3,0.1-0.6,0.1-0.9c0-0.3-0.1-0.7-0.2-1
			c-0.1-0.4-0.5-0.6-0.8-0.4C41,27,40.9,27.4,41,27.8c0.1,0.2,0.1,0.3,0.1,0.5l0,0.1C41.1,28.5,41,28.6,41,28.7z M14.5,38.2
			c-0.4,0.3-0.9,0.5-1.3,0.8c-0.4,0.2-0.6,0.8-0.4,1.3c0.1,0.4,0.4,0.6,0.7,0.6c0.1,0,0.2,0,0.3-0.1c0.5-0.2,0.9-0.5,1.4-0.8
			c0.4-0.2,0.5-0.8,0.4-1.3C15.3,38.2,14.9,38,14.5,38.2z M9.2,35.3c0.1,0,0.2,0,0.3-0.1c0.2-0.1,0.4-0.1,0.7-0.2c0.1,0,0.2,0,0.3,0
			c0.4,0,0.8-0.2,0.8-0.5c0.1-0.3-0.2-0.6-0.6-0.7c-0.2,0-0.4,0-0.6,0c-0.4,0-0.8,0.1-1.2,0.3c-0.4,0.2-0.5,0.5-0.3,0.8
			C8.7,35.2,8.9,35.3,9.2,35.3L9.2,35.3z M9,42.2c0.2,0,0.3,0.1,0.5,0.1c0.2,0,0.4,0,0.5,0c0.2,0,0.4,0,0.7,0c0.4,0,0.7-0.4,0.6-0.7
			c-0.1-0.4-0.4-0.6-0.8-0.6c-0.3,0-0.6,0-0.9,0c-0.1,0-0.2,0-0.3,0c-0.4-0.1-0.8,0.1-0.9,0.5C8.4,41.8,8.6,42.1,9,42.2L9,42.2z"/>
	</g>
</g>
</svg>
