<?xml version="1.0" encoding="utf-8"?>
<!-- Generator: Adobe Illustrator 22.1.0, SVG Export Plug-In . SVG Version: 6.00 Build 0)  -->
<svg version="1.1" id="Layer_1" xmlns="http://www.w3.org/2000/svg" xmlns:xlink="http://www.w3.org/1999/xlink" x="0px" y="0px"
	  viewBox="0 0 48 48" style="enable-background:new 0 0 48 48;" xml:space="preserve">
<style type="text/css">
	.st0{fill:none;}
</style>
<g>
	<g>
		<path class="st0" d="M34.1,0H13.9c-1.9,0-3.5,1.6-3.5,3.5v41c0,1.9,1.6,3.5,3.5,3.5h20.2c1.9,0,3.5-1.6,3.5-3.5v-41
			C37.6,1.6,36,0,34.1,0z M12,6.4h24v30.4H12V6.4z M13.9,1.6h20.2c1.1,0,1.9,0.9,1.9,1.9v1.3H12V3.5C12,2.5,12.9,1.6,13.9,1.6z
			 M34.1,46.4H13.9c-1.1,0-1.9-0.9-1.9-1.9v-6.1h24v6.1C36,45.5,35.1,46.4,34.1,46.4z"/>
		<path class="st0" d="M24,39.2c-1.8,0-3.2,1.4-3.2,3.2c0,1.8,1.4,3.2,3.2,3.2c1.8,0,3.2-1.4,3.2-3.2S25.8,39.2,24,39.2z M24,44
			c-0.9,0-1.6-0.7-1.6-1.6s0.7-1.6,1.6-1.6s1.6,0.7,1.6,1.6S24.9,44,24,44z M20.8,4H24c0.4,0,0.8-0.4,0.8-0.8S24.4,2.4,24,2.4
			c0,0,0,0,0,0h-3.2c-0.4,0-0.8,0.4-0.8,0.8S20.4,4,20.8,4C20.8,4,20.8,4,20.8,4z M26.4,4h0.8C27.6,4,28,3.6,28,3.2
			s-0.4-0.8-0.8-0.8c0,0,0,0,0,0h-0.8c-0.4,0-0.8,0.4-0.8,0.8S26,4,26.4,4C26.4,4,26.4,4,26.4,4z M45.3,3.7c-0.3-0.3-0.8-0.3-1.1,0
			s-0.3,0.8,0,1.1c3,3,3,7.9,0,10.8c-0.3,0.3-0.3,0.8,0,1.1s0.8,0.3,1.1,0C48.9,13.1,48.9,7.3,45.3,3.7z"/>
		<path class="st0" d="M41.9,5.5c-0.3-0.3-0.8-0.3-1.1,0c-0.3,0.3-0.3,0.8,0,1.1c0,0,0,0,0,0c1,1,1.5,2.3,1.5,3.7
			c0,1.4-0.5,2.7-1.5,3.7c-0.3,0.3-0.3,0.8,0,1.1c0.3,0.3,0.8,0.3,1.1,0c0,0,0,0,0,0c1.3-1.3,2-3,2-4.8C43.9,8.5,43.2,6.8,41.9,5.5
			L41.9,5.5z M3.8,4.8c0.3-0.3,0.3-0.8,0-1.1c-0.3-0.3-0.8-0.3-1.1,0c0,0,0,0,0,0c-3.6,3.6-3.6,9.5,0,13.1c0.3,0.3,0.8,0.3,1.1,0
			c0,0,0,0,0,0c0.3-0.3,0.3-0.8,0-1.1C0.9,12.6,0.9,7.8,3.8,4.8z"/>
		<path class="st0" d="M7.2,5.3c-0.3-0.3-0.8-0.3-1.1,0c-1.3,1.3-2,3-2,4.8c0,1.8,0.7,3.6,2,4.8c0.3,0.3,0.8,0.3,1.1,0c0,0,0,0,0,0
			c0.3-0.3,0.3-0.8,0-1.1c-1-1-1.5-2.3-1.5-3.7c0-1.4,0.5-2.7,1.5-3.7C7.5,6.1,7.5,5.6,7.2,5.3C7.2,5.3,7.2,5.3,7.2,5.3z"/>
	</g>
</g>
</svg>
