<?xml version="1.0" encoding="utf-8"?>
<!-- Generator: Adobe Illustrator 26.0.1, SVG Export Plug-In . SVG Version: 6.00 Build 0)  -->
<svg version="1.1" id="Layer_1" xmlns="http://www.w3.org/2000/svg" xmlns:xlink="http://www.w3.org/1999/xlink" x="0px" y="0px"
	 viewBox="0 0 480 360" style="enable-background:new 0 0 480 360;" xml:space="preserve">
<style type="text/css">
	.st0{fill:#F4F5F8;}
	.st1{fill:#0057FF;}
</style>
<g>
	<path class="st0" d="M0,0h480v360H0V0z"/>
	<g>
		<path class="st1" d="M81,210H55v-34H44c-2.2,0-4,1.8-4,4v42h41V210z M394,176h-11v34h-26v12h41v-42C398,177.8,396.2,176,394,176z
			 M97.6,218.8L96,220v2h8v-2l-1.6-1.2C101,217.8,99,217.8,97.6,218.8z M176.6,218.8L175,220v2h8v-2l-1.6-1.2
			C180,217.8,178,217.8,176.6,218.8L176.6,218.8z M255.6,218.8L254,220v2h8v-2l-1.6-1.2C259,217.8,257,217.8,255.6,218.8
			L255.6,218.8z M334.6,218.8L333,220v2h8v-2l-1.6-1.2C338,217.8,336,217.8,334.6,218.8z M295,211v-9h10v9h2.2l6.8-6.8V139h-6v54
			h-16v-54h-6v65.2l6.8,6.8H295z"/>
		<path class="st1" d="M294,139h12v52h-12V139z M290,129h20v8h-20V129z M300,218l3-3v-11h-6v11L300,218z M296,99h8v28h-8V99z
			 M415,163h26v42h-26V163z"/>
		<path class="st1" d="M446,158h-36v56h36V158z M443,207h-30v-46h30V207z M450,220c0-2.2-1.8-4-4-4s-4,1.8-4,4h-2v-2h-34v2h-2v2h48
			v-2H450z M30,244h8v58h-8V244z M52,320h22l6.5-3.6c2.9-1.6,6.2-2.4,9.6-2.4h257.8c3.3,0,6.6,0.8,9.6,2.4l6.5,3.6h22v-16H52V320z
			 M56,326h4v2h-2v2h8v-2h-2v-2h4v-4H56V326z M370,326h4v2h-2v2h8v-2h-2v-2h4v-4h-12V326z M40,224h41v78H40V224z M83,224h315v66H83
			V224z M83,292h315v10H83V292z M424,275h-3v8h8l3-3v-8h-8V275z M425,224h6v46h-6V224z M400,276h19v6h-19V276z M153.8,178
			c-3-2.7-4.8-6.7-4.8-11c0-8.3,6.7-15,15-15h119v-8H164c-12.7,0-23,10.3-23,23c0,3.8,1,7.6,2.8,11H153.8z M271.1,146
			c1.1,0,2,0.8,2,2c0,1.1-0.8,2-2,2c0,0-0.1,0-0.1,0c-1.1,0-2-0.9-2-2C269.2,146.9,270,146.1,271.1,146z M259.2,146c1.1,0,2,0.9,2,2
			c0,1.1-0.9,2-2,2c-1.1,0-2-0.9-2-2S258.1,146,259.2,146z M247.3,146c1.1,0,2,0.9,2,2c0,1.1-0.9,2-2,2c-1.1,0-2-0.9-2-2
			S246.2,146,247.3,146z M235.4,146c1.1,0,2,0.8,2,2c0,1.1-0.8,2-2,2c0,0-0.1,0-0.1,0c-1.1,0-2-0.9-2-2
			C233.4,146.9,234.3,146.1,235.4,146z M223.5,146c1.1,0,2,0.9,2,2c0,1.1-0.9,2-2,2c-1.1,0-2-0.9-2-2S222.4,146,223.5,146z
			 M211.6,146c1.1,0,2,0.9,2,2c0,1.1-0.9,2-2,2c-1.1,0-2-0.9-2-2S210.5,146,211.6,146z M199.6,146c1.1,0,2,0.8,2,2c0,1.1-0.8,2-2,2
			c0,0-0.1,0-0.1,0c-1.1,0-2-0.9-2-2C197.7,146.9,198.6,146.1,199.6,146z M187.7,146c1.1,0,2,0.8,2,2c0,1.1-0.8,2-2,2
			c0,0-0.1,0-0.1,0c-1.1,0-2-0.9-2-2C185.8,146.9,186.7,146.1,187.7,146L187.7,146z M175.8,146c1.1,0,2,0.9,2,2c0,1.1-0.9,2-2,2
			c-1.1,0-2-0.9-2-2S174.7,146,175.8,146z M163.9,146c1.1,0,2,0.9,2,2c0,0,0,0,0,0c0,1.1-0.9,2-2,2c0,0,0,0,0,0h0c-1.1,0-2-0.9-2-2
			C161.9,146.9,162.8,146,163.9,146z M151.6,150.1c0.9-0.6,2.1-0.4,2.8,0.4s0.5,2.1-0.4,2.8c-0.4,0.3-0.8,0.4-1.2,0.4
			c-0.6,0-1.2-0.3-1.6-0.8C150.5,152,150.7,150.7,151.6,150.1z M144,160.5c0.3-1,1.5-1.6,2.5-1.3c0,0,0,0,0,0
			c1.1,0.3,1.6,1.5,1.3,2.5c-0.3,0.8-1,1.4-1.9,1.4c-0.2,0-0.4,0-0.6-0.1C144.3,162.7,143.7,161.6,144,160.5z M145.3,171
			c1-0.3,2.2,0.2,2.5,1.3c0,0,0,0,0,0c0.3,1.1-0.2,2.2-1.3,2.5c-0.2,0.1-0.4,0.1-0.6,0.1c-0.9,0-1.6-0.5-1.9-1.4
			C143.7,172.4,144.2,171.3,145.3,171C145.3,171,145.3,171,145.3,171z M65,208h16v-4h203v-23.2l-1-0.8l-2,1.6l-2-1.6l-2,1.6l-2-1.6
			l-2,1.6l-2-1.6l-2,1.6l-2-1.6l-2,1.6l-2-1.6l-2,1.6l-2-1.6l-2,1.6l-2-1.6l-2,1.6l-2-1.6l-2,1.6l-2-1.6l-2,1.6l-2-1.6l-2,1.6
			l-2-1.6l-2,1.6l-2-1.6l-2,1.6l-2-1.6l-2,1.6l-2-1.6l-2,1.6l-2-1.6l-2,1.6l-2-1.6l-2,1.6l-2-1.6l-2,1.6l-2-1.6l-2,1.6l-2-1.6
			l-2,1.6l-2-1.6l-2,1.6l-2-1.6l-2,1.6l-2-1.6l-2,1.6l-2-1.6l-2,1.6l-2-1.6l-2,1.6l-2-1.6l-2,1.6l-2-1.6l-2,1.6l-2-1.6l-2,1.6
			l-2-1.6l-2,1.6l-2-1.6l-2,1.6l-2-1.6l-2,1.6l-2-1.6l-2,1.6l-2-1.6l-2,1.6l-2-1.6l-2,1.6l-2-1.6l-2,1.6l-2-1.6l-2,1.6l-2-1.6
			l-2,1.6l-2-1.6l-2,1.6l-2-1.6l-2,1.6l-2-1.6l-2,1.6l-2-1.6l-2,1.6l-2-1.6l-2,1.6l-2-1.6l-2,1.6l-2-1.6l-2,1.6l-2-1.6l-2,1.6
			l-2-1.6l-2,1.6l-2-1.6l-2,1.6l-2-1.6l-2,1.6l-2-1.6l-2,1.6l-2-1.6l-2,1.6l-2-1.6l-2,1.6v0.3l-2-1.9l-2,1.9l-2-1.9l-2,1.9l-2-1.9
			l-2,1.9l-2-1.9l-2,1.9l-2-1.9l-2,1.9l-2-1.9l-2,1.9V208h4H65z M321,204h36v4h24v-26.1l-2-1.9l-2,1.9l-2-1.9l-2,1.9l-2-1.9l-2,1.9
			l-2-1.9l-2,1.9l-2-1.9l-2,1.9l-2-1.9l-2,1.9v-0.3l-2-1.6l-2,1.6l-2-1.6l-2,1.6l-2-1.6l-2,1.6l-2-1.6l-2,1.6l-2-1.6l-2,1.6l-2-1.6
			l-2,1.6l-2-1.6l-2,1.6l-2-1.6l-2,1.6l-2-1.6l-2,1.6l-2-1.6l-2,1.6l-1-0.8V204h1H321z"/>
	</g>
</g>
</svg>
