<?xml version="1.0" encoding="utf-8"?>
<!-- Generator: Adobe Illustrator 26.0.1, SVG Export Plug-In . SVG Version: 6.00 Build 0)  -->
<svg version="1.1" id="Layer_1" xmlns="http://www.w3.org/2000/svg" xmlns:xlink="http://www.w3.org/1999/xlink" x="0px" y="0px"
	 viewBox="0 0 480 360" style="enable-background:new 0 0 480 360;" xml:space="preserve">
<style type="text/css">
	.st0{fill:#F4F5F8;}
	.st1{fill:#0057FF;}
</style>
<g>
	<path class="st0" d="M0,0h480v360H0V0z"/>
	<g>
		<path class="st1" d="M30,330h40v-20H30V330z M49,322h2c0.6,0,1,0.4,1,1s-0.4,1-1,1v3h-2v-3c-0.6,0-1-0.4-1-1S48.4,322,49,322z
			 M116,200h18v108h-18V200z M136,230h264v20H136V230z M136,208h264v20H136V208z M402,234h8v12h-8V234z"/>
		<circle class="st1" cx="72" cy="267" r="2"/>
		<path class="st1" d="M46,298v10h52v-72H46v20h2v2h-2v38h2v2H46z M92,269h2v6h-2V269z M80,256c1.1,0,2,0.8,2,2c0,1.1-0.8,2-2,2
			c0,0-0.1,0-0.1,0c-1.1,0-2-0.9-2-2C78.1,256.9,78.9,256.1,80,256z M72,256c1.1,0,2,0.8,2,2c0,1.1-0.8,2-2,2c0,0-0.1,0-0.1,0
			c-1.1,0-2-0.9-2-2C70.1,256.9,70.9,256.1,72,256z M72,263c2.2,0,4,1.8,4,4s-1.8,4-4,4s-4-1.8-4-4S69.8,263,72,263z M64,256
			c1.1,0,2,0.8,2,2c0,1.1-0.8,2-2,2c0,0-0.1,0-0.1,0c-1.1,0-2-0.9-2-2C62.1,256.9,62.9,256.1,64,256z"/>
		<path class="st1" d="M44,234h56v74h14V200H30v108h14V234z M72,310h146v20H72V310z M262,310h126v20H262V310z M220,330h40v-20h-40
			V330z M239,322h2c0.6,0,1,0.4,1,1s-0.4,1-1,1v3h-2v-3c-0.6,0-1-0.4-1-1S238.4,322,239,322z M390,330h40v-20h-40V330z M409,322h2
			c0.6,0,1,0.4,1,1s-0.4,1-1,1v3h-2v-3c-0.6,0-1-0.4-1-1S408.4,322,409,322z M449,243c-0.6,0-1,0.4-1,1h-4c0-1.1-0.9-2-2-2
			s-2,0.9-2,2v6h-3v8h3v6c0,1.1,0.9,2,2,2s2-0.9,2-2v-18h4c0,0.6,0.4,1,1,1s1-0.4,1-1v-2C450,243.5,449.6,243,449,243z M410,266H136
			v42h274V266z M402,294h-20v-20h20V294z"/>
		<path class="st1" d="M400,276h-16v16h16V276z M392,285c-0.6,0-1-0.4-1-1c0-0.6,0.4-1,1-1s1,0.4,1,1C393,284.6,392.6,285,392,285z
			 M430,226h-18v82h18v-52h5v-4h-5V226z M430,224h10v-4h9v-5h-9v-3h-8v4h-22v-4h-8v12h10H430z"/>
		<path class="st1" d="M430,210v-10h-18v14h18V210z"/>
	</g>
</g>
</svg>
