<?xml version="1.0" encoding="utf-8"?>
<!-- Generator: Adobe Illustrator 26.0.1, SVG Export Plug-In . SVG Version: 6.00 Build 0)  -->
<svg version="1.1" id="Layer_1" xmlns="http://www.w3.org/2000/svg" xmlns:xlink="http://www.w3.org/1999/xlink" x="0px" y="0px"
	 viewBox="0 0 480 360" style="enable-background:new 0 0 480 360;" xml:space="preserve">
<style type="text/css">
	.st0{fill:#F4F5F8;}
	.st1{fill:#0057FF;}
</style>
<g>
	<path class="st0" d="M0,0h480v360H0V0z"/>
	<g>
		<path class="st1" d="M72,288h40l4-14H68L72,288z M70,312l22,18l22-18v-4H70V312z M69,290h4v16h-4V290z M75,290h4v16h-4V290z
			 M81,290h4v16h-4V290z M87,290h4v16h-4V290z M93,290h4v16h-4V290z M99,290h4v16h-4V290z M105,290h4v16h-4V290z M111,290h4v16h-4
			V290z M67,129.5v6.5h50v-6.5c0-2.3,0.9-4.4,2.5-6c1-1,1.5-2.3,1.5-3.6V104c0-2.2-1.8-4-4-4H67c-2.2,0-4,1.8-4,4v15.9
			c0,1.4,0.5,2.7,1.5,3.6C66.1,125.1,67,127.3,67,129.5z M97,90H87c-5,0-9,3-9,8h28C106,93,102,90,97,90z M30,189
			c0,6.1,4.9,11,11,11h15v-22H41C34.9,178,30,182.9,30,189z M45,189c0,2.2-1.8,4-4,4s-4-1.8-4-4s1.8-4,4-4S45,186.8,45,189z M30,229
			c0,6.1,4.9,11,11,11h15v-22H41C34.9,218,30,222.9,30,229z M45,229c0,2.2-1.8,4-4,4s-4-1.8-4-4s1.8-4,4-4S45,226.8,45,229z
			 M154,189c0-6.1-4.9-11-11-11h-15v22h15C149.1,200,154,195.1,154,189z M139,189c0-2.2,1.8-4,4-4s4,1.8,4,4s-1.8,4-4,4
			S139,191.2,139,189z M154,229c0-6.1-4.9-11-11-11h-15v42h22v-20h-7C149.1,240,154,235.1,154,229z M143,233c-2.2,0-4-1.8-4-4
			s1.8-4,4-4s4,1.8,4,4S145.2,233,143,233z"/>
		<path class="st1" d="M152,240h10v20h-10V240z M128,148h8v18h-8V148z M144,168h8v-7c0-4.4-3.6-8-8-8h-6v8h6V168z M52,138v26h6v108
			h68V138H52z M73,254c2.2,0,4,1.8,4,4c0,2.2-1.8,4-4,4s-4-1.8-4-4C69,255.8,70.8,254,73,254z M428,308h22v4h-22V308z M242,308h22v4
			h-22V308z M442,314h-14v8h6c0,4.4,3.6,8,8,8s8-3.6,8-8S446.4,314,442,314z M256,314h-14v8h6c0,4.4,3.6,8,8,8s8-3.6,8-8
			S260.4,314,256,314z M242,306h22v-9h164v9h22V164H242V306z"/>
		<path class="st1" d="M266,299h160v7H266V299z M432,130v-6h-4v6H242v32h208v-32H432z M316,150c-2.2,0-4-1.8-4-4s1.8-4,4-4
			s4,1.8,4,4S318.2,150,316,150z M336,150c-2.2,0-4-1.8-4-4s1.8-4,4-4s4,1.8,4,4S338.2,150,336,150z M356,150c-2.2,0-4-1.8-4-4
			s1.8-4,4-4s4,1.8,4,4S358.2,150,356,150z M376,150c-2.2,0-4-1.8-4-4s1.8-4,4-4s4,1.8,4,4S378.2,150,376,150z M430,154
			c-4.4,0-8-3.6-8-8c0-4.4,3.6-8,8-8s8,3.6,8,8C438,150.4,434.4,154,430,154z M428,122h4c1.1,0,2-0.9,2-2V92c0-1.1-0.9-2-2-2h-4
			c-1.1,0-2,0.9-2,2v28C426,121.1,426.9,122,428,122z M254,117.8c0-0.3,0.2-0.6,0.4-0.8c0.3-0.2,0.6-0.2,0.9-0.1l6.4,2.1l0.6-1.9
			l-6.4-2.1c-0.9-0.3-1.9-0.2-2.7,0.4s-1.3,1.5-1.2,2.4V128h2V117.8z M282,117v11h2v-11c0-1.7-1.3-3-3-3h-7v2h7
			C281.6,116,282,116.4,282,117z"/>
		<path class="st1" d="M403,117.2c0-0.6,0.4-1,1-1h0.1l6.8,0.8l0.2-2l-6.8-0.8c-1.6-0.2-3.1,1-3.3,2.7c0,0.1,0,0.2,0,0.3V128h2
			L403,117.2L403,117.2z"/>
	</g>
</g>
</svg>
