<?xml version="1.0" encoding="utf-8"?>
<!-- Generator: Adobe Illustrator 26.0.1, SVG Export Plug-In . SVG Version: 6.00 Build 0)  -->
<svg version="1.1" id="Layer_1" xmlns="http://www.w3.org/2000/svg" xmlns:xlink="http://www.w3.org/1999/xlink" x="0px" y="0px"
	 viewBox="0 0 480 360" style="enable-background:new 0 0 480 360;" xml:space="preserve">
<style type="text/css">
	.st0{fill:#F4F5F8;}
	.st1{fill:#0057FF;}
</style>
<g>
	<path class="st0" d="M0,0h480v360H0V0z"/>
	<g>
		<path class="st1" d="M34,216h14v4H34V216z M34,228h6v-2h2v2h6v-2h4v-2h-4v-2h-6v2h-2v-2h-6V228z M55,216h14v4H55V216z M55,228h6
			v-2h2v2h6v-2h4v-2h-4v-2h-6v2h-2v-2h-6V228z M76,216h14v4H76V216z M76,228h6v-2h2v2h6v-2h4v-2h-4v-2h-6v2h-2v-2h-6V228z M97,216
			h14v4H97V216z M97,228h6v-2h2v2h6v-2h4v-2h-4v-2h-6v2h-2v-2h-6V228z M118,216h14v4h-14V216z M118,228h6v-2h2v2h6v-2h4v-2h-4v-2h-6
			v2h-2v-2h-6V228z M139,216h14v4h-14V216z M139,228h6v-2h2v2h6v-2h4v-2h-4v-2h-6v2h-2v-2h-6V228z M160,216h14v4h-14V216z M160,228
			h6v-2h2v2h6v-2h4v-2h-4v-2h-6v2h-2v-2h-6V228z M181,216h14v4h-14V216z M181,228h6v-2h2v2h6v-2h4v-2h-4v-2h-6v2h-2v-2h-6V228z
			 M202,216h14v4h-14V216z M202,228h6v-2h2v2h6v-2h4v-2h-4v-2h-6v2h-2v-2h-6V228z M223,216h14v4h-14V216z M223,228h6v-2h2v2h6v-2h4
			v-2h-4v-2h-6v2h-2v-2h-6V228z M244,216h14v4h-14V216z M244,228h6v-2h2v2h6v-2h4v-2h-4v-2h-6v2h-2v-2h-6V228z M265,216h14v4h-14
			V216z M265,228h6v-2h2v2h6v-2h4v-2h-4v-2h-6v2h-2v-2h-6V228z M286,216h14v4h-14V216z M286,228h6v-2h2v2h6v-2h4v-2h-4v-2h-6v2h-2
			v-2h-6V228z M307,216h14v4h-14V216z M307,228h6v-2h2v2h6v-2h4v-2h-4v-2h-6v2h-2v-2h-6V228z M328,216h14v4h-14V216z M328,228h6v-2
			h2v2h6v-2h4v-2h-4v-2h-6v2h-2v-2h-6V228z M349,216h14v4h-14V216z M349,228h6v-2h2v2h6v-2h4v-2h-4v-2h-6v2h-2v-2h-6V228z M370,216
			h14v4h-14V216z M384,222h-6v2h-2v-2h-6v6h6v-2h2v2h6v-2h4v-2h-4V222z M30,240h358v-8H30V240z M374,235h6v2h-6V235z M353,235h6v2
			h-6V235z M332,235h6v2h-6V235z M311,235h6v2h-6V235z M290,235h6v2h-6V235z M269,235h6v2h-6V235z M248,235h6v2h-6V235z M227,235h6
			v2h-6V235z M206,235h6v2h-6V235z M185,235h6v2h-6V235z M164,235h6v2h-6V235z M143,235h6v2h-6V235z M122,235h6v2h-6V235z M101,235
			h6v2h-6V235z M80,235h6v2h-6V235z M59,235h6v2h-6V235z M38,235h6v2h-6V235z M101,242h10v4h-10V242z M103,248h6v26h-6V248z
			 M310,248h6v26h-6V248z M308,242h10v4h-10V242z M111,256h197v6H111V256z M113,242v6h-2v6h197v-6h-2v-6h-10v4h-34v-4h-36v4h-34v-4
			h-35v4h-34v-4H113z"/>
		<path class="st1" d="M363,246h-34v-4h-9v6h-2v6h45v2h-45v6h45v2h-45v12h-4v3h2v2h-6v-2h2v-3h-4v-12H111v12h-4v3h2v2h-6v-2h2v-3h-4
			v-12H55v-2h46v-6H55v-2h46v-6h-2v-6H89v4H55v-4H30v40l8,48h342l8-48v-40h-25V246z M332,120H86v76H30v16h358v-16h-56V120z"/>
		<path class="st1" d="M30,182h54v12H30V182z M334,182h54v12h-54V182z M30,180h54v-62h250v62h54V90H30V180z M408,158v42h42v-42H408z
			 M446,190h-34v-28h34V190z"/>
		<path class="st1" d="M414,164h30v24h-30V164z M426,142h6v14h-6V142z M390,133h33v6h-33V133z M433,135l-3-3h-5v8h8V135z M426,226h6
			v4h-6V226z M416,228h6v2h-6V228z M436,228h6v2h-6V228z M437,325h-7v5h10v-2C440,326.4,438.7,325,437,325z M418,328v2h10v-5h-7
			C419.3,325,418,326.4,418,328z"/>
		<path class="st1" d="M408,238c3.8,3.8,5.9,9.1,5.8,14.5L412,319v11h4v-2c0-2.8,2.2-5,5-5h16c2.8,0,5,2.2,5,5v2h4v-11l-1.8-66.5
			c-0.1-5.4,1.9-10.7,5.8-14.5v-6h-42V238z M421,237h16v2h-16V237z"/>
	</g>
</g>
</svg>
