<?xml version="1.0" encoding="utf-8"?>
<!-- Generator: Adobe Illustrator 26.0.1, SVG Export Plug-In . SVG Version: 6.00 Build 0)  -->
<svg version="1.1" id="Layer_1" xmlns="http://www.w3.org/2000/svg" xmlns:xlink="http://www.w3.org/1999/xlink" x="0px" y="0px"
	 viewBox="0 0 480 360" style="enable-background:new 0 0 480 360;" xml:space="preserve">
<style type="text/css">
	.st0{fill:#F4F5F8;}
	.st1{fill:#0057FF;}
</style>
<g>
	<path class="st0" d="M0,0h480v360H0V0z"/>
	<g>
		<path class="st1" d="M43,242h5v-62H30v62h5v-7h8V242z"/>
		<path class="st1" d="M37,237h4v5h-4V237z M57,227h4v5h-4V227z"/>
		<path class="st1" d="M424,170v-8h-12v12H268v-3h-51v3h-84v-2H82v-4H72v4h-6v-4H52v4H30v6h42v12h-4v-10H50v52h5v-7h8v7h5v-16h65
			v-26H82v-12h51v-2h84v3h22v11h-50v8h58v-19h21v-3h144v4h-10v10H249v10h-50v10h-12v-20h-52v45l20,10v75h-20v10h36v-14h183v14h36
			v-10h-20v-63l51-27.2V255c0,1.1-0.9,2-2,2h-36c-3.3,0-6,2.7-6,6v8h4v-8c0-1.1,0.9-2,2-2h36c3.3,0,6-2.7,6-6v-27.3l5-2.7v-45h20
			v-10L424,170L424,170z M35,176c-0.6,0-1-0.4-1-1c0-0.6,0.4-1,1-1s1,0.4,1,1C36,175.6,35.6,176,35,176z M43,176c-0.6,0-1-0.4-1-1
			c0-0.6,0.4-1,1-1s1,0.4,1,1C44,175.6,43.6,176,43,176z M55,176c-0.6,0-1-0.4-1-1c0-0.6,0.4-1,1-1s1,0.4,1,1
			C56,175.6,55.6,176,55,176z M63,176c-0.6,0-1-0.4-1-1c0-0.6,0.4-1,1-1s1,0.4,1,1C64,175.6,63.6,176,63,176z M240,306h-69v-49h69
			V306z M354,306H250v-49h104V306z M225,139h18v18h-18V139z"/>
		<path class="st1" d="M266,159v-26h-47v26l-2,10h51L266,159z M245,159h-22v-22h22V159z M250,155h-2v-2h2V155z M250,151h-2v-2h2V151
			z M250,147h-2v-2h2V147z M250,143h-2v-2h2V143z M254,155h-2v-2h2V155z M254,151h-2v-2h2V151z M254,147h-2v-2h2V147z M254,143h-2
			v-2h2V143z M258,155h-2v-2h2V155z M258,151h-2v-2h2V151z M258,147h-2v-2h2V147z M258,143h-2v-2h2V143z M262,155h-2v-2h2V155z
			 M262,151h-2v-2h2V151z M262,147h-2v-2h2V147z M262,143h-2v-2h2V143z M238,259h-31v45h31V259z M213,286h-2v-8h2V286z M173,259h32
			v45h-32V259z M189,200h8v8h-8V200z M352,259h-49v45h49V259z M309,286h-2v-8h2V286z M252,259h49v45h-49V259z M373,273h12v34h-12
			V273z M57,250c0,3.3,2.7,6,6,6h47c1.1,0,2,0.9,2,2v18c0,3.3,2.7,6,6,6h35v-4h-35c-1.1,0-2-0.9-2-2v-18c0-3.3-2.7-6-6-6H63
			c-1.1,0-2-0.9-2-2v-16h-4V250z"/>
		<path class="st1" d="M153,286H50c-3.3,0-6,2.7-6,6v8.5c0,0.8-0.7,1.5-1.5,1.5s-1.5-0.7-1.5-1.5V244h-4v56.5c0,3,2.5,5.5,5.5,5.5
			s5.5-2.5,5.5-5.5V292c0-1.1,0.9-2,2-2h103V286z"/>
	</g>
</g>
</svg>
