<svg version="1.1" id="Layer_1" xmlns="http://www.w3.org/2000/svg" x="0" y="0" viewBox="0 0 80 80" xml:space="preserve"><style>.st0{fill:none}</style><path class="st0" d="M38.3 51.4h3.4c.7 0 1.3-.6 1.3-1.3s-.6-1.3-1.3-1.3h-3.4c-.7 0-1.3.6-1.3 1.3s.6 1.3 1.3 1.3zm8.4 0h3.4c.7 0 1.3-.6 1.3-1.3s-.6-1.3-1.3-1.3h-3.4c-.7 0-1.3.6-1.3 1.3s.6 1.3 1.3 1.3zm-8.6-19.1c.4.6 1.2.7 1.8.3.2-.1.3-.3.4-.5l5-10.1c.3-.6.1-1.4-.6-1.7-.6-.3-1.4-.1-1.7.6l-4 8.2-2.2-3.2c-.4-.6-1.2-.7-1.8-.4-.6.4-.7 1.2-.4 1.8.1-.1 3.5 5 3.5 5zm-8.2 19.1h3.4c.7 0 1.3-.6 1.3-1.3s-.6-1.3-1.3-1.3h-3.4c-.7 0-1.3.6-1.3 1.3s.6 1.3 1.3 1.3z"/><path class="st0" d="M77.1 5.1H56.4V2.9c0-1.6-1.3-2.9-2.9-2.9h-27c-1.6 0-2.9 1.3-2.9 2.9V5H2.9C1.3 5.1 0 6.4 0 8v45.5c0 1.6 1.3 2.9 2.9 2.9h27.4v2.1c0 1.6 1.3 2.9 2.9 2.9h2.1v9.3h-5.5c-1.6 0-2.9 1.3-2.9 2.9v3.8h-3.8c-.7 0-1.3.6-1.3 1.3s.6 1.3 1.3 1.3h18.5c.7 0 1.3-.6 1.3-1.3s-.6-1.3-1.3-1.3H29.5v-3.8c0-.2.2-.4.4-.4h20.2c.2 0 .4.2.4.4v3.8h-3.8c-.7 0-1.3.6-1.3 1.3S46 80 46.7 80h10.1c.7 0 1.3-.6 1.3-1.3s-.6-1.3-1.3-1.3H53v-3.8c0-1.6-1.3-2.9-2.9-2.9h-5.5v-9.3h2.1c1.6 0 2.9-1.3 2.9-2.9v-2.1H77c1.6 0 2.9-1.3 2.9-2.9V8c.1-1.6-1.2-2.9-2.8-2.9zm-35 65.6h-4.2v-9.3h4.2v9.3zm35.4-17.2c0 .2-.2.4-.4.4h-32c-.7 0-1.3.6-1.3 1.3s.6 1.3 1.3 1.3h2.1v2.1c0 .2-.2.4-.4.4H33.3c-.2 0-.4-.2-.4-.4v-2.1H40c.7 0 1.3-.6 1.3-1.3s-.6-1.3-1.3-1.3H2.9c-.2 0-.4-.2-.4-.4v-7.2h74.9v7.2h.1zm0-9.7h-75v-16h9.7l2.3 4.5c.4.7 1.1 1.2 1.9 1.2.8 0 1.5-.4 1.9-1.2l2.3-4.5H27c.6 6.6 6.2 11.8 13 11.8s12.4-5.2 13-11.8h7.2c.5 0 .9-.3 1.1-.7l2.2-4.5 2.2 4.5c.2.4.7.7 1.1.7h10.5v16zm-48-17.3C29.5 20.7 34.2 16 40 16s10.5 4.7 10.5 10.5S45.8 37.1 40 37.1s-10.5-4.8-10.5-10.6zm48-1.2h-9.7l-2.3-4.5c-.4-.7-1.1-1.2-1.9-1.2-.8 0-1.5.4-1.9 1.2l-2.3 4.5H53c-.6-6.6-6.2-11.8-13-11.8s-12.4 5.2-13 11.8h-7.2c-.5 0-.9.3-1.1.7l-2.2 4.5-2.3-4.5c-.2-.4-.7-.7-1.1-.7H2.5V8c0-.2.2-.4.4-.4H45c.7 0 1.3-.6 1.3-1.3 0-.7-.6-1.3-1.3-1.3H26.1V2.9c0-.2.2-.4.4-.4h26.9c.2 0 .4.2.4.4V5H50c-.7 0-1.3.6-1.3 1.3 0 .7.6 1.3 1.3 1.3h26.9c.2 0 .4.2.4.4l.2 17.3z"/></svg>