<svg version="1.1" id="Layer_1" xmlns="http://www.w3.org/2000/svg" x="0" y="0" viewBox="0 0 46.5 33.1" xml:space="preserve"><style>.st0{fill:none}</style><path class="st0" d="M37.7 25.5c-.2 0-.4-.1-.5-.2l-8.6-8.1c-.3-.3-.3-.8 0-1.1.3-.3.8-.3 1.1 0l8.6 8.1c.3.3.3.8 0 1.1-.2.2-.4.2-.6.2zm-28.8 0c-.4 0-.7-.3-.7-.8 0-.2.1-.4.2-.5l8.6-8.1c.3-.3.8-.3 1.1.1.3.3.3.8 0 1l-8.6 8.1c-.3.2-.5.2-.6.2z"/><path class="st0" d="M42.8 33.1h-39c-2.1 0-3.7-1.7-3.8-3.7V3.8C0 1.7 1.7 0 3.8 0h39c2.1 0 3.7 1.7 3.8 3.8v25.6c-.1 2-1.8 3.7-3.8 3.7zM3.8 1.5c-1.2 0-2.2 1-2.2 2.2v25.6c0 1.2 1 2.2 2.2 2.2h39c1.2 0 2.2-1 2.2-2.2V3.8c0-1.2-1-2.2-2.2-2.2l-39-.1z"/><path class="st0" d="M23.3 20.3c-1 0-2-.3-2.8-1L1.2 2.5c-.3-.3-.3-.7 0-1 .3-.3.7-.3 1.1-.1l19.3 16.8c1 .8 2.6.8 3.5 0L44.3 1.4c.3-.3.8-.2 1.1.1s.2.8-.1 1.1L26 19.3c-.7.7-1.7 1-2.7 1z"/></svg>