<svg width="152" height="38" fill="none" xmlns="http://www.w3.org/2000/svg"><path d="M58.315 10v18h4.437v-7.971L68.546 28h5.177l-6.656-9.129L73.353 10h-5.177l-5.424 7.714V10h-4.438z" fill="#090B0F"/><path d="M73.105 10l5.793 18h5.424l5.794-18h-4.684L81.61 22.986 77.79 10h-4.685zm21.569 0l-6.163 18h4.684l.863-2.829h6.41l.863 2.829h4.684l-6.164-18h-5.177zm4.438 10.929h-3.698l1.849-5.915 1.849 5.915zM107.381 10v18h4.438v-5.914h1.479L116.873 28h4.931l-3.994-6.351a5.291 5.291 0 001.627-1.158c.419-.437.789-1.002 1.134-1.722.321-.72.493-1.62.493-2.726a6.99 6.99 0 00-.419-2.417 5.478 5.478 0 00-1.208-1.929c-.518-.54-1.159-.951-1.898-1.26a7.201 7.201 0 00-2.515-.437h-7.643zm7.372 7.971h-2.934v-3.857h2.959c.567 0 1.01.18 1.355.515.321.36.494.822.494 1.414 0 .591-.173 1.054-.494 1.388-.345.36-.813.54-1.38.54zm12.117-3.857V28h4.438V14.114h4.931V10H121.94v4.114h4.93zM140.659 10l-6.163 18h4.684l.863-2.829h6.41l.863 2.829H152l-6.163-18h-5.178zm4.438 10.929h-3.698l1.849-5.915 1.849 5.915z" fill="#090B0F"/><g clip-path="url(#clip0_59_25)"><path d="M28.353 0L14.665 17.719V0H0v38h14.665V20.281L28.354 38H43.02V0H28.353z" fill="#0057FF"/></g><defs><clipPath id="clip0_59_25"><path fill="#fff" d="M0 0h43.019v38H0z"/></clipPath></defs></svg>