<svg width="28" height="28" fill="none" xmlns="http://www.w3.org/2000/svg"><path d="M17.702 2.458a2.343 2.343 0 001.086-.918l.34-.54h1.741l.34.54a2.343 2.343 0 002.502 1.038l.62-.142 1.232 1.231-.142.621A2.343 2.343 0 0026.46 6.79l.54.34v1.74l-.54.34a2.343 2.343 0 00-1.038 2.502l.142.62-1.231 1.232-.621-.142a2.343 2.343 0 00-2.502 1.038l-.34.54h-1.736l-.34-.54a2.343 2.343 0 00-2.502-1.038l-.62.142-1.232-1.231.142-.621a2.343 2.343 0 00-1.038-2.501L13 8.873v-1.74l.54-.34a2.343 2.343 0 001.038-2.502l-.142-.62 1.231-1.232.621.142a2.36 2.36 0 001.414-.123z" stroke="#0057FF" stroke-width="2" stroke-miterlimit="10"/><path d="M20 10a2 2 0 100-4 2 2 0 000 4zM0 25.125h1.226L10 26.5l9-5.5c0-2-4-1-7.968 1L8 21v-1s5-1 4-3c-5 0-7 1-11 3H0" stroke="#0057FF" stroke-width="2" stroke-miterlimit="10"/></svg>