<svg xmlns="http://www.w3.org/2000/svg" style="border: 0 !important; clip: rect(0 0 0 0) !important; height: 1px !important; margin: -1px !important; overflow: hidden !important; padding: 0 !important; position: absolute !important; width: 1px !important;" class="root-svg-symbols-element">
    <symbol id="007-tools" viewBox="0 0 66.4 79.8">
      <path class="st0" d="M28.2 52.9l-.3-.2 19.9-28.1c3.5 1.7 7.8.7 10.1-2.6l3.9-5.5c1.2-1.7 1.7-3.9 1.3-5.9-.4-2.1-1.6-3.9-3.3-5.1-.6-.5-1.4-.3-1.8.2L52.2 14c-.7.9-2 1.2-3 .5-.5-.3-.8-.8-.9-1.3-.1-.5 0-1.1.3-1.5l5.8-8.2c.4-.6.3-1.4-.3-1.8C50.6-.9 45.6 0 43 3.6L39.1 9c-1.2 1.7-1.7 3.9-1.3 5.9.3 1.7 1.1 3.2 2.3 4.3l-7 9.9-7.4-10.4-1.5-10c-.1-.7-.4-1.4-.8-2L20 2C18.5-.1 15.6-.6 13.5.9L5.3 6.6c-1 .7-1.7 1.8-1.9 3-.2 1.2 0 2.4.7 3.4l3.4 4.8c.4.6 1 1.1 1.6 1.4l9 4.8 9.3 13.1-7.3 10.2-.4-.2c-2.1-1.4-5-.9-6.5 1.1l-1.8 2.6c-.4.6-.2 1.4.3 1.8.6.4 1.3.2 1.7-.3l1.8-2.6c.7-.9 2-1.2 3-.5l6.9 4.8 1.4 1c.5.3.8.8.9 1.3.1.5 0 1.1-.3 1.5L15.6 74.3c-2.3 3.2-6.8 4-10 1.7-1.6-1-2.6-2.7-3-4.5-.3-1.8.1-3.7 1.2-5.3l6.5-9.2c.4-.6.2-1.4-.3-1.8-.6-.4-1.3-.2-1.7.3l-6.5 9.2C.3 66.8-.3 69.4.2 71.9c.4 2.5 1.9 4.8 4 6.2 1.6 1.1 3.6 1.7 5.5 1.7 3.1 0 6.1-1.4 8-4.1l11.6-16.4c.7-1 1-2.2.8-3.4-.2-1.2-.9-2.3-1.9-3zm-8.1-30.6c-.1-.2-.3-.3-.4-.4l-9.3-5c-.3-.2-.5-.4-.7-.6l-3.4-4.8c-.3-.5-.4-1-.3-1.5 0-.6.3-1 .7-1.4l3.1-2.2 5.1 7.2c.4.6 1.2.7 1.8.3.6-.4.7-1.2.3-1.8L11.9 5 15 2.9c1-.7 2.3-.4 3 .5l3.4 4.8c.2.3.3.6.4.9l1.4 9.5-1.6 1.1c-.6.4-.7 1.2-.3 1.8.4.5 1.1.7 1.7.3l1.3-.9 7.3 10.4L29 35l-8.9-12.7zm5.6 28.9l-3.5-2.4 20.6-29.1c.4-.6.3-1.4-.3-1.8-1.2-.8-2-2.1-2.3-3.5-.3-1.4.1-2.9.9-4l4-5.4c1.5-2.1 4.2-2.8 6.5-1.9l-5 7c-.7 1-1 2.2-.8 3.4.2 1.2.9 2.3 1.9 3 2.1 1.4 5 .9 6.5-1.1l5-7.1c.7.8 1.1 1.7 1.3 2.7.3 1.4-.1 2.9-.9 4l-3.9 5.5C54 23 50.5 23.6 48 21.8l-2.2-1.6c-.6-.4-1.4-.3-1.8.3-.4.6-.3 1.4.3 1.8l1.2.8-19.8 28.1z"/><path class="st0" d="M18.2 53.4c-.6-.4-1.4-.3-1.8.3L5.8 68.8c-.4.6-.3 1.4.3 1.8.6.4 1.3.3 1.7-.3l10.7-15c.4-.7.3-1.5-.3-1.9zm46.4 11.3l-6.5-9.2c-.4-.6-1.2-.7-1.8-.3s-.7 1.2-.3 1.8l6.5 9.2c1.1 1.5 1.5 3.4 1.2 5.3-.3 1.9-1.4 3.5-3 4.6-3.2 2.2-7.7 1.5-10-1.7L39.2 57.9c-.3-.5-.4-1-.3-1.5.1-.5.4-1 .9-1.3l8.3-5.7c1-.7 2.3-.4 3 .5l1.8 2.6c.4.6 1.2.7 1.8.3s.7-1.2.3-1.8l-2-2.7c-1.5-2.1-4.4-2.6-6.5-1.1l-.4.3-4.6-6.5c-.4-.6-1.2-.7-1.8-.3s-.7 1.2-.3 1.8L44 49l-3.5 2.4-3.5-4.9c-.4-.6-1.2-.7-1.8-.3-.6.4-.7 1.2-.3 1.8l3.5 4.9-.3.2c-1 .7-1.7 1.8-1.9 3-.2 1.2.1 2.4.8 3.4l11.6 16.4c1.9 2.7 4.9 4.1 8 4.1 1.9 0 3.9-.6 5.5-1.7 2.1-1.5 3.6-3.7 4-6.2.6-2.7 0-5.3-1.5-7.4z"/><path class="st0" d="M43.7 56.7c-.6.4-.7 1.2-.3 1.8l10.7 15.1c.4.6 1.2.7 1.8.3.6-.4.7-1.2.3-1.8L45.5 57c-.4-.6-1.2-.7-1.8-.3zm15.9 14.1c.7 0 1.3-.6 1.3-1.3 0-.3-.1-.5-.2-.7L50 53.7c-.4-.6-1.2-.7-1.8-.3s-.7 1.2-.3 1.8l10.7 15.1c.2.3.6.5 1 .5zm-49.1 3c.6.4 1.4.3 1.8-.3l10.7-15c.4-.6.3-1.4-.3-1.8-.6-.4-1.4-.3-1.8.3L10.2 72c-.4.6-.2 1.4.3 1.8z"/>
    </symbol>
    <symbol id="021-worker" viewBox="0 0 80 80">
      <path class="st0" d="M75.4 0h-59c-.7 0-1.3.6-1.3 1.3 0 .7.6 1.3 1.3 1.3h58.9c1.2 0 2.1.9 2.1 2.1v40.8h-7.2c-.7 0-1.3.6-1.3 1.3s.6 1.3 1.3 1.3h7.2v12.2c0 .8-.4 1.4-1.1 1.8-.6.4-.8 1.1-.4 1.7.4.6 1.1.8 1.7.5 1.4-.8 2.3-2.4 2.3-4V4.6c.1-2.5-2-4.6-4.5-4.6z"/><path class="st0" d="M65.7 55.2c0 2.6 2.1 4.6 4.6 4.6 2.6 0 4.6-2.1 4.6-4.6 0-2.6-2.1-4.6-4.6-4.6-2.5-.1-4.6 2-4.6 4.6zm4.6-2.1c1.2 0 2.1.9 2.1 2.1 0 1.2-.9 2.1-2.1 2.1-1.2 0-2.1-.9-2.1-2.1 0-1.2 1-2.1 2.1-2.1zM27.8 63.6c0-.7-.6-1.3-1.3-1.3H4.6c-1.2 0-2.1-.9-2.1-2.1V48h30.7c.7 0 1.3-.6 1.3-1.3s-.6-1.3-1.3-1.3H2.5V4.6c0-1.2.9-2.1 2.1-2.1h6.7c.7 0 1.3-.6 1.3-1.3 0-.7-.6-1.3-1.3-1.3H4.6C2.1 0 0 2.1 0 4.6v55.6c0 2.6 2.1 4.6 4.6 4.6h21.9c.7 0 1.3-.5 1.3-1.2z"/><path class="st0" d="M70.9 62.6l-11.1-3.3v-4c3.4-1.6 5.8-4.8 6.4-8.5l1.4-9.1c1.4-.5 2.3-1.9 2.3-3.4 0-1-.4-1.9-1.1-2.6l-2.5-2.5-1.7-5.2c-1-3-3.7-5.1-6.8-5.4-.5-1-1.5-1.7-2.7-1.7h-6.7c-1.2 0-2.2.7-2.7 1.7-3.1.3-5.8 2.4-6.8 5.4l-1.7 5.2-2.5 2.5c-.7.7-1.1 1.6-1.1 2.6 0 1.6 1 2.9 2.3 3.4l1.4 9.1c.6 3.7 3 6.9 6.4 8.5v4l-11.1 3.3c-3.4 1-5.7 4.1-5.7 7.7v6.8c0 1.6 1.3 2.9 2.9 2.9h30.3c.7 0 1.3-.6 1.3-1.3s-.6-1.3-1.3-1.3H40.4v-3.8c0-.7-.6-1.3-1.3-1.3s-1.3.6-1.3 1.3v3.8h-8c-.2 0-.4-.2-.4-.4v-6.8c0-2.4 1.6-4.6 3.9-5.2l11.9-3.6h13.1L70.2 65c2.3.7 3.9 2.8 3.9 5.2V77c0 .2-.2.4-.4.4h-8v-3.8c0-.7-.6-1.3-1.3-1.3-.7 0-1.3.6-1.3 1.3v5.1c0 .7.6 1.3 1.3 1.3h9.3c1.6 0 2.9-1.3 2.9-2.9v-6.8c0-3.6-2.3-6.7-5.7-7.7zM37.3 35.4c-.6 0-1.1-.5-1.1-1.1 0-.3.1-.6.3-.8l2.7-2.7c.1-.1.2-.3.3-.5l1.8-5.5c.6-1.9 2.2-3.3 4.1-3.6v5.4c0 .7.6 1.3 1.3 1.3s1.3-.6 1.3-1.3v-6.7c0-.2.2-.4.4-.4h6.7c.2 0 .4.2.4.4v6.7c0 .7.6 1.3 1.3 1.3s1.3-.6 1.3-1.3v-5.4c1.9.4 3.5 1.8 4.1 3.6l1.8 5.5c.1.2.2.4.3.5l2.7 2.7c.4.4.4 1.1 0 1.6-.2.2-.5.3-.8.3H37.3zm17.6 21c.8 0 1.6-.1 2.4-.2V59h-11v-2.8c.8.2 1.6.2 2.4.2h1.4c.7 0 1.3-.6 1.3-1.3s-.6-1.3-1.3-1.3h-1.4c-4.4 0-8.1-3.2-8.7-7.5l-1.3-8.5H65l-1.3 8.5c-.6 4.3-4.4 7.5-8.7 7.5-.7 0-1.3.6-1.3 1.3s.5 1.3 1.2 1.3zM9.7 50.5c-2.6 0-4.6 2.1-4.6 4.6 0 2.6 2.1 4.6 4.6 4.6h11.8c2.6 0 4.6-2.1 4.6-4.6 0-2.6-2.1-4.6-4.6-4.6H9.7zm13.9 4.7c0 1.2-.9 2.1-2.1 2.1H9.7c-1.2 0-2.1-.9-2.1-2.1 0-1.2.9-2.1 2.1-2.1h11.8c1.1 0 2.1.9 2.1 2.1z"/><path class="st0" d="M24 6.7H12.2c-1.2 0-2.1.9-2.1 2.1v5.1c0 1.2.9 2.1 2.1 2.1h4.6v3l-5.6 2.8c-.7.4-1.2 1.1-1.2 1.9v.6c0 .8.4 1.5 1.2 1.9l5.6 2.8v3h-4.6c-1.2 0-2.1.9-2.1 2.1v5.1c0 1.2.9 2.1 2.1 2.1H24c1.2 0 2.1-.9 2.1-2.1v-1.3h3.8c.7 0 1.3-.6 1.3-1.3s-.6-1.3-1.3-1.3h-3.8V34c0-1.2-.9-2.1-2.1-2.1h-4.6v-3l5.6-2.8c.7-.4 1.2-1.1 1.2-1.9v-.6c0-.8-.4-1.5-1.2-1.9L19.4 19v-3H24c1.2 0 2.1-.9 2.1-2.1v-1.3h41.3v12.2c0 .7.6 1.3 1.3 1.3.7 0 1.3-.6 1.3-1.3V11.4c0-.7-.6-1.3-1.3-1.3H26.1V8.8c0-1.1-.9-2.1-2.1-2.1zm-.4 27.8v4.2h-11v-4.2h11zm0-10.6v.1l-5.5 2.7-5.5-2.7v-.1l5.5-2.7 5.5 2.7zm0-10.4h-11V9.3h10.9c.1 0 .1 4.2.1 4.2zm5 41.7c0 2.6 2.1 4.6 4.6 4.6 2.6 0 4.6-2.1 4.6-4.6 0-2.6-2.1-4.6-4.6-4.6-2.5-.1-4.6 2-4.6 4.6zm6.8 0c0 1.2-.9 2.1-2.1 2.1-1.2 0-2.1-.9-2.1-2.1 0-1.2.9-2.1 2.1-2.1s2.1.9 2.1 2.1z"/>
    </symbol>
    <symbol id="030-management" viewBox="0 0 80 80">
      <path class="st0" d="M27.3 10.9h15.2c1.6 0 2.9-1.3 2.9-2.9 0-.4-.1-.8-.2-1.1l-2-5.1C42.8.7 41.8 0 40.5 0H29.4c-1.2 0-2.3.7-2.7 1.9l-2 5.1c-.6 1.5.1 3.2 1.6 3.8.3.1.7.1 1 .1zm-.4-3.1l2-5.1c.1-.2.2-.3.4-.3h11.2c.2 0 .3.1.4.3l2 5.1c.1.1 0 .3 0 .4-.1.1-.2.2-.3.2H27.3c-.1 0-.3-.1-.3-.2-.1-.1-.1-.2-.1-.4zm.9 10.3c0-.7-.6-1.3-1.3-1.3H14.7c-.7 0-1.3.6-1.3 1.3s.6 1.3 1.3 1.3h11.8c.7 0 1.3-.6 1.3-1.3zm49.8 9.4l-3.5-.7c-.2-.6-.5-1.2-.7-1.8l2-2.9c.8-1.2.6-2.7-.4-3.7l-1.6-1.6c-.9-.9-2.4-1.1-3.5-.5V9.7c0-2.6-2.1-4.6-4.6-4.6H48.4c-.7 0-1.3.6-1.3 1.3 0 .7.6 1.3 1.3 1.3h10.5v4.2c-1.4.1-2.5 1-2.8 2.4l-.7 3.5c-.6.2-1.2.5-1.8.7l-2.9-2c-1.2-.8-2.7-.6-3.7.4l-1.6 1.6c-1 1-1.1 2.6-.4 3.7l2 2.9c-.3.6-.5 1.2-.7 1.8l-3.5.7c-1.4.3-2.4 1.5-2.4 2.9v2.3c0 1.4 1 2.6 2.4 2.9l3.5.7c.2.6.5 1.2.7 1.8L45 41c-.8 1.2-.6 2.7.4 3.7l1.6 1.6c1 1 2.6 1.1 3.7.4l2.9-2c.6.3 1.2.5 1.8.7l.7 3.5c.3 1.4 1.5 2.4 2.9 2.4h2.3c1.4 0 2.6-1 2.9-2.4l.7-3.5c.6-.2 1.2-.5 1.8-.7l2.9 2c1.2.8 2.7.6 3.7-.4l1.6-1.6c1-1 1.1-2.6.4-3.7l-2-2.9c.3-.6.5-1.2.7-1.8l3.5-.7c1.4-.3 2.4-1.5 2.4-2.9v-2.3c.1-1.4-.9-2.6-2.3-2.9zM61.5 7.6h3.8c1.2 0 2.1.9 2.1 2.1V18l-.6.4c-.6-.3-1.2-.5-1.8-.7l-.7-3.5c-.3-1.3-1.4-2.3-2.8-2.4V7.6zm16 25.1c0 .2-.1.4-.3.4l-4.3.9c-.5.1-.8.4-1 .9-.3.9-.6 1.8-1.1 2.7-.2.4-.2.9.1 1.3l2.4 3.6c.1.2.1.4-.1.5l-1.6 1.6c-.1.1-.4.2-.5.1l-3.6-2.4c-.4-.3-.9-.3-1.3 0-.8.5-1.8.9-2.7 1.1-.5.1-.8.5-.9 1l-.8 4.2c0 .2-.2.3-.4.3h-2.3c-.2 0-.4-.1-.4-.3l-.8-4.2c-.1-.5-.4-.8-.9-1-.9-.3-1.8-.6-2.7-1.1-.4-.2-.9-.2-1.3 0l-3.6 2.4c-.2.1-.4.1-.5-.1L47.2 43c-.1-.1-.2-.4-.1-.5l2.4-3.6c.3-.4.3-.9 0-1.3-.5-.8-.9-1.7-1.1-2.7-.1-.5-.5-.8-1-.9l-4.2-.8c-.2 0-.3-.2-.3-.4v-2.3c0-.2.1-.4.3-.4l4.2-.8c.5-.1.8-.4 1-.9.3-.9.6-1.8 1.1-2.7.2-.4.2-.9 0-1.3l-2.4-3.6c-.1-.2-.1-.4.1-.5l1.6-1.6c.1-.1.4-.2.5-.1l3.6 2.4c.4.3.9.3 1.3 0 .8-.5 1.7-.9 2.7-1.1.5-.1.8-.5.9-1l.8-4.2c0-.2.2-.3.4-.3h2.3c.2 0 .4.1.4.3l.8 4.2c.1.5.4.8.9 1 .9.3 1.8.6 2.7 1.1.4.2.9.2 1.3 0l3.6-2.4c.2-.1.4-.1.5.1l1.6 1.6c.1.1.2.4.1.5l-2.4 3.6c-.3.4-.3.9-.1 1.3.5.8.9 1.8 1.1 2.7.1.5.5.8 1 .9l4.2.8c.2 0 .3.2.3.4.2-.1.2 2.2.2 2.2z"/><path class="st0" d="M60.2 24.8c-3.8 0-6.8 3.1-6.8 6.8 0 3.8 3.1 6.8 6.8 6.8.7 0 1.3-.6 1.3-1.3s-.6-1.3-1.3-1.3c-2.4 0-4.3-1.9-4.3-4.3s1.9-4.3 4.3-4.3 4.3 1.9 4.3 4.3c0 1-.3 1.9-.9 2.6-.4.6-.3 1.3.2 1.8.6.4 1.3.3 1.8-.2.9-1.2 1.4-2.6 1.4-4.1 0-3.8-3-6.8-6.8-6.8zm-45.5-2.9c-.7 0-1.3.6-1.3 1.3s.6 1.3 1.3 1.3h8.4c.7 0 1.3-.6 1.3-1.3s-.6-1.3-1.3-1.3h-8.4z"/><path class="st0" d="M68.6 48.8c-.7 0-1.3.6-1.3 1.3v25.3c0 1.2-.9 2.1-2.1 2.1H4.6c-1.2 0-2.1-.9-2.1-2.1V9.7c0-1.2.9-2.1 2.1-2.1h3.8v61.1c0 1.6 1.3 2.9 2.9 2.9h35.4c.7 0 1.3-.6 1.3-1.3s-.6-1.3-1.3-1.3H11.4c-.2 0-.4-.2-.4-.4v-3.8h48v3.8c0 .2-.2.4-.4.4h-6.7c-.7 0-1.3.6-1.3 1.3 0 .7.6 1.3 1.3 1.3h6.7c1.6 0 2.9-1.3 2.9-2.9V55.2c0-.7-.6-1.3-1.3-1.3s-1.3.6-1.3 1.3v7.2h-48V49.7h5.5c.6 0 1.2.3 1.6.8l4.7 5.9a4.6 4.6 0 0 0 3.6 1.7h9c1.3 0 2.6-.6 3.5-1.6l6.3-7.3c.4-.5.4-1.3-.2-1.8-.5-.4-1.3-.4-1.8.1L37 54.9c-.4.5-1 .7-1.6.7h-9c-.6 0-1.2-.3-1.6-.8l-4.7-5.9a4.6 4.6 0 0 0-3.6-1.7H11V32.8h24.8c.7 0 1.3-.6 1.3-1.3 0-.7-.6-1.3-1.3-1.3H10.9V7.6h10.5c.7 0 1.3-.6 1.3-1.3 0-.7-.6-1.3-1.3-1.3H4.6C2.1 5.1 0 7.1 0 9.7v65.7C0 77.9 2.1 80 4.6 80h60.6c2.6 0 4.6-2.1 4.6-4.6V50.1c.1-.7-.5-1.3-1.2-1.3z"/>
    </symbol>
    <symbol id="031-machine" viewBox="0 0 80 80">
      <path class="st0" d="M77.1 56.4c1.6 0 2.9-1.3 2.9-2.9v-32c0-1.6-1.3-2.9-2.9-2.9H43.4c-1.6 0-2.9 1.3-2.9 2.9v20.6H27.8v-5.5c0-1.6-1.3-2.9-2.9-2.9h-.4v-6.8l4.9-8.1c.1-.2.2-.4.2-.7V2.9c0-1.6-1.3-2.9-2.9-2.9H20c-.7 0-1.3.6-1.3 1.3 0 .7.6 1.3 1.3 1.3h6.7c.2 0 .4.2.4.4v13.9H16.4c-.7 0-1.3.6-1.3 1.3s.6 1.3 1.3 1.3H26l-3.5 5.9h-5.3l-4.5-7.5v-15c0-.2.2-.4.4-.4h1.7c.6 0 1.2-.5 1.2-1.2S15.4 0 14.7 0H13c-1.6 0-2.9 1.3-2.9 2.9v15.2c0 .2.1.5.2.6l4.9 8.1v6.8h-1.4l-3-4.5c-.2-.4-.6-.6-1.1-.6H2.5V23c0-.7-.6-1.3-1.3-1.3-.7 0-1.3.6-1.3 1.3v26.9c0 .7.6 1.3 1.3 1.3H5v2.5H1.3c-.7 0-1.3.6-1.3 1.3v23.6c0 .8.6 1.4 1.3 1.4h77.5c.7 0 1.3-.6 1.3-1.3s-.6-1.3-1.3-1.3h-7.2v-21h5.5zM17.7 27.8h4.2v5.9h-4.2v-5.9zm-15.2 21v-4.2h3.8c.7 0 1.3-.6 1.3-1.3s-.6-1.2-1.3-1.2H2.5V31.2H9l3 4.5c.2.4.6.6 1.1.6h11.8c.2 0 .4.2.4.4v5.5H11.4c-.7 0-1.3.6-1.3 1.3s.6 1.3 1.3 1.3h29.1V49h-38zm37.9 2.6v2.5h-5.9v-2.5h5.9zm-8.4 0v2.5H7.6v-2.5H32zM7.3 77.5H2.5V75H9c0-.1-1.7 2.5-1.7 2.5zm3.1 0l1.7-2.5h17.2l1.7 2.5H10.4zm27.2 0h-3.7L32.2 75h7.1l-1.7 2.5zm3.1 0l1.7-2.5h17.2l1.7 2.5H40.7zm28.4 0h-4.8L62.6 75h6.5v2.5zm0-5.1H42.9V60.2c0-.7-.6-1.3-1.3-1.3s-1.3.6-1.3 1.3v12.2H2.5v-16H69v16zM42.9 53.9V21.5c0-.2.2-.4.4-.4H77c.2 0 .4.2.4.4v32c0 .2-.2.4-.4.4H42.9z"/><path class="st0" d="M6.3 68.2H13c.7 0 1.3-.6 1.3-1.3s-.6-1.3-1.3-1.3H6.3c-.7 0-1.3.6-1.3 1.3s.6 1.3 1.3 1.3zm42.1-5h6.7c.7 0 1.3-.6 1.3-1.3s-.6-1.3-1.3-1.3h-6.7c-.7 0-1.3.6-1.3 1.3s.6 1.3 1.3 1.3zm-42.1 0H13c.7 0 1.3-.6 1.3-1.3s-.6-1.3-1.3-1.3H6.3c-.7 0-1.3.6-1.3 1.3s.6 1.3 1.3 1.3zM72 25.3H51.8c-.7 0-1.3.6-1.3 1.3v21.9c0 .7.6 1.3 1.3 1.3H72c.7 0 1.3-.6 1.3-1.3v-22c0-.7-.6-1.2-1.3-1.2zm-1.3 21.9h-4.2V31.6c0-.7-.6-1.3-1.3-1.3-.7 0-1.3.6-1.3 1.3v15.6H53.1V27.8h4.2v15.6c0 .7.6 1.3 1.3 1.3s1.3-.6 1.3-1.3V27.8h10.9v19.4zm-24-16.9c-.7 0-1.3.6-1.3 1.3v11.8c0 .7.6 1.3 1.3 1.3s1.3-.6 1.3-1.3V31.6c0-.7-.6-1.3-1.3-1.3zm1.7 37.9h6.7c.7 0 1.3-.6 1.3-1.3s-.6-1.3-1.3-1.3h-6.7c-.7 0-1.3.6-1.3 1.3s.6 1.3 1.3 1.3z"/>
    </symbol>
    <symbol id="042-monitor" viewBox="0 0 80 80">
      <path class="st0" d="M38.3 51.4h3.4c.7 0 1.3-.6 1.3-1.3s-.6-1.3-1.3-1.3h-3.4c-.7 0-1.3.6-1.3 1.3s.6 1.3 1.3 1.3zm8.4 0h3.4c.7 0 1.3-.6 1.3-1.3s-.6-1.3-1.3-1.3h-3.4c-.7 0-1.3.6-1.3 1.3s.6 1.3 1.3 1.3zm-8.6-19.1c.4.6 1.2.7 1.8.3.2-.1.3-.3.4-.5l5-10.1c.3-.6.1-1.4-.6-1.7-.6-.3-1.4-.1-1.7.6l-4 8.2-2.2-3.2c-.4-.6-1.2-.7-1.8-.4-.6.4-.7 1.2-.4 1.8.1-.1 3.5 5 3.5 5zm-8.2 19.1h3.4c.7 0 1.3-.6 1.3-1.3s-.6-1.3-1.3-1.3h-3.4c-.7 0-1.3.6-1.3 1.3s.6 1.3 1.3 1.3z"/><path class="st0" d="M77.1 5.1H56.4V2.9c0-1.6-1.3-2.9-2.9-2.9h-27c-1.6 0-2.9 1.3-2.9 2.9V5H2.9C1.3 5.1 0 6.4 0 8v45.5c0 1.6 1.3 2.9 2.9 2.9h27.4v2.1c0 1.6 1.3 2.9 2.9 2.9h2.1v9.3h-5.5c-1.6 0-2.9 1.3-2.9 2.9v3.8h-3.8c-.7 0-1.3.6-1.3 1.3s.6 1.3 1.3 1.3h18.5c.7 0 1.3-.6 1.3-1.3s-.6-1.3-1.3-1.3H29.5v-3.8c0-.2.2-.4.4-.4h20.2c.2 0 .4.2.4.4v3.8h-3.8c-.7 0-1.3.6-1.3 1.3S46 80 46.7 80h10.1c.7 0 1.3-.6 1.3-1.3s-.6-1.3-1.3-1.3H53v-3.8c0-1.6-1.3-2.9-2.9-2.9h-5.5v-9.3h2.1c1.6 0 2.9-1.3 2.9-2.9v-2.1H77c1.6 0 2.9-1.3 2.9-2.9V8c.1-1.6-1.2-2.9-2.8-2.9zm-35 65.6h-4.2v-9.3h4.2v9.3zm35.4-17.2c0 .2-.2.4-.4.4h-32c-.7 0-1.3.6-1.3 1.3s.6 1.3 1.3 1.3h2.1v2.1c0 .2-.2.4-.4.4H33.3c-.2 0-.4-.2-.4-.4v-2.1H40c.7 0 1.3-.6 1.3-1.3s-.6-1.3-1.3-1.3H2.9c-.2 0-.4-.2-.4-.4v-7.2h74.9v7.2h.1zm0-9.7h-75v-16h9.7l2.3 4.5c.4.7 1.1 1.2 1.9 1.2.8 0 1.5-.4 1.9-1.2l2.3-4.5H27c.6 6.6 6.2 11.8 13 11.8s12.4-5.2 13-11.8h7.2c.5 0 .9-.3 1.1-.7l2.2-4.5 2.2 4.5c.2.4.7.7 1.1.7h10.5v16zm-48-17.3C29.5 20.7 34.2 16 40 16s10.5 4.7 10.5 10.5S45.8 37.1 40 37.1s-10.5-4.8-10.5-10.6zm48-1.2h-9.7l-2.3-4.5c-.4-.7-1.1-1.2-1.9-1.2-.8 0-1.5.4-1.9 1.2l-2.3 4.5H53c-.6-6.6-6.2-11.8-13-11.8s-12.4 5.2-13 11.8h-7.2c-.5 0-.9.3-1.1.7l-2.2 4.5-2.3-4.5c-.2-.4-.7-.7-1.1-.7H2.5V8c0-.2.2-.4.4-.4H45c.7 0 1.3-.6 1.3-1.3 0-.7-.6-1.3-1.3-1.3H26.1V2.9c0-.2.2-.4.4-.4h26.9c.2 0 .4.2.4.4V5H50c-.7 0-1.3.6-1.3 1.3 0 .7.6 1.3 1.3 1.3h26.9c.2 0 .4.2.4.4l.2 17.3z"/>
    </symbol>
    <symbol id="047-control-lever" viewBox="0 0 56.3 79.8">
      <path class="st0" d="M53.4 70.6H52l-2.2-10.5c-.8-3.7-4.1-6.3-7.8-6.3h-.5c-1.6-5.7-6.6-9.6-12.3-10l-6.5-24.3.5-.1c1.5-.4 2.4-1.8 2.1-3.3l-1.5-8.5c-.4-2.5-1.9-4.7-4-6A8.51 8.51 0 0 0 12.7.5c-2.3.5-4.3 2.1-5.5 4.3C6 7.1 5.9 9.7 6.7 12l3 8.1c.5 1.4 2.1 2.2 3.5 1.8l.5-.1 6.5 24.3c-2.7 1.8-4.6 4.5-5.5 7.7h-.5c-3.8 0-7 2.7-7.8 6.3L4.3 70.6H2.9c-1.6 0-2.9 1.3-2.9 2.9v3.4c0 1.6 1.3 2.9 2.9 2.9h37c.7 0 1.3-.6 1.3-1.3s-.6-1.3-1.3-1.3h-37c-.2 0-.4-.2-.4-.4v-3.4c0-.2.2-.4.4-.4h11.8c.7 0 1.3-.6 1.3-1.3 0-.7-.6-1.3-1.3-1.3H6.8l2.1-10c.5-2.5 2.8-4.3 5.3-4.3h.1c-.1 1.6 0 3.3.4 4.8.9 3.6 3.3 6.6 6.5 8.4 3.2 1.8 7 2.3 10.5 1.4 3.6-.9 6.6-3.3 8.4-6.5 1.4-2.5 2.1-5.3 1.8-8.2h.1c2.6 0 4.8 1.8 5.3 4.3l2.1 9.9h-7.9c-.7 0-1.3.6-1.3 1.3s.6 1.3 1.3 1.3h11.8c.2 0 .4.2.4.4v3.4c0 .2-.2.4-.4.4H45c-.7 0-1.3.6-1.3 1.3s.6 1.3 1.3 1.3h8.4c1.6 0 2.9-1.3 2.9-2.9v-3.4c0-1.4-1.3-2.7-2.9-2.7zM14.4 19l-1.8.5c-.2.1-.4-.1-.5-.3l-3-8.1c-.6-1.6-.5-3.5.3-5.1.8-1.6 2.3-2.8 4-3.2 1.7-.5 3.6-.2 5.1.8 1.5 1 2.6 2.5 2.9 4.3l1.5 8.5c0 .2-.1.4-.3.5L14.4 19zm1.8 2.1l4.1-1.1 6.4 23.7c-1.4.2-2.8.5-4.1 1.1l-6.4-23.7zM38 63.2c-1.5 2.6-4 4.5-6.9 5.3-2.9.8-6 .4-8.6-1.1-2.6-1.5-4.5-4-5.3-6.9-1.6-6 2-12.3 8-13.9 6-1.6 12.3 2 13.9 8 .8 2.9.4 6-1.1 8.6z"/><path class="st0" d="M31.4 52.5c-.5.5-.5 1.3 0 1.8.9.9 1.4 2 1.4 3.3 0 2.6-2.1 4.6-4.6 4.6-.7 0-1.3.6-1.3 1.3 0 .7.6 1.3 1.3 1.3 3.9 0 7.1-3.2 7.1-7.1 0-1.9-.8-3.7-2.1-5.1-.5-.6-1.3-.6-1.8-.1zm-7.9 5.1c0-2.6 2.1-4.6 4.6-4.6.7 0 1.3-.6 1.3-1.3 0-.7-.6-1.3-1.3-1.3-3.9 0-7.1 3.2-7.1 7.1 0 1.9.7 3.7 2.1 5.1.5.5 1.3.5 1.8 0s.5-1.3 0-1.8c-.9-.8-1.4-2-1.4-3.2z"/>
    </symbol>
    <symbol id="mail" viewBox="0 0 46.5 33.1">
      <path class="st0" d="M37.7 25.5c-.2 0-.4-.1-.5-.2l-8.6-8.1c-.3-.3-.3-.8 0-1.1.3-.3.8-.3 1.1 0l8.6 8.1c.3.3.3.8 0 1.1-.2.2-.4.2-.6.2zm-28.8 0c-.4 0-.7-.3-.7-.8 0-.2.1-.4.2-.5l8.6-8.1c.3-.3.8-.3 1.1.1.3.3.3.8 0 1l-8.6 8.1c-.3.2-.5.2-.6.2z"/><path class="st0" d="M42.8 33.1h-39c-2.1 0-3.7-1.7-3.8-3.7V3.8C0 1.7 1.7 0 3.8 0h39c2.1 0 3.7 1.7 3.8 3.8v25.6c-.1 2-1.8 3.7-3.8 3.7zM3.8 1.5c-1.2 0-2.2 1-2.2 2.2v25.6c0 1.2 1 2.2 2.2 2.2h39c1.2 0 2.2-1 2.2-2.2V3.8c0-1.2-1-2.2-2.2-2.2l-39-.1z"/><path class="st0" d="M23.3 20.3c-1 0-2-.3-2.8-1L1.2 2.5c-.3-.3-.3-.7 0-1 .3-.3.7-.3 1.1-.1l19.3 16.8c1 .8 2.6.8 3.5 0L44.3 1.4c.3-.3.8-.2 1.1.1s.2.8-.1 1.1L26 19.3c-.7.7-1.7 1-2.7 1z"/>
    </symbol>
    <symbol id="map-location" viewBox="0 0 46.6 48">
      <path class="st0" d="M43.8 19.8h-9.2c-.5 0-.8.4-.8.9s.4.9.8.9h7.7l2.5 24.6H1.9l2.9-24.6h7.7c.5 0 .8-.4.8-.9s-.4-.9-.8-.9H3.3L0 48h46.6l-2.8-28.2z"/><path class="st0" d="M23.1 33.1c-.1.1-.2.1-.4.2s-.4.3-.5.4c-.4.3-.4.8-.2 1.2.2.4.7.5 1.1.2.4-.3.8-.6 1.3-.8.4-.2.5-.7.4-1.1 1.5-1.7 6.5-7.9 8.6-18.4.4-2.1.5-4.1.3-6C33 3 29.7 0 24 0c-5.7 0-9 3-9.8 8.8-.2 1.9-.1 3.9.3 6 2.1 10.3 7 16.6 8.6 18.3zM15.9 9c.6-4.9 3.3-7.2 8.1-7.2 4.9 0 7.5 2.4 8.1 7.2.2 1.7.1 3.5-.3 5.4-1.8 9.4-6.3 15.4-7.8 17.2-1.5-1.8-6-7.8-7.9-17.1-.3-2-.4-3.8-.2-5.5z"/><path class="st0" d="M23.3 15.5c3.5 0 6.3-2.8 6.4-6.4 0-3.5-2.8-6.3-6.4-6.4-3.5 0-6.3 2.8-6.4 6.4 0 3.6 2.9 6.4 6.4 6.4zm0-10.9c2.6 0 4.6 2.1 4.6 4.6 0 2.6-2.1 4.6-4.6 4.6-2.6 0-4.6-2.1-4.6-4.6 0-2.6 2-4.6 4.6-4.6zm4.1 28.1c-.4.1-.6.4-.5.7.1.3.4.5.7.5h.1c.4-.1.9-.1 1.3-.2.4 0 .7-.3.6-.7 0-.3-.4-.6-.8-.5-.5 0-1 .1-1.4.2zm3.7-.9c0 .4.3.6.7.6l1.4-.1c.4 0 .7-.3.7-.7 0-.4-.4-.7-.7-.6l-1.4.1c-.4 0-.7.3-.7.7zm-12.6 5.1c-.4.3-.8.7-1.2 1-.4.3-.5.8-.2 1.2.1.3.4.4.7.4.2 0 .3-.1.4-.1.4-.3.9-.7 1.3-1.1.3-.3.4-.9.2-1.3-.3-.3-.8-.4-1.2-.1zm19.8-5.6c-.2.2-.6.4-1 .5-.4.1-.7.7-.6 1.2.1.5.4.8.7.8h.2c.6-.2 1.1-.5 1.5-.9l.1-.1c.3-.3.4-1 .1-1.4-.2-.4-.6-.5-1-.1zM7 37.6c.1-.4-.1-.8-.5-.9-.3-.1-.7.1-.8.5-.1.5-.2 1.1-.1 1.7 0 .4.3.6.6.6h.1c.4 0 .6-.4.6-.8v-.5c0-.1.1-.4.1-.6zm30.5-15c-.6-.1-1.1 0-1.7.1-.4.1-.6.5-.5.8.1.3.4.5.7.5h.2c.4-.1.7-.1 1.1-.1.4 0 .7-.2.8-.6.1-.3-.2-.6-.6-.7zm3.5 6.1c-.1.4.1.8.4.9h.2c.3 0 .5-.2.6-.5.1-.3.1-.6.1-.9 0-.3-.1-.7-.2-1-.1-.4-.5-.6-.8-.4-.3.2-.4.6-.3 1 .1.2.1.3.1.5v.1c0 .1-.1.2-.1.3zm-26.5 9.5c-.4.3-.9.5-1.3.8-.4.2-.6.8-.4 1.3.1.4.4.6.7.6.1 0 .2 0 .3-.1.5-.2.9-.5 1.4-.8.4-.2.5-.8.4-1.3-.3-.5-.7-.7-1.1-.5zm-5.3-2.9c.1 0 .2 0 .3-.1.2-.1.4-.1.7-.2h.3c.4 0 .8-.2.8-.5.1-.3-.2-.6-.6-.7h-.6c-.4 0-.8.1-1.2.3-.4.2-.5.5-.3.8.1.3.3.4.6.4zM9 42.2c.2 0 .3.1.5.1h1.2c.4 0 .7-.4.6-.7-.1-.4-.4-.6-.8-.6H9.3c-.4-.1-.8.1-.9.5 0 .3.2.6.6.7z"/>
    </symbol>
    <symbol id="pdf" viewBox="0 0 16.4 22">
      <path class="st0" d="M16.2 4.7L11.6.1c0-.1-.1-.1-.2-.1H1.8C.8 0 0 .8 0 1.8v18.3c0 1 .8 1.8 1.8 1.8h12.7c1 0 1.8-.8 1.8-1.8V5c.1-.1 0-.2-.1-.3zm-4.4-3.1l3 3h-2.1c-.5 0-.9-.4-.9-.9V1.6zm3.7 18.6c0 .5-.4.9-.9.9H1.8c-.5 0-.9-.4-.9-.9V1.8c0-.5.4-.9.9-.9h9.1v2.8c0 1 .8 1.8 1.8 1.8h2.7v14.7z"/><path class="st0" d="M10.5 13.7c-.4-.3-.8-.7-1.1-1-.3-.3-.6-.7-.9-1 .4-1.3.6-2 .6-2.4 0-1.6-.5-1.9-1.3-1.9-.6 0-1.3.3-1.3 1.9 0 .7.4 1.5 1.1 2.5-.2.6-.4 1.2-.6 2-.1.4-.2.7-.4 1-.1 0-.2.1-.3.1-.4.2-.7.4-1 .5-1.4.7-2.4 1.2-2.4 2.1 0 .7.7 1.1 1.3 1.1.8 0 2.1-1.2 3-3.1 1-.4 2.1-.7 3.1-.9.8.6 1.6 1.2 2 1.2 1.1 0 1.3-.7 1.3-1.2 0-1.1-1.2-1.1-1.8-1.1-.2.1-.7.1-1.3.2zm-6.3 4.1c-.2 0-.3 0-.4-.1 0-.3.9-.8 1.9-1.3l.2-.1c-.8 1-1.5 1.5-1.7 1.5zm3.1-8.4c0-1 .3-1 .4-1 .3 0 .4 0 .4.9 0 .2-.1.7-.4 1.5-.2-.5-.4-1-.4-1.4zm.3 5c0-.1.1-.2.1-.2l.4-1.4c.2.2.4.4.6.7.1.1.3.3.6.5-.5.1-1.1.3-1.7.4zm5.1.3c0 .2 0 .3-.4.3-.1 0-.4-.2-.8-.4h.3c.6-.1.8 0 .9.1z"/>
    </symbol>
    <symbol id="smartphone" viewBox="0 0 48 48">
      <path class="st0" d="M34.1 0H13.9c-1.9 0-3.5 1.6-3.5 3.5v41c0 1.9 1.6 3.5 3.5 3.5h20.2c1.9 0 3.5-1.6 3.5-3.5v-41C37.6 1.6 36 0 34.1 0zM12 6.4h24v30.4H12V6.4zm1.9-4.8h20.2c1.1 0 1.9.9 1.9 1.9v1.3H12V3.5c0-1 .9-1.9 1.9-1.9zm20.2 44.8H13.9c-1.1 0-1.9-.9-1.9-1.9v-6.1h24v6.1c0 1-.9 1.9-1.9 1.9z"/><path class="st0" d="M24 39.2c-1.8 0-3.2 1.4-3.2 3.2 0 1.8 1.4 3.2 3.2 3.2 1.8 0 3.2-1.4 3.2-3.2s-1.4-3.2-3.2-3.2zm0 4.8c-.9 0-1.6-.7-1.6-1.6s.7-1.6 1.6-1.6 1.6.7 1.6 1.6S24.9 44 24 44zM20.8 4H24c.4 0 .8-.4.8-.8s-.4-.8-.8-.8h-3.2c-.4 0-.8.4-.8.8s.4.8.8.8zm5.6 0h.8c.4 0 .8-.4.8-.8s-.4-.8-.8-.8h-.8c-.4 0-.8.4-.8.8s.4.8.8.8zm18.9-.3c-.3-.3-.8-.3-1.1 0s-.3.8 0 1.1c3 3 3 7.9 0 10.8-.3.3-.3.8 0 1.1s.8.3 1.1 0c3.6-3.6 3.6-9.4 0-13z"/><path class="st0" d="M41.9 5.5c-.3-.3-.8-.3-1.1 0-.3.3-.3.8 0 1.1 1 1 1.5 2.3 1.5 3.7 0 1.4-.5 2.7-1.5 3.7-.3.3-.3.8 0 1.1.3.3.8.3 1.1 0 1.3-1.3 2-3 2-4.8 0-1.8-.7-3.5-2-4.8zM3.8 4.8c.3-.3.3-.8 0-1.1-.3-.3-.8-.3-1.1 0-3.6 3.6-3.6 9.5 0 13.1.3.3.8.3 1.1 0 .3-.3.3-.8 0-1.1C.9 12.6.9 7.8 3.8 4.8zm3.4.5c-.3-.3-.8-.3-1.1 0-1.3 1.3-2 3-2 4.8 0 1.8.7 3.6 2 4.8.3.3.8.3 1.1 0 .3-.3.3-.8 0-1.1-1-1-1.5-2.3-1.5-3.7 0-1.4.5-2.7 1.5-3.7.3-.3.3-.8 0-1.1z"/>
    </symbol></svg>