<?xml version="1.0" encoding="utf-8"?>
<!-- Generator: Adobe Illustrator 22.1.0, SVG Export Plug-In . SVG Version: 6.00 Build 0)  -->
<svg version="1.1" id="Layer_1" xmlns="http://www.w3.org/2000/svg" xmlns:xlink="http://www.w3.org/1999/xlink" x="0px" y="0px"
	  viewBox="0 0 80 80" style="enable-background:new 0 0 80 80;" xml:space="preserve">
<style type="text/css">
	.st0{fill:none;}
</style>
<g>
	<g>
		<path class="st0" d="M27.3,10.9h15.2c1.6,0,2.9-1.3,2.9-2.9c0-0.4-0.1-0.8-0.2-1.1l-2-5.1C42.8,0.7,41.8,0,40.5,0H29.4
			c-1.2,0-2.3,0.7-2.7,1.9l-2,5.1c-0.6,1.5,0.1,3.2,1.6,3.8C26.6,10.9,27,10.9,27.3,10.9z M26.9,7.8l2-5.1c0.1-0.2,0.2-0.3,0.4-0.3
			h11.2c0.2,0,0.3,0.1,0.4,0.3l2,5.1c0.1,0.1,0,0.3,0,0.4c-0.1,0.1-0.2,0.2-0.3,0.2H27.3c-0.1,0-0.3-0.1-0.3-0.2
			C26.9,8.1,26.9,8,26.9,7.8z M27.8,18.1c0-0.7-0.6-1.3-1.3-1.3H14.7c-0.7,0-1.3,0.6-1.3,1.3s0.6,1.3,1.3,1.3h11.8
			C27.2,19.4,27.8,18.8,27.8,18.1z M77.6,27.5l-3.5-0.7c-0.2-0.6-0.5-1.2-0.7-1.8l2-2.9c0.8-1.2,0.6-2.7-0.4-3.7l-1.6-1.6
			c-0.9-0.9-2.4-1.1-3.5-0.5V9.7c0-2.6-2.1-4.6-4.6-4.6H48.4c-0.7,0-1.3,0.6-1.3,1.3c0,0.7,0.6,1.3,1.3,1.3c0,0,0,0,0,0h10.5v4.2
			c-1.4,0.1-2.5,1-2.8,2.4l-0.7,3.5c-0.6,0.2-1.2,0.5-1.8,0.7l-2.9-2c-1.2-0.8-2.7-0.6-3.7,0.4l-1.6,1.6c-1,1-1.1,2.6-0.4,3.7l2,2.9
			c-0.3,0.6-0.5,1.2-0.7,1.8l-3.5,0.7c-1.4,0.3-2.4,1.5-2.4,2.9v2.3c0,1.4,1,2.6,2.4,2.9l3.5,0.7c0.2,0.6,0.5,1.2,0.7,1.8L45,41
			c-0.8,1.2-0.6,2.7,0.4,3.7l1.6,1.6c1,1,2.6,1.1,3.7,0.4l2.9-2c0.6,0.3,1.2,0.5,1.8,0.7l0.7,3.5c0.3,1.4,1.5,2.4,2.9,2.4h2.3
			c1.4,0,2.6-1,2.9-2.4l0.7-3.5c0.6-0.2,1.2-0.5,1.8-0.7l2.9,2c1.2,0.8,2.7,0.6,3.7-0.4l1.6-1.6c1-1,1.1-2.6,0.4-3.7l-2-2.9
			c0.3-0.6,0.5-1.2,0.7-1.8l3.5-0.7c1.4-0.3,2.4-1.5,2.4-2.9v-2.3C80,29,79,27.8,77.6,27.5z M61.5,7.6h3.8c1.2,0,2.1,0.9,2.1,2.1
			v8.3l-0.6,0.4c-0.6-0.3-1.2-0.5-1.8-0.7l-0.7-3.5c-0.3-1.3-1.4-2.3-2.8-2.4L61.5,7.6L61.5,7.6z M77.5,32.7c0,0.2-0.1,0.4-0.3,0.4
			L72.9,34c-0.5,0.1-0.8,0.4-1,0.9c-0.3,0.9-0.6,1.8-1.1,2.7c-0.2,0.4-0.2,0.9,0.1,1.3l2.4,3.6c0.1,0.2,0.1,0.4-0.1,0.5l-1.6,1.6
			c-0.1,0.1-0.4,0.2-0.5,0.1l-3.6-2.4c-0.4-0.3-0.9-0.3-1.3,0c-0.8,0.5-1.8,0.9-2.7,1.1c-0.5,0.1-0.8,0.5-0.9,1l-0.8,4.2
			c0,0.2-0.2,0.3-0.4,0.3h-2.3c-0.2,0-0.4-0.1-0.4-0.3l-0.8-4.2c-0.1-0.5-0.4-0.8-0.9-1c-0.9-0.3-1.8-0.6-2.7-1.1
			c-0.4-0.2-0.9-0.2-1.3,0l-3.6,2.4c-0.2,0.1-0.4,0.1-0.5-0.1L47.2,43c-0.1-0.1-0.2-0.4-0.1-0.5l2.4-3.6c0.3-0.4,0.3-0.9,0-1.3
			c-0.5-0.8-0.9-1.7-1.1-2.7c-0.1-0.5-0.5-0.8-1-0.9l-4.2-0.8c-0.2,0-0.3-0.2-0.3-0.4v-2.3c0-0.2,0.1-0.4,0.3-0.4l4.2-0.8
			c0.5-0.1,0.8-0.4,1-0.9c0.3-0.9,0.6-1.8,1.1-2.7c0.2-0.4,0.2-0.9,0-1.3l-2.4-3.6c-0.1-0.2-0.1-0.4,0.1-0.5l1.6-1.6
			c0.1-0.1,0.4-0.2,0.5-0.1l3.6,2.4c0.4,0.3,0.9,0.3,1.3,0c0.8-0.5,1.7-0.9,2.7-1.1c0.5-0.1,0.8-0.5,0.9-1l0.8-4.2
			c0-0.2,0.2-0.3,0.4-0.3h2.3c0.2,0,0.4,0.1,0.4,0.3l0.8,4.2c0.1,0.5,0.4,0.8,0.9,1c0.9,0.3,1.8,0.6,2.7,1.1c0.4,0.2,0.9,0.2,1.3,0
			l3.6-2.4c0.2-0.1,0.4-0.1,0.5,0.1l1.6,1.6c0.1,0.1,0.2,0.4,0.1,0.5l-2.4,3.6c-0.3,0.4-0.3,0.9-0.1,1.3c0.5,0.8,0.9,1.8,1.1,2.7
			c0.1,0.5,0.5,0.8,1,0.9l4.2,0.8c0.2,0,0.3,0.2,0.3,0.4C77.5,30.4,77.5,32.7,77.5,32.7z"/>
		<path class="st0" d="M60.2,24.8c-3.8,0-6.8,3.1-6.8,6.8c0,3.8,3.1,6.8,6.8,6.8c0.7,0,1.3-0.6,1.3-1.3s-0.6-1.3-1.3-1.3
			c-2.4,0-4.3-1.9-4.3-4.3c0-2.4,1.9-4.3,4.3-4.3c2.4,0,4.3,1.9,4.3,4.3c0,1-0.3,1.9-0.9,2.6c-0.4,0.6-0.3,1.3,0.2,1.8
			c0.6,0.4,1.3,0.3,1.8-0.2l0,0c0.9-1.2,1.4-2.6,1.4-4.1C67,27.8,64,24.8,60.2,24.8L60.2,24.8z M14.7,21.9c-0.7,0-1.3,0.6-1.3,1.3
			s0.6,1.3,1.3,1.3h8.4c0.7,0,1.3-0.6,1.3-1.3s-0.6-1.3-1.3-1.3C23.2,21.9,14.7,21.9,14.7,21.9z"/>
		<path class="st0" d="M68.6,48.8c-0.7,0-1.3,0.6-1.3,1.3v25.3c0,1.2-0.9,2.1-2.1,2.1H4.6c-1.2,0-2.1-0.9-2.1-2.1V9.7
			c0-1.2,0.9-2.1,2.1-2.1h3.8v61.1c0,1.6,1.3,2.9,2.9,2.9h35.4c0.7,0,1.3-0.6,1.3-1.3s-0.6-1.3-1.3-1.3H11.4c-0.2,0-0.4-0.2-0.4-0.4
			v-3.8h48v3.8c0,0.2-0.2,0.4-0.4,0.4l0,0h-6.7c-0.7,0-1.3,0.6-1.3,1.3c0,0.7,0.6,1.3,1.3,1.3h6.7c1.6,0,2.9-1.3,2.9-2.9V55.2
			c0-0.7-0.6-1.3-1.3-1.3s-1.3,0.6-1.3,1.3v7.2h-48V49.7h5.5c0.6,0,1.2,0.3,1.6,0.8l4.7,5.9c0.9,1.1,2.2,1.7,3.6,1.7h9
			c1.3,0,2.6-0.6,3.5-1.6l6.3-7.3c0.4-0.5,0.4-1.3-0.2-1.8c-0.5-0.4-1.3-0.4-1.8,0.1L37,54.9c-0.4,0.5-1,0.7-1.6,0.7h-9
			c-0.6,0-1.2-0.3-1.6-0.8l-4.7-5.9c-0.9-1.1-2.2-1.7-3.6-1.7h-5.5V32.8h24.8c0.7,0,1.3-0.6,1.3-1.3c0-0.7-0.6-1.3-1.3-1.3H10.9V7.6
			h10.5c0.7,0,1.3-0.6,1.3-1.3c0-0.7-0.6-1.3-1.3-1.3c0,0,0,0,0,0H4.6C2.1,5.1,0,7.1,0,9.7v65.7C0,77.9,2.1,80,4.6,80h60.6
			c2.6,0,4.6-2.1,4.6-4.6V50.1C69.9,49.4,69.3,48.8,68.6,48.8z"/>
	</g>
</g>
</svg>
