<?xml version="1.0" encoding="utf-8"?>
<!-- Generator: Adobe Illustrator 22.1.0, SVG Export Plug-In . SVG Version: 6.00 Build 0)  -->
<svg version="1.1" id="Layer_1" xmlns="http://www.w3.org/2000/svg" xmlns:xlink="http://www.w3.org/1999/xlink" x="0px" y="0px"
	 viewBox="0 0 80 80" style="enable-background:new 0 0 80 80;" xml:space="preserve">
<style type="text/css">
	.st0{fill:none;}
</style>
<g>
	<g>
		<path class="st0" d="M77.1,56.4c1.6,0,2.9-1.3,2.9-2.9v-32c0-1.6-1.3-2.9-2.9-2.9H43.4c-1.6,0-2.9,1.3-2.9,2.9v20.6H27.8v-5.5
			c0-1.6-1.3-2.9-2.9-2.9h-0.4v-6.8l4.9-8.1c0.1-0.2,0.2-0.4,0.2-0.7v0v0v0v0V2.9c0-1.6-1.3-2.9-2.9-2.9h-6.7
			c-0.7,0-1.3,0.6-1.3,1.3c0,0.7,0.6,1.3,1.3,1.3c0,0,0,0,0,0h6.7c0.2,0,0.4,0.2,0.4,0.4v13.9H16.4c-0.7,0-1.3,0.6-1.3,1.3
			s0.6,1.3,1.3,1.3c0,0,0,0,0,0H26l-3.5,5.9h-5.3l-4.5-7.5V2.9c0-0.2,0.2-0.4,0.4-0.4h1.7C15.4,2.5,16,2,16,1.3S15.4,0,14.7,0l0,0
			h-1.7c-1.6,0-2.9,1.3-2.9,2.9v15.2c0,0.2,0.1,0.5,0.2,0.6l4.9,8.1v6.8h-1.4l-3-4.5c-0.2-0.4-0.6-0.6-1.1-0.6H2.5v-5.5
			c0-0.7-0.6-1.3-1.3-1.3c-0.7,0-1.3,0.6-1.3,1.3c0,0,0,0,0,0v26.9c0,0.7,0.6,1.3,1.3,1.3h3.8v2.5H1.3c-0.7,0-1.3,0.6-1.3,1.3v23.6
			C0,79.4,0.6,80,1.3,80h77.5c0.7,0,1.3-0.6,1.3-1.3s-0.6-1.3-1.3-1.3h-7.2V56.4L77.1,56.4L77.1,56.4z M17.7,27.8h4.2v5.9h-4.2
			C17.7,33.7,17.7,27.8,17.7,27.8z M2.5,48.8v-4.2h3.8c0.7,0,1.3-0.6,1.3-1.3S7,42.1,6.3,42.1H2.5V31.2H9l3,4.5
			c0.2,0.4,0.6,0.6,1.1,0.6h11.8c0.2,0,0.4,0.2,0.4,0.4v5.5H11.4c-0.7,0-1.3,0.6-1.3,1.3s0.6,1.3,1.3,1.3h29.1v4.2H2.5z M40.4,51.4
			v2.5h-5.9v-2.5H40.4z M32,51.4v2.5H7.6v-2.5H32z M7.3,77.5H2.5v-2.5H9C9,74.9,7.3,77.5,7.3,77.5z M10.4,77.5l1.7-2.5h17.2l1.7,2.5
			H10.4z M37.6,77.5h-3.7l-1.7-2.5h7.1L37.6,77.5z M40.7,77.5l1.7-2.5h17.2l1.7,2.5H40.7z M69.1,77.5h-4.8l-1.7-2.5h6.5
			C69.1,74.9,69.1,77.5,69.1,77.5z M69.1,72.4H42.9V60.2c0-0.7-0.6-1.3-1.3-1.3s-1.3,0.6-1.3,1.3v12.2H2.5v-16h66.5V72.4z
			 M42.9,53.9V21.5c0-0.2,0.2-0.4,0.4-0.4h33.7c0.2,0,0.4,0.2,0.4,0.4v32c0,0.2-0.2,0.4-0.4,0.4l0,0H42.9z"/>
		<path class="st0" d="M6.3,68.2h6.7c0.7,0,1.3-0.6,1.3-1.3s-0.6-1.3-1.3-1.3H6.3c-0.7,0-1.3,0.6-1.3,1.3S5.6,68.2,6.3,68.2
			L6.3,68.2z M48.4,63.2h6.7c0.7,0,1.3-0.6,1.3-1.3s-0.6-1.3-1.3-1.3h-6.7c-0.7,0-1.3,0.6-1.3,1.3S47.7,63.2,48.4,63.2z M6.3,63.2
			h6.7c0.7,0,1.3-0.6,1.3-1.3s-0.6-1.3-1.3-1.3H6.3c-0.7,0-1.3,0.6-1.3,1.3S5.6,63.2,6.3,63.2L6.3,63.2z M72,25.3H51.8
			c-0.7,0-1.3,0.6-1.3,1.3v21.9c0,0.7,0.6,1.3,1.3,1.3H72c0.7,0,1.3-0.6,1.3-1.3V26.5C73.3,25.8,72.7,25.3,72,25.3z M70.7,47.2h-4.2
			V31.6c0-0.7-0.6-1.3-1.3-1.3c-0.7,0-1.3,0.6-1.3,1.3l0,0v15.6H53.1V27.8h4.2v15.6c0,0.7,0.6,1.3,1.3,1.3s1.3-0.6,1.3-1.3V27.8
			h10.9V47.2z M46.7,30.3c-0.7,0-1.3,0.6-1.3,1.3v11.8c0,0.7,0.6,1.3,1.3,1.3s1.3-0.6,1.3-1.3V31.6C48,30.9,47.4,30.3,46.7,30.3z
			 M48.4,68.2h6.7c0.7,0,1.3-0.6,1.3-1.3s-0.6-1.3-1.3-1.3h-6.7c-0.7,0-1.3,0.6-1.3,1.3S47.7,68.2,48.4,68.2z"/>
	</g>
</g>
</svg>
