<?xml version="1.0" encoding="utf-8"?>
<!-- Generator: Adobe Illustrator 22.1.0, SVG Export Plug-In . SVG Version: 6.00 Build 0)  -->
<svg version="1.1" id="Layer_1" xmlns="http://www.w3.org/2000/svg" xmlns:xlink="http://www.w3.org/1999/xlink" x="0px" y="0px"
	 viewBox="0 0 80 80" style="enable-background:new 0 0 80 80;" xml:space="preserve">
<style type="text/css">
	.st0{fill:none;}
</style>
<g>
	<g>
		<path class="st0" d="M38.3,51.4h3.4c0.7,0,1.3-0.6,1.3-1.3s-0.6-1.3-1.3-1.3h-3.4c-0.7,0-1.3,0.6-1.3,1.3S37.6,51.4,38.3,51.4
			L38.3,51.4z M46.7,51.4h3.4c0.7,0,1.3-0.6,1.3-1.3s-0.6-1.3-1.3-1.3h-3.4c-0.7,0-1.3,0.6-1.3,1.3S46,51.4,46.7,51.4z M38.1,32.3
			c0.4,0.6,1.2,0.7,1.8,0.3c0.2-0.1,0.3-0.3,0.4-0.5L45.3,22c0.3-0.6,0.1-1.4-0.6-1.7c-0.6-0.3-1.4-0.1-1.7,0.6L39,29.1l-2.2-3.2
			c-0.4-0.6-1.2-0.7-1.8-0.4c-0.6,0.4-0.7,1.2-0.4,1.8C34.7,27.2,38.1,32.3,38.1,32.3z M29.9,51.4h3.4c0.7,0,1.3-0.6,1.3-1.3
			s-0.6-1.3-1.3-1.3h-3.4c-0.7,0-1.3,0.6-1.3,1.3S29.2,51.4,29.9,51.4z"/>
		<path class="st0" d="M77.1,5.1H56.4V2.9c0-1.6-1.3-2.9-2.9-2.9H26.5c-1.6,0-2.9,1.3-2.9,2.9v2.1H2.9C1.3,5.1,0,6.4,0,8v45.5
			c0,1.6,1.3,2.9,2.9,2.9h27.4v2.1c0,1.6,1.3,2.9,2.9,2.9h2.1v9.3h-5.5c-1.6,0-2.9,1.3-2.9,2.9v3.8h-3.8c-0.7,0-1.3,0.6-1.3,1.3
			s0.6,1.3,1.3,1.3h18.5c0.7,0,1.3-0.6,1.3-1.3s-0.6-1.3-1.3-1.3H29.5v-3.8c0-0.2,0.2-0.4,0.4-0.4h20.2c0.2,0,0.4,0.2,0.4,0.4v3.8
			h-3.8c-0.7,0-1.3,0.6-1.3,1.3S46,80,46.7,80l0,0h10.1c0.7,0,1.3-0.6,1.3-1.3s-0.6-1.3-1.3-1.3h-3.8v-3.8c0-1.6-1.3-2.9-2.9-2.9
			h-5.5v-9.3h2.1c1.6,0,2.9-1.3,2.9-2.9v-2.1h27.4c1.6,0,2.9-1.3,2.9-2.9V8C80,6.4,78.7,5.1,77.1,5.1z M42.1,70.7h-4.2v-9.3h4.2
			V70.7z M77.5,53.5c0,0.2-0.2,0.4-0.4,0.4h-32c-0.7,0-1.3,0.6-1.3,1.3s0.6,1.3,1.3,1.3h2.1v2.1c0,0.2-0.2,0.4-0.4,0.4H33.3
			c-0.2,0-0.4-0.2-0.4-0.4v-2.1H40c0.7,0,1.3-0.6,1.3-1.3s-0.6-1.3-1.3-1.3H2.9c-0.2,0-0.4-0.2-0.4-0.4v-7.2h74.9V53.5L77.5,53.5z
			 M77.5,43.8H2.5v-16h9.7l2.3,4.5c0.4,0.7,1.1,1.2,1.9,1.2c0.8,0,1.5-0.4,1.9-1.2l2.3-4.5H27c0.6,6.6,6.2,11.8,13,11.8
			c6.8,0,12.4-5.2,13-11.8h7.2c0.5,0,0.9-0.3,1.1-0.7l2.2-4.5l2.2,4.5c0.2,0.4,0.7,0.7,1.1,0.7h10.5V43.8z M29.5,26.5
			C29.5,20.7,34.2,16,40,16s10.5,4.7,10.5,10.5S45.8,37.1,40,37.1S29.5,32.3,29.5,26.5z M77.5,25.3h-9.7l-2.3-4.5
			c-0.4-0.7-1.1-1.2-1.9-1.2c-0.8,0-1.5,0.4-1.9,1.2l-2.3,4.5H53c-0.6-6.6-6.2-11.8-13-11.8s-12.4,5.2-13,11.8h-7.2
			c-0.5,0-0.9,0.3-1.1,0.7l-2.2,4.5L14.2,26c-0.2-0.4-0.7-0.7-1.1-0.7H2.5V8c0-0.2,0.2-0.4,0.4-0.4h42.1c0.7,0,1.3-0.6,1.3-1.3
			c0-0.7-0.6-1.3-1.3-1.3H26.1V2.9c0-0.2,0.2-0.4,0.4-0.4h26.9c0.2,0,0.4,0.2,0.4,0.4v2.1h-3.8c-0.7,0-1.3,0.6-1.3,1.3
			c0,0.7,0.6,1.3,1.3,1.3h26.9c0.2,0,0.4,0.2,0.4,0.4L77.5,25.3L77.5,25.3z"/>
	</g>
</g>
</svg>
