<?xml version="1.0" encoding="utf-8"?>
<!-- Generator: Adobe Illustrator 22.1.0, SVG Export Plug-In . SVG Version: 6.00 Build 0)  -->
<svg version="1.1" id="Layer_1" xmlns="http://www.w3.org/2000/svg" xmlns:xlink="http://www.w3.org/1999/xlink" x="0px" y="0px"
	 viewBox="0 0 16.4 22" style="enable-background:new 0 0 16.4 22;" xml:space="preserve">
<style type="text/css">
	.st0{fill:none;}
</style>
<g>
	<g>
		<path class="st0" d="M16.2,4.7l-4.6-4.6C11.6,0,11.5,0,11.4,0H1.8C0.8,0,0,0.8,0,1.8v18.3c0,1,0.8,1.8,1.8,1.8h12.7
			c1,0,1.8-0.8,1.8-1.8V5C16.4,4.9,16.3,4.8,16.2,4.7z M11.8,1.6l3,3h-2.1c-0.5,0-0.9-0.4-0.9-0.9C11.8,3.7,11.8,1.6,11.8,1.6z
			 M15.5,20.2c0,0.5-0.4,0.9-0.9,0.9H1.8c-0.5,0-0.9-0.4-0.9-0.9V1.8c0-0.5,0.4-0.9,0.9-0.9h9.1v2.8c0,1,0.8,1.8,1.8,1.8h2.7V20.2z"
			/>
		<path class="st0" d="M10.5,13.7c-0.4-0.3-0.8-0.7-1.1-1c-0.3-0.3-0.6-0.7-0.9-1c0.4-1.3,0.6-2,0.6-2.4c0-1.6-0.5-1.9-1.3-1.9
			c-0.6,0-1.3,0.3-1.3,1.9c0,0.7,0.4,1.5,1.1,2.5c-0.2,0.6-0.4,1.2-0.6,2c-0.1,0.4-0.2,0.7-0.4,1c-0.1,0-0.2,0.1-0.3,0.1
			c-0.4,0.2-0.7,0.4-1,0.5c-1.4,0.7-2.4,1.2-2.4,2.1c0,0.7,0.7,1.1,1.3,1.1c0.8,0,2.1-1.2,3-3.1c1-0.4,2.1-0.7,3.1-0.9
			c0.8,0.6,1.6,1.2,2,1.2c1.1,0,1.3-0.7,1.3-1.2c0-1.1-1.2-1.1-1.8-1.1C11.6,13.6,11.1,13.6,10.5,13.7z M4.2,17.8
			c-0.2,0-0.3,0-0.4-0.1c0-0.3,0.9-0.8,1.9-1.3l0.2-0.1C5.1,17.3,4.4,17.8,4.2,17.8z M7.3,9.4c0-1,0.3-1,0.4-1c0.3,0,0.4,0,0.4,0.9
			c0,0.2-0.1,0.7-0.4,1.5C7.5,10.3,7.3,9.8,7.3,9.4z M7.6,14.4c0-0.1,0.1-0.2,0.1-0.2l0.4-1.4c0.2,0.2,0.4,0.4,0.6,0.7
			c0.1,0.1,0.3,0.3,0.6,0.5C8.8,14.1,8.2,14.3,7.6,14.4L7.6,14.4z M12.7,14.7c0,0.2,0,0.3-0.4,0.3c-0.1,0-0.4-0.2-0.8-0.4
			c0.1,0,0.2,0,0.3,0C12.4,14.5,12.6,14.6,12.7,14.7L12.7,14.7z"/>
	</g>
</g>
</svg>
